{"glyphs":{"0":{"ha":856,"x_min":89,"x_max":806,"o":"m 110 500 q 248 869 151 738 q 535 1001 344 1001 q 742 922 679 1001 q 806 700 806 843 q 785 500 806 618 q 646 130 743 263 q 358 -3 549 -3 q 151 76 214 -3 q 89 297 89 154 q 110 500 89 379 m 689 500 q 710 692 710 615 q 666 855 710 797 q 519 913 622 913 q 357 859 419 913 q 261 717 294 806 q 206 500 228 628 q 183 304 183 374 q 226 143 183 200 q 374 86 269 86 q 536 140 474 86 q 632 282 599 193 q 689 500 665 371 z "},"1":{"ha":406,"x_min":111,"x_max":383,"o":"m 131 893 l 147 982 l 383 982 l 208 0 l 111 0 l 268 893 l 131 893 z "},"2":{"ha":794,"x_min":1,"x_max":765,"o":"m 14 76 q 471 419 304 267 q 663 714 638 571 q 668 768 668 750 q 627 879 668 838 q 494 921 586 921 q 319 855 389 921 q 225 681 250 789 l 131 681 q 267 919 165 835 q 510 1004 369 1004 q 697 947 628 1004 q 765 782 765 889 q 760 718 765 747 q 564 397 731 553 q 167 89 397 240 l 679 89 l 665 7 l 1 7 l 14 76 z "},"3":{"ha":813,"x_min":50,"x_max":775,"o":"m 147 742 q 281 941 181 868 q 522 1014 382 1014 q 710 957 644 1014 q 775 808 775 900 q 771 760 775 785 q 694 608 756 672 q 535 529 632 544 l 533 522 q 662 453 615 506 q 708 318 708 401 q 703 264 708 303 q 588 69 681 144 q 344 -7 494 -7 q 128 60 207 -7 q 50 254 50 128 q 51 283 50 274 l 146 283 q 197 133 142 192 q 357 75 251 75 q 530 130 464 75 q 611 272 596 185 q 615 315 615 296 q 343 483 615 483 l 314 483 l 329 565 l 360 565 q 676 750 643 565 q 679 786 679 763 q 635 891 679 853 q 504 929 590 929 q 340 880 411 929 q 242 742 269 831 l 147 742 z "},"4":{"ha":851,"x_min":19,"x_max":804,"o":"m 19 236 l 32 310 l 658 990 l 774 990 l 656 321 l 804 321 l 789 236 l 640 236 l 599 0 l 503 0 l 544 236 l 19 236 m 663 883 l 147 321 l 564 321 l 663 883 z "},"5":{"ha":857,"x_min":76,"x_max":825,"o":"m 810 913 l 301 913 l 239 557 q 354 637 282 606 q 504 668 426 668 q 710 597 646 668 q 775 417 775 526 q 768 342 775 383 q 701 166 751 244 q 567 42 651 88 q 369 -4 482 -4 q 152 70 228 -4 q 79 271 76 144 l 174 271 q 233 129 176 179 q 385 79 289 79 q 580 151 506 79 q 675 340 654 222 q 681 401 681 369 q 629 537 681 489 q 478 585 578 585 q 330 547 397 585 q 219 446 263 510 l 129 446 l 226 997 l 825 997 l 810 913 z "},"6":{"ha":874,"x_min":100,"x_max":822,"o":"m 725 753 q 683 887 726 840 q 547 933 639 933 q 325 827 411 933 q 201 482 239 721 q 331 613 243 565 q 521 661 418 661 q 715 594 646 661 q 785 408 785 528 q 776 325 785 369 q 713 159 761 233 q 583 40 664 85 q 394 -4 501 -4 q 167 76 235 -4 q 100 303 100 156 q 119 501 100 392 q 563 1015 210 1015 q 759 942 696 1015 q 817 753 822 869 l 725 753 m 488 578 q 359 551 422 578 q 249 472 296 525 q 190 340 203 418 q 185 281 185 313 q 240 134 185 190 q 404 78 294 78 q 587 143 511 78 q 682 321 663 208 q 689 389 689 360 q 637 528 689 479 q 488 578 585 578 z "},"7":{"ha":740,"x_min":122,"x_max":792,"o":"m 779 919 l 229 0 l 122 0 l 683 913 l 128 913 l 142 994 l 792 994 l 779 919 z "},"8":{"ha":867,"x_min":54,"x_max":828,"o":"m 307 524 q 167 707 167 574 q 171 756 167 731 q 233 890 185 831 q 362 984 282 950 q 544 1018 442 1018 q 755 958 682 1018 q 828 803 828 899 q 824 756 828 781 q 752 613 808 674 q 606 524 696 551 q 726 449 683 503 q 769 318 769 396 q 765 267 769 294 q 630 51 740 131 q 358 -29 519 -29 q 135 34 217 -29 q 54 208 54 97 q 60 267 54 239 q 142 433 76 367 q 307 524 208 500 m 529 936 q 352 887 424 936 q 264 744 281 838 q 261 710 261 732 q 315 598 261 639 q 463 557 369 557 q 656 619 581 557 q 732 785 732 682 q 678 897 732 858 q 529 936 624 936 m 449 482 q 253 429 335 482 q 153 271 172 376 q 149 226 149 249 q 208 99 149 144 q 374 53 268 53 q 572 111 492 53 q 669 271 651 169 q 674 314 674 294 q 612 440 674 397 q 449 482 550 482 z "},"9":{"ha":868,"x_min":99,"x_max":817,"o":"m 197 265 q 242 126 196 175 q 382 78 288 78 q 594 180 513 78 q 711 518 675 282 q 589 398 671 442 q 411 354 507 354 q 213 420 285 354 q 140 608 140 486 q 147 685 140 639 q 213 853 164 778 q 344 971 263 928 q 532 1014 425 1014 q 751 936 685 1014 q 817 711 817 858 q 797 517 817 626 q 651 126 751 256 q 363 -4 551 -4 q 162 70 225 -4 q 107 265 99 144 l 197 265 m 440 438 q 566 465 506 438 q 669 544 626 492 q 724 671 711 597 q 729 733 729 699 q 677 878 729 824 q 519 932 625 932 q 337 865 413 932 q 242 688 261 799 q 236 626 236 658 q 288 488 236 538 q 440 438 340 438 z "},"\u0000":{"ha":0,"x_min":0,"x_max":0,"o":""},"\r":{"ha":410,"x_min":0,"x_max":0,"o":""}," ":{"ha":410,"x_min":0,"x_max":0,"o":""},"अ":{"ha":1143,"x_min":72,"x_max":1274,"o":"m 1274 1028 l 1263 953 l 1067 953 l 897 0 l 810 0 l 894 478 l 643 479 q 663 386 663 436 q 658 338 663 363 q 548 145 638 218 q 332 72 458 72 q 143 134 214 72 q 72 297 72 196 q 78 351 72 313 l 161 351 q 158 313 158 338 q 208 194 158 239 q 339 149 257 149 q 497 203 432 149 q 578 346 563 257 q 582 385 582 365 q 551 479 582 439 l 549 479 l 549 482 q 400 539 501 539 l 347 539 l 360 613 l 413 613 q 567 663 507 613 q 639 782 626 714 q 643 819 643 801 q 597 925 643 886 q 479 964 551 964 q 328 916 394 964 q 249 788 261 868 l 167 788 q 277 972 186 903 q 493 1040 368 1040 q 663 986 599 1040 q 726 840 726 932 q 722 796 726 819 q 652 656 707 714 q 508 579 597 599 l 507 576 q 575 553 544 571 l 908 553 l 992 1028 l 1274 1028 z "},"आ":{"ha":1542,"x_min":72,"x_max":1672,"o":"m 1658 953 l 1464 953 l 1296 0 l 1208 0 l 1375 953 l 1067 953 l 897 0 l 810 0 l 894 478 l 643 479 q 663 386 663 436 q 658 338 663 363 q 548 145 638 218 q 332 72 458 72 q 143 134 214 72 q 72 297 72 196 q 78 351 72 313 l 161 351 q 158 313 158 338 q 208 194 158 239 q 339 149 257 149 q 497 203 432 149 q 578 346 563 257 q 582 385 582 365 q 551 479 582 439 l 549 479 l 549 482 q 400 539 501 539 l 347 539 l 360 613 l 413 613 q 567 663 507 613 q 639 782 626 714 q 643 819 643 801 q 597 925 643 886 q 479 964 551 964 q 328 916 394 964 q 249 788 261 868 l 167 788 q 277 972 186 903 q 493 1040 368 1040 q 663 986 599 1040 q 726 840 726 932 q 722 796 726 819 q 652 656 707 714 q 508 579 597 599 l 507 576 q 575 553 544 571 l 908 553 l 992 1028 l 1672 1028 l 1658 953 z "},"इ":{"ha":810,"x_min":31,"x_max":963,"o":"m 731 953 l 699 768 l 693 742 l 693 739 l 686 703 l 443 703 q 303 674 364 703 q 231 572 243 646 q 228 547 228 553 q 269 469 228 494 q 376 444 311 444 l 439 444 q 615 399 544 444 q 686 256 686 354 q 682 206 686 233 q 590 46 664 108 q 394 -17 515 -17 q 268 8 318 -17 q 192 65 218 32 q 161 126 167 99 l 122 -104 l 38 -104 l 100 250 l 179 250 q 226 106 174 161 q 382 51 278 51 q 501 79 451 51 q 575 152 550 107 q 600 249 600 197 q 547 349 600 319 q 411 379 493 379 l 342 379 q 196 422 253 382 q 139 538 139 461 q 143 575 139 554 q 241 723 160 678 q 431 768 322 768 l 613 768 l 644 953 l 31 953 l 43 1028 l 963 1028 l 950 953 l 731 953 z "},"ई":{"ha":807,"x_min":32,"x_max":1121,"o":"m 943 1393 q 1074 1349 1028 1393 q 1121 1228 1121 1304 q 1115 1172 1121 1199 l 1036 1172 q 1040 1208 1040 1192 q 1011 1288 1040 1258 q 932 1318 982 1318 q 819 1272 863 1318 q 760 1135 775 1225 l 742 1028 l 963 1028 l 951 953 l 731 953 l 699 768 l 693 742 l 693 739 l 686 703 l 443 703 q 303 674 364 703 q 231 572 243 646 q 228 547 228 553 q 269 469 228 494 q 376 444 311 444 l 439 444 q 615 399 544 444 q 686 256 686 354 q 682 206 686 233 q 590 46 664 108 q 394 -17 515 -17 q 268 8 318 -17 q 192 65 218 32 q 161 126 167 99 l 122 -104 l 38 -104 l 100 250 l 179 250 q 226 106 174 161 q 382 51 278 51 q 499 78 450 51 q 574 151 549 106 q 600 247 600 196 q 547 349 600 318 q 411 379 494 379 l 342 379 q 196 422 253 382 q 139 538 139 461 q 143 575 139 554 q 241 723 160 678 q 431 768 322 768 l 613 768 l 644 953 l 32 953 l 44 1028 l 660 1028 l 679 1135 q 767 1324 700 1256 q 943 1393 833 1393 z "},"उ":{"ha":803,"x_min":33,"x_max":933,"o":"m 919 953 l 739 953 l 710 793 q 640 649 694 707 q 513 579 585 592 l 511 576 q 631 502 589 561 q 672 360 672 443 q 668 303 672 332 q 605 148 653 215 q 482 42 557 81 q 314 4 407 4 q 110 73 186 4 q 33 254 33 142 q 39 311 33 272 l 124 311 q 119 271 119 290 q 176 136 119 189 q 324 83 233 83 q 495 146 424 83 q 585 308 567 208 q 589 356 589 332 q 542 484 589 432 q 394 536 494 536 l 336 536 l 349 614 l 397 614 q 553 666 493 614 q 626 799 613 718 l 653 953 l 36 953 l 50 1028 l 933 1028 l 919 953 z "},"ऊ":{"ha":1204,"x_min":33,"x_max":1336,"o":"m 710 793 q 640 649 694 707 q 513 579 585 592 l 511 576 l 810 576 q 1013 524 936 576 q 1089 361 1089 472 q 1083 303 1089 344 q 973 106 1060 171 q 765 42 886 42 q 706 46 738 42 l 718 114 q 765 113 735 113 q 917 159 853 113 q 999 307 981 206 q 1003 349 1003 331 q 946 467 1003 429 q 799 504 889 504 l 625 504 q 672 356 672 444 q 667 299 672 338 q 603 147 651 214 q 481 42 556 81 q 314 4 407 4 q 110 73 186 4 q 33 254 33 142 q 39 311 33 272 l 124 311 q 119 271 119 290 q 176 136 119 189 q 324 83 233 83 q 495 146 424 83 q 585 308 567 208 q 589 356 589 332 q 542 484 589 432 q 394 536 494 536 l 336 536 l 349 614 l 397 614 q 553 666 493 614 q 626 799 613 718 l 653 953 l 36 953 l 50 1028 l 1336 1028 l 1322 953 l 738 953 l 710 793 z "},"ऋ":{"ha":1407,"x_min":36,"x_max":1538,"o":"m 860 953 l 799 604 l 1060 604 q 1201 699 1176 604 l 1219 804 l 1297 804 l 1211 313 l 1188 313 q 1078 285 1125 313 q 1007 214 1032 258 q 982 117 982 169 q 1024 26 982 56 q 1132 -3 1065 -3 q 1213 10 1175 -3 l 1200 -64 q 1108 -76 1153 -76 q 953 -31 1013 -76 q 894 100 894 14 q 899 146 894 121 q 979 294 914 235 q 1142 368 1044 354 l 1178 568 q 1035 531 1119 531 l 786 531 l 693 0 l 610 0 l 685 424 l 199 0 l 89 0 l 90 7 l 700 518 q 648 665 703 608 q 496 722 593 722 q 290 647 376 722 q 181 446 203 572 l 92 446 q 166 631 110 551 q 306 755 222 711 q 486 799 389 799 q 639 760 579 799 q 725 650 699 721 l 778 953 l 36 953 l 50 1028 l 1538 1028 l 1525 953 l 860 953 z "},"ॠ":{"ha":1408,"x_min":36,"x_max":1539,"o":"m 860 953 l 799 604 l 1058 604 q 1201 701 1176 604 l 1219 804 l 1297 804 l 1210 310 l 1154 310 q 1049 283 1093 310 q 994 197 1006 257 q 993 175 993 189 q 1028 109 993 131 q 1121 88 1063 88 l 1182 88 l 1169 19 l 1106 19 q 999 -7 1044 19 q 943 -94 954 -33 q 940 -117 940 -111 q 977 -184 940 -162 q 1074 -206 1014 -206 q 1149 -199 1110 -206 q 1211 -183 1189 -192 l 1200 -253 q 1131 -269 1172 -262 q 1050 -276 1089 -276 q 908 -242 964 -276 q 853 -136 853 -207 q 897 -12 853 -61 q 1004 50 942 38 l 1006 54 q 933 94 960 65 q 907 169 907 124 q 910 201 907 179 q 989 324 925 285 q 1133 364 1053 364 l 1142 364 l 1178 569 q 1033 531 1117 531 l 785 531 l 692 0 l 610 0 l 683 425 l 197 0 l 88 0 l 89 7 l 700 519 q 647 665 703 608 q 494 722 592 722 q 288 647 375 722 q 179 446 201 572 l 90 446 q 165 631 108 551 q 304 755 221 711 q 485 799 388 799 q 638 760 578 799 q 724 650 697 721 l 776 953 l 36 953 l 50 1028 l 1539 1028 l 1525 953 l 860 953 z "},"ऌ":{"ha":1249,"x_min":33,"x_max":1376,"o":"m 996 953 l 961 760 q 1091 684 1044 746 q 1138 525 1138 622 q 1131 449 1138 493 q 1083 310 1118 369 l 1074 310 q 915 253 972 310 q 858 114 858 197 q 900 25 858 54 q 1010 -4 942 -4 q 1092 8 1051 -4 l 1079 -65 q 988 -78 1036 -78 q 832 -33 892 -78 q 772 99 772 11 q 776 147 772 122 q 858 294 792 233 q 1018 364 925 354 q 1043 450 1035 403 q 1049 513 1049 479 q 1009 638 1049 590 q 893 685 969 685 q 725 609 792 685 q 642 407 658 533 l 638 386 l 563 386 l 565 407 q 571 492 571 447 q 424 685 571 685 q 261 619 325 685 q 178 449 197 554 q 172 385 172 419 q 223 242 172 294 q 372 190 274 190 q 415 193 382 190 l 400 115 q 353 113 364 113 q 151 182 219 113 q 82 369 82 251 q 89 449 82 403 q 204 678 114 593 q 422 764 294 764 q 573 701 525 764 q 624 550 621 638 l 628 550 q 721 690 660 631 q 875 761 782 750 l 908 953 l 33 953 l 47 1028 l 1376 1028 l 1363 953 l 996 953 z "},"ॡ":{"ha":1260,"x_min":42,"x_max":1388,"o":"m 996 953 l 963 760 q 1092 684 1046 746 q 1138 526 1138 622 q 1131 449 1138 483 q 1085 310 1118 372 l 1031 310 q 926 283 971 310 q 871 197 882 257 q 869 176 869 190 q 905 109 869 131 q 999 88 940 88 l 1058 88 l 1047 19 l 982 19 q 876 -7 921 19 q 819 -94 831 -33 q 817 -117 817 -111 q 853 -184 817 -162 q 950 -206 890 -206 q 1026 -199 986 -206 q 1089 -183 1065 -192 l 1076 -253 q 1008 -269 1050 -262 q 926 -276 967 -276 q 785 -242 840 -276 q 731 -136 731 -207 q 775 -12 731 -61 q 881 50 819 38 l 882 54 q 811 94 838 65 q 785 169 785 124 q 788 201 785 190 q 867 324 803 285 q 1011 364 931 364 l 1017 364 q 1043 450 1036 408 q 1049 513 1049 479 q 1009 638 1049 590 q 893 685 969 685 q 725 609 792 685 q 642 407 658 533 l 638 386 l 563 386 l 565 407 q 571 490 571 446 q 424 685 571 685 q 260 619 325 685 q 178 449 196 554 q 172 385 172 419 q 223 242 172 294 q 372 190 274 190 q 414 193 383 190 l 400 115 q 353 113 364 113 q 151 182 219 113 q 82 369 82 251 q 89 449 82 403 q 204 678 114 593 q 422 764 294 764 q 572 701 524 764 q 624 550 621 638 l 628 550 q 722 691 660 632 q 876 761 783 750 l 910 953 l 42 953 l 56 1028 l 1388 1028 l 1374 953 l 996 953 z "},"ए":{"ha":904,"x_min":35,"x_max":1035,"o":"m 1021 953 l 856 953 l 825 779 q 735 567 800 635 q 549 499 669 499 q 501 501 535 499 l 515 582 q 544 581 525 581 q 675 628 629 581 q 740 781 721 675 l 769 953 l 313 953 l 213 379 q 204 303 204 340 q 258 156 204 208 q 414 103 313 103 q 588 166 521 103 q 675 344 656 229 l 763 344 q 645 110 738 193 q 406 26 553 26 q 189 98 263 26 q 115 294 115 169 q 124 382 115 336 l 225 953 l 35 953 l 49 1028 l 1035 1028 l 1021 953 z "},"ऐ":{"ha":904,"x_min":35,"x_max":1035,"o":"m 1021 953 l 856 953 l 825 779 q 735 567 800 635 q 549 499 669 499 q 501 501 535 499 l 515 582 q 544 581 525 581 q 675 628 629 581 q 740 781 721 675 l 769 953 l 313 953 l 213 379 q 204 303 204 340 q 258 156 204 208 q 414 103 313 103 q 588 166 521 103 q 675 344 656 229 l 763 344 q 645 110 738 193 q 406 26 553 26 q 189 98 263 26 q 115 294 115 169 q 124 382 115 336 l 225 953 l 35 953 l 49 1028 l 779 1028 q 684 1199 724 1147 q 603 1267 644 1251 q 483 1282 561 1282 l 431 1282 l 443 1356 l 496 1356 q 647 1336 593 1356 q 750 1249 700 1317 q 864 1028 800 1181 l 1035 1028 l 1021 953 z "},"ओ":{"ha":1542,"x_min":72,"x_max":1672,"o":"m 1672 1028 l 1658 953 l 1464 953 l 1296 0 l 1208 0 l 1375 953 l 1067 953 l 897 0 l 810 0 l 894 478 l 643 479 q 663 386 663 436 q 658 338 663 363 q 548 145 638 218 q 332 72 458 72 q 143 134 214 72 q 72 297 72 196 q 78 351 72 313 l 161 351 q 158 313 158 338 q 208 194 158 239 q 339 149 257 149 q 497 203 432 149 q 578 346 563 257 q 582 385 582 365 q 551 479 582 439 l 549 479 l 549 482 q 400 539 501 539 l 347 539 l 360 613 l 413 613 q 567 663 507 613 q 639 782 626 714 q 643 819 643 801 q 597 925 643 886 q 479 964 551 964 q 328 916 394 964 q 249 788 261 868 l 167 788 q 277 972 186 903 q 493 1040 368 1040 q 663 986 599 1040 q 726 840 726 932 q 722 796 726 819 q 652 656 707 714 q 508 579 597 599 l 507 576 q 575 553 544 571 l 908 553 l 992 1028 l 1474 1028 q 1379 1199 1419 1146 q 1297 1267 1339 1251 q 1179 1282 1256 1282 l 1125 1282 l 1139 1356 l 1192 1356 q 1341 1336 1288 1356 q 1444 1249 1394 1317 q 1558 1028 1493 1181 l 1672 1028 z "},"औ":{"ha":1542,"x_min":72,"x_max":1672,"o":"m 1672 1028 l 1658 953 l 1464 953 l 1296 0 l 1208 0 l 1375 953 l 1067 953 l 897 0 l 810 0 l 894 478 l 643 479 q 663 386 663 436 q 658 338 663 363 q 548 145 638 218 q 332 72 458 72 q 143 134 214 72 q 72 297 72 196 q 78 351 72 313 l 161 351 q 158 313 158 338 q 208 194 158 239 q 339 149 257 149 q 497 203 432 149 q 578 346 563 257 q 582 385 582 365 q 551 479 582 439 l 549 479 l 549 482 q 400 539 501 539 l 347 539 l 360 613 l 413 613 q 567 663 507 613 q 639 782 626 714 q 643 819 643 801 q 597 925 643 886 q 479 964 551 964 q 328 916 394 964 q 249 788 261 868 l 167 788 q 277 972 186 903 q 493 1040 368 1040 q 663 986 599 1040 q 726 840 726 932 q 722 796 726 819 q 652 656 707 714 q 508 579 597 599 l 507 576 q 575 553 544 571 l 908 553 l 992 1028 l 1481 1028 q 1366 1125 1410 1096 q 1279 1162 1322 1154 q 1154 1169 1236 1169 l 1100 1169 l 1111 1229 l 1164 1229 q 1287 1222 1244 1229 q 1372 1190 1329 1215 q 1475 1104 1415 1164 q 1388 1288 1428 1231 q 1308 1359 1349 1344 q 1193 1374 1267 1374 l 1138 1374 l 1147 1435 l 1201 1435 q 1350 1413 1300 1435 q 1448 1306 1400 1390 q 1561 1028 1496 1222 l 1672 1028 z "},"ऍ":{"ha":906,"x_min":1,"x_max":1001,"o":"m 538 1169 q 364 1224 422 1169 q 306 1360 306 1278 q 310 1403 306 1382 l 386 1403 q 383 1375 383 1383 q 425 1278 383 1318 q 550 1239 467 1239 q 701 1288 643 1239 q 771 1403 760 1338 l 847 1403 q 799 1288 838 1342 q 693 1202 760 1235 q 538 1169 626 1169 m 988 953 l 822 953 l 792 779 q 701 567 767 635 q 515 499 636 499 q 468 501 501 499 l 482 582 q 511 581 492 581 q 642 628 596 581 q 707 781 688 675 l 736 953 l 279 953 l 179 379 q 171 303 171 340 q 225 156 171 208 q 381 103 279 103 q 555 166 488 103 q 642 344 622 229 l 729 344 q 612 110 704 193 q 372 26 519 26 q 156 98 229 26 q 82 294 82 169 q 90 382 82 336 l 192 953 l 1 953 l 15 1028 l 1001 1028 l 988 953 z "},"ॲ":{"ha":1143,"x_min":72,"x_max":1478,"o":"m 1274 1028 l 1263 953 l 1067 953 l 897 0 l 810 0 l 894 478 l 643 479 q 663 386 663 436 q 658 338 663 363 q 548 145 638 218 q 332 72 458 72 q 143 134 214 72 q 72 297 72 196 q 78 351 72 313 l 161 351 q 158 313 158 338 q 208 194 158 239 q 339 149 257 149 q 497 203 432 149 q 578 346 563 257 q 582 385 582 365 q 551 479 582 439 l 549 479 l 549 482 q 400 539 501 539 l 347 539 l 360 613 l 413 613 q 567 663 507 613 q 639 782 626 714 q 643 819 643 801 q 597 925 643 886 q 479 964 551 964 q 328 916 394 964 q 249 788 261 868 l 167 788 q 277 972 186 903 q 493 1040 368 1040 q 663 986 599 1040 q 726 840 726 932 q 722 796 726 819 q 652 656 707 714 q 508 579 597 599 l 507 576 q 575 553 544 571 l 908 553 l 992 1028 l 1274 1028 m 1478 1404 q 1384 1240 1461 1307 q 1175 1172 1307 1172 q 996 1227 1057 1172 q 935 1365 935 1282 q 939 1404 935 1383 l 1017 1404 q 1014 1376 1014 1385 q 1055 1280 1014 1319 q 1179 1240 1096 1240 q 1332 1290 1274 1240 q 1401 1404 1390 1339 l 1478 1404 z "},"ऑ":{"ha":1542,"x_min":72,"x_max":1672,"o":"m 1658 953 l 1464 953 l 1296 0 l 1208 0 l 1375 953 l 1067 953 l 897 0 l 810 0 l 894 478 l 643 479 q 663 386 663 436 q 658 338 663 363 q 548 145 638 218 q 332 72 458 72 q 143 134 214 72 q 72 297 72 196 q 78 351 72 313 l 161 351 q 158 313 158 338 q 208 194 158 239 q 339 149 257 149 q 497 203 432 149 q 578 346 563 257 q 582 385 582 365 q 551 479 582 439 l 549 479 l 549 482 q 400 539 501 539 l 347 539 l 360 613 l 413 613 q 567 663 507 613 q 639 782 626 714 q 643 819 643 801 q 597 925 643 886 q 479 964 551 964 q 328 916 394 964 q 249 788 261 868 l 167 788 q 277 972 186 903 q 493 1040 368 1040 q 663 986 599 1040 q 726 840 726 932 q 722 796 726 819 q 652 656 707 714 q 508 579 597 599 l 507 576 q 575 553 544 571 l 908 553 l 992 1028 l 1672 1028 l 1658 953 m 1665 1403 q 1572 1238 1649 1306 q 1363 1171 1494 1171 q 1183 1226 1244 1171 q 1122 1364 1122 1281 q 1126 1403 1122 1382 l 1204 1403 q 1201 1375 1201 1383 q 1242 1278 1201 1318 q 1367 1239 1283 1239 q 1519 1288 1461 1239 q 1589 1403 1578 1338 l 1665 1403 z "},"ा":{"ha":399,"x_min":36,"x_max":529,"o":"m 65 0 l 232 953 l 36 953 l 50 1028 l 529 1028 l 515 953 l 321 953 l 153 0 l 65 0 z "},"ि":{"ha":399,"x_min":36,"x_max":1293,"o":"m 828 1371 q 1059 1340 954 1371 q 1228 1245 1164 1310 q 1293 1083 1293 1181 q 1288 1029 1293 1068 l 1283 1006 l 1196 1006 l 1199 1028 q 1203 1069 1203 1051 q 1087 1244 1203 1190 q 814 1297 971 1297 q 495 1238 633 1297 q 332 1028 357 1179 l 529 1028 l 515 953 l 321 953 l 151 0 l 64 0 l 232 953 l 36 953 l 50 1028 l 244 1028 q 440 1290 275 1208 q 828 1371 606 1371 z "},"ी":{"ha":397,"x_min":-158,"x_max":529,"o":"m 529 1028 l 517 953 l 321 953 l 153 0 l 64 0 l 232 953 l 36 953 l 49 1028 l 247 1028 l 258 1088 q 265 1156 265 1126 q 235 1258 265 1219 q 139 1296 206 1296 q -57 1088 -15 1296 l -72 1006 l -158 1006 l -143 1085 q -47 1292 -119 1214 q 151 1371 25 1371 q 305 1317 257 1371 q 353 1171 353 1264 q 344 1085 353 1131 l 333 1028 l 529 1028 z "},"ु":{"ha":0,"x_min":-694,"x_max":-118,"o":"m -121 -176 q -221 -342 -139 -282 q -428 -401 -303 -401 q -619 -347 -544 -401 q -694 -187 -694 -293 q -687 -119 -694 -149 l -608 -119 q -615 -176 -615 -154 q -562 -292 -615 -253 q -419 -331 -508 -331 q -272 -290 -331 -331 q -200 -174 -212 -249 q -197 -147 -197 -154 q -226 -67 -197 -99 q -311 -36 -256 -36 l -340 -36 l -328 35 l -297 35 q -166 -15 -214 35 q -118 -139 -118 -64 q -121 -176 -118 -151 z "},"ू":{"ha":0,"x_min":-579,"x_max":-7,"o":"m -339 -390 q -381 -393 -364 -393 q -522 -348 -464 -393 q -579 -224 -579 -303 q -575 -183 -579 -204 q -481 -26 -558 -83 q -290 32 -404 32 q -83 -45 -160 32 q -7 -251 -7 -122 q -17 -344 -7 -297 q -26 -383 -22 -369 l -100 -383 l -90 -335 q -82 -257 -82 -293 q -140 -95 -82 -154 q -296 -36 -199 -36 q -445 -85 -386 -36 q -504 -214 -504 -135 q -467 -295 -504 -265 q -371 -325 -429 -325 q -326 -322 -360 -325 l -339 -390 z "},"ृ":{"ha":0,"x_min":-574,"x_max":-229,"o":"m -242 -404 q -356 -421 -294 -421 q -462 -398 -412 -421 q -543 -331 -512 -375 q -574 -224 -574 -286 q -569 -182 -574 -206 q -474 -26 -551 -85 q -276 33 -396 33 q -240 32 -249 33 l -250 -31 l -282 -31 q -429 -82 -374 -31 q -485 -212 -485 -133 q -440 -312 -485 -275 q -331 -349 -394 -349 q -229 -333 -281 -349 l -242 -404 z "},"ॄ":{"ha":0,"x_min":-600,"x_max":-240,"o":"m -253 -585 q -321 -601 -279 -594 q -401 -608 -362 -608 q -544 -571 -487 -608 q -600 -462 -600 -533 q -556 -342 -600 -390 q -447 -281 -511 -294 l -447 -278 q -518 -237 -492 -267 q -544 -161 -544 -208 q -542 -129 -544 -140 q -463 -6 -528 -46 q -318 33 -399 33 l -240 33 l -249 -21 l -299 -21 q -402 -48 -358 -21 q -457 -133 -446 -75 q -460 -157 -460 -150 q -424 -223 -460 -201 q -332 -244 -389 -244 l -271 -244 l -282 -311 l -346 -311 q -453 -337 -407 -311 q -510 -421 -499 -362 q -512 -443 -512 -437 q -474 -513 -512 -489 q -378 -537 -436 -537 q -303 -531 -342 -537 q -240 -515 -264 -524 l -253 -585 z "},"ॢ":{"ha":0,"x_min":-718,"x_max":51,"o":"m 4 -358 q -110 -397 -68 -358 q -151 -493 -151 -436 q -120 -558 -151 -536 q -42 -579 -89 -579 q 18 -571 -7 -579 l 7 -631 q -60 -639 -26 -639 q -176 -606 -131 -639 q -221 -508 -221 -572 q -170 -378 -221 -433 q -42 -314 -119 -324 q -26 -258 -35 -294 q -22 -211 -22 -233 q -49 -124 -22 -157 q -131 -92 -76 -92 q -244 -144 -200 -92 q -306 -287 -287 -197 l -308 -303 l -369 -303 l -367 -287 q -360 -224 -360 -249 q -387 -127 -360 -162 q -468 -92 -415 -92 q -583 -138 -537 -92 q -640 -260 -628 -185 q -644 -301 -644 -283 q -608 -402 -644 -365 q -503 -439 -572 -439 q -474 -436 -490 -439 l -486 -499 q -519 -500 -494 -500 q -668 -450 -618 -500 q -718 -314 -718 -400 q -712 -258 -718 -297 q -626 -91 -694 -153 q -465 -29 -558 -29 q -358 -74 -392 -29 q -321 -182 -324 -118 l -318 -182 q -240 -74 -292 -118 q -110 -29 -189 -29 q 9 -75 -33 -29 q 51 -201 51 -121 q 46 -258 51 -219 q 13 -358 35 -317 l 4 -358 z "},"ॣ":{"ha":0,"x_min":-717,"x_max":51,"o":"m -29 -358 q -107 -381 -75 -358 q -139 -453 -139 -403 q -115 -500 -139 -485 q -50 -515 -90 -515 l -7 -515 l -17 -571 l -58 -571 q -137 -589 -103 -571 q -178 -650 -171 -607 l -179 -662 q -153 -712 -179 -696 q -85 -728 -128 -728 q 14 -711 -33 -728 l 6 -767 q -103 -783 -44 -783 q -207 -758 -167 -783 q -247 -681 -247 -733 q -215 -590 -247 -626 q -136 -546 -182 -554 l -136 -543 q -188 -513 -169 -535 q -207 -458 -207 -492 q -157 -349 -207 -385 q -43 -312 -107 -312 l -40 -312 q -26 -258 -31 -289 q -22 -211 -22 -233 q -49 -124 -22 -157 q -131 -92 -76 -92 q -244 -144 -200 -92 q -306 -287 -287 -196 l -308 -303 l -369 -303 l -367 -287 q -360 -224 -360 -249 q -387 -127 -360 -162 q -468 -92 -415 -92 q -583 -138 -537 -92 q -640 -260 -628 -185 q -644 -301 -644 -283 q -608 -402 -644 -365 q -503 -439 -572 -439 q -474 -436 -487 -439 l -485 -499 q -519 -500 -494 -500 q -666 -450 -615 -500 q -717 -315 -717 -400 q -711 -258 -717 -285 q -626 -91 -693 -153 q -465 -29 -558 -29 q -358 -74 -392 -29 q -321 -182 -324 -118 l -318 -182 q -240 -74 -292 -118 q -110 -29 -189 -29 q 9 -75 -33 -29 q 51 -200 51 -121 q 46 -258 51 -231 q 13 -358 38 -311 l -29 -358 z "},"े":{"ha":0,"x_min":-501,"x_max":-65,"o":"m -150 1022 q -246 1197 -206 1143 q -328 1267 -286 1251 q -447 1282 -369 1282 l -501 1282 l -487 1356 l -435 1356 q -284 1336 -337 1356 q -181 1247 -231 1317 q -65 1022 -131 1178 l -150 1022 z "},"ै":{"ha":0,"x_min":-531,"x_max":-68,"o":"m -429 1435 q -281 1413 -331 1435 q -183 1306 -231 1390 q -68 1024 -135 1221 l -146 1024 q -262 1124 -218 1094 q -350 1161 -307 1153 q -476 1169 -393 1169 l -531 1169 l -519 1229 l -467 1229 q -344 1222 -386 1229 q -258 1190 -301 1215 q -156 1104 -215 1164 q -242 1288 -203 1231 q -323 1359 -282 1344 q -437 1374 -364 1374 l -493 1374 l -483 1435 l -429 1435 z "},"ो":{"ha":399,"x_min":-103,"x_max":529,"o":"m 529 1028 l 517 953 l 321 953 l 153 0 l 64 0 l 232 953 l 36 953 l 50 1028 l 246 1028 q 151 1199 192 1146 q 69 1267 111 1251 q -49 1282 28 1282 l -103 1282 l -90 1356 l -37 1356 q 113 1336 60 1356 q 217 1249 167 1317 q 331 1028 267 1181 l 529 1028 z "},"ौ":{"ha":399,"x_min":-167,"x_max":494,"o":"m 494 1028 l 481 953 l 285 953 l 118 0 l 29 0 l 196 953 l 0 953 l 14 1028 l 215 1028 q 100 1125 144 1096 q 13 1162 56 1154 q -112 1169 -31 1169 l -167 1169 l -156 1229 l -103 1229 q 20 1222 -22 1229 q 106 1190 63 1215 q 208 1104 149 1164 q 122 1288 161 1231 q 41 1359 82 1344 q -74 1374 0 1374 l -129 1374 l -119 1435 l -65 1435 q 83 1413 33 1435 q 181 1306 133 1390 q 294 1028 229 1222 l 494 1028 z "},"ॅ":{"ha":0,"x_min":-324,"x_max":219,"o":"m 219 1371 q 126 1206 203 1274 q -83 1139 49 1139 q -262 1194 -201 1139 q -324 1332 -324 1249 q -319 1371 -324 1350 l -242 1371 q -244 1343 -244 1351 q -203 1247 -244 1286 q -79 1207 -162 1207 q 74 1256 15 1207 q 143 1371 132 1306 l 219 1371 z "},"ॉ":{"ha":399,"x_min":36,"x_max":619,"o":"m 619 1371 q 526 1206 603 1274 q 317 1139 449 1139 q 138 1194 199 1139 q 76 1332 76 1249 q 81 1371 76 1350 l 158 1371 q 156 1343 156 1351 q 197 1247 156 1286 q 321 1207 238 1207 q 474 1256 415 1207 q 543 1371 532 1306 l 619 1371 m 65 0 l 232 953 l 36 953 l 50 1028 l 529 1028 l 515 953 l 321 953 l 153 0 l 65 0 z "},"क":{"ha":1392,"x_min":36,"x_max":1522,"o":"m 822 953 l 765 626 q 877 742 807 699 q 1040 786 947 786 q 1219 718 1150 786 q 1288 539 1288 650 q 1281 469 1288 508 q 1158 235 1254 319 q 933 151 1063 151 q 851 161 890 151 l 864 233 q 928 226 886 226 q 1098 292 1024 226 q 1192 471 1172 357 q 1196 522 1196 499 q 1144 659 1196 608 q 1008 710 1092 710 q 826 635 896 710 q 736 460 756 561 l 656 0 l 571 0 l 625 303 q 509 190 581 232 q 343 147 438 147 q 160 215 231 147 q 89 400 89 283 q 96 472 89 431 q 164 638 113 567 q 290 748 215 710 q 450 786 364 786 q 605 743 547 786 q 682 629 663 700 l 739 953 l 36 953 l 50 1028 l 1522 1028 l 1510 953 l 822 953 m 654 469 l 653 469 q 657 517 657 493 q 609 654 657 599 q 461 710 561 710 q 339 681 397 710 q 240 597 281 651 q 186 469 199 542 q 181 414 181 443 q 235 274 181 325 q 376 224 289 224 q 511 259 453 224 q 604 348 569 294 q 651 457 639 401 l 654 469 z "},"ख":{"ha":1286,"x_min":36,"x_max":1417,"o":"m 1417 1028 l 1403 953 l 1208 953 l 1042 0 l 953 0 l 1010 328 q 910 234 972 269 q 767 199 847 199 q 711 204 735 199 q 567 55 656 113 q 367 -3 478 -3 q 158 64 233 -3 q 83 250 83 131 q 90 326 83 282 l 129 551 l 182 551 q 421 768 383 551 l 453 953 l 36 953 l 50 1028 l 1417 1028 m 1119 953 l 542 953 l 508 758 q 403 548 482 611 q 211 485 324 485 l 206 485 l 176 317 q 171 264 171 281 q 226 126 171 176 q 382 75 282 75 q 534 119 467 75 q 643 231 601 163 q 567 312 594 260 q 539 432 539 364 q 544 493 539 465 q 603 637 558 575 q 715 732 649 699 q 857 765 781 765 q 993 730 942 765 q 1064 636 1044 694 l 1119 953 m 794 269 q 953 328 890 269 q 1035 467 1015 388 l 1040 499 q 1042 525 1042 507 q 997 647 1042 597 q 864 696 953 696 q 706 639 775 696 q 621 486 638 582 q 617 440 617 461 q 667 315 617 360 q 794 269 717 269 z "},"ग":{"ha":1010,"x_min":36,"x_max":1140,"o":"m 1140 1028 l 1126 953 l 932 953 l 764 0 l 676 0 l 843 953 l 576 953 l 508 561 q 428 394 490 458 q 260 331 367 331 q 122 379 169 331 q 74 507 74 428 q 78 556 74 531 l 86 597 l 174 597 l 165 554 q 161 515 161 536 q 186 438 161 468 q 265 408 211 408 q 371 451 335 408 q 418 558 407 493 l 489 953 l 36 953 l 50 1028 l 1140 1028 z "},"घ":{"ha":992,"x_min":36,"x_max":1122,"o":"m 1108 953 l 914 953 l 747 0 l 657 0 l 715 326 q 568 198 658 244 q 371 151 478 151 q 173 206 249 151 q 97 358 97 260 q 101 406 97 381 q 183 551 117 494 q 335 619 250 608 l 335 622 q 234 670 271 632 q 197 781 197 708 q 203 836 197 808 l 224 953 l 36 953 l 50 1028 l 1122 1028 l 1108 953 m 825 953 l 313 953 l 292 839 q 288 793 288 814 q 331 692 288 726 q 467 658 374 658 l 535 658 l 522 585 l 447 585 q 254 525 319 585 q 189 375 189 465 q 247 263 189 301 q 401 225 306 225 q 552 258 481 225 q 674 352 624 292 q 743 489 725 413 l 825 953 z "},"ङ":{"ha":903,"x_min":39,"x_max":1033,"o":"m 1033 1028 l 1019 953 l 725 953 l 693 768 l 688 742 l 688 739 l 681 703 l 439 703 q 300 674 360 703 q 228 574 240 646 q 225 547 225 554 q 266 469 225 494 q 371 444 307 444 l 433 444 q 610 399 540 444 q 681 257 681 353 q 676 210 681 235 q 574 44 658 107 q 351 -18 490 -18 q 134 44 213 -18 q 56 207 56 107 q 60 250 56 229 l 149 250 q 146 214 146 238 q 200 96 146 140 q 358 51 254 51 q 517 97 456 51 q 592 213 579 142 q 594 249 594 225 q 542 349 594 319 q 407 379 489 379 l 350 379 q 199 418 261 379 q 136 538 136 457 q 140 576 136 556 q 237 723 157 678 q 422 768 317 768 l 607 768 l 639 953 l 39 953 l 51 1028 l 1033 1028 m 828 615 q 865 601 850 615 q 879 567 879 588 q 857 516 879 538 q 806 494 835 494 q 765 512 779 494 q 756 556 751 529 q 781 598 761 581 q 828 615 801 615 z "},"च":{"ha":1014,"x_min":36,"x_max":1144,"o":"m 1131 953 l 936 953 l 768 0 l 679 0 l 732 303 q 602 188 682 231 q 431 144 522 144 q 250 206 321 144 q 179 372 179 267 q 183 426 179 397 q 247 571 199 508 q 371 667 296 633 l 96 667 l 108 738 l 610 738 l 597 667 l 551 667 q 365 602 442 667 q 269 439 288 538 q 265 396 265 417 q 322 266 265 313 q 467 219 379 219 q 601 254 539 219 q 707 347 664 289 q 763 475 750 406 l 847 953 l 36 953 l 50 1028 l 1144 1028 l 1131 953 z "},"छ":{"ha":1129,"x_min":33,"x_max":1260,"o":"m 932 953 l 900 767 q 1019 700 974 754 q 1064 554 1064 646 q 1057 481 1064 525 q 951 246 1033 346 q 742 93 868 146 q 464 40 615 40 q 259 70 349 40 q 119 158 169 100 q 68 297 68 217 q 74 349 68 313 q 158 503 90 444 q 318 576 226 563 l 318 581 q 219 628 256 590 q 182 739 182 667 q 188 794 182 767 l 217 953 l 33 953 l 46 1028 l 1260 1028 l 1246 953 l 932 953 m 849 953 l 304 953 l 276 797 q 272 749 272 771 q 314 650 272 683 q 446 617 356 617 l 478 617 l 465 543 l 435 543 q 285 511 347 543 q 191 427 222 479 q 160 313 160 375 q 247 167 160 218 q 478 117 333 117 q 710 161 604 117 q 888 288 817 206 q 978 483 958 371 q 983 540 983 511 q 943 660 983 618 q 844 701 903 701 q 724 658 781 701 q 653 526 668 615 q 649 469 649 500 q 654 393 649 428 l 578 393 q 572 461 572 438 q 579 535 572 496 q 663 698 597 640 q 817 767 729 756 l 849 953 z "},"ज":{"ha":1160,"x_min":36,"x_max":1290,"o":"m 1276 953 l 1082 953 l 915 0 l 826 0 l 936 621 l 644 621 l 617 465 q 515 268 596 343 q 315 193 435 193 q 158 251 217 193 q 100 406 100 310 q 106 467 100 439 l 146 697 l 235 697 l 193 465 q 189 418 189 440 q 225 312 189 351 q 325 272 261 272 q 460 326 404 272 q 531 465 515 379 l 571 697 l 950 697 l 994 953 l 36 953 l 50 1028 l 1290 1028 l 1276 953 z "},"झ":{"ha":1182,"x_min":46,"x_max":1313,"o":"m 1299 953 l 1103 953 l 936 0 l 849 0 l 915 376 l 621 378 q 682 247 682 332 q 678 203 682 226 q 590 52 661 111 q 400 -7 518 -7 q 241 36 296 -7 q 171 124 186 79 l 131 -104 l 46 -104 l 107 239 l 186 239 q 235 112 183 163 q 390 61 286 61 q 546 115 492 61 q 600 246 600 169 q 552 344 600 310 q 413 379 504 379 l 342 379 q 197 422 254 382 q 139 538 139 461 q 143 578 139 557 q 241 724 160 679 q 431 768 322 768 l 613 768 l 644 953 l 46 953 l 60 1028 l 1313 1028 l 1299 953 m 1017 953 l 731 953 l 699 768 l 693 742 l 693 739 l 686 703 l 443 703 q 304 674 365 703 q 231 572 243 646 q 228 547 228 553 q 269 469 228 494 q 376 444 311 444 l 439 444 l 926 444 l 1017 953 z "},"ञ":{"ha":1115,"x_min":36,"x_max":1246,"o":"m 1232 953 l 1039 953 l 869 0 l 782 0 l 857 429 l 700 429 q 572 220 667 303 q 340 138 478 138 q 194 170 253 138 q 106 256 135 203 q 78 371 78 308 l 161 371 q 215 260 168 306 q 353 214 263 214 q 535 285 464 214 q 626 464 607 357 q 632 519 632 503 q 583 658 632 604 q 440 711 535 711 q 285 664 349 711 q 194 553 221 617 l 110 553 q 233 720 143 653 q 454 788 322 788 q 647 717 581 788 q 714 536 714 647 q 713 506 714 515 l 871 506 l 950 953 l 36 953 l 50 1028 l 1246 1028 l 1232 953 z "},"ट":{"ha":899,"x_min":32,"x_max":1031,"o":"m 536 701 q 295 628 397 701 q 168 417 193 556 q 163 364 163 381 q 229 206 163 267 q 406 146 296 146 q 619 224 531 146 q 729 428 708 303 l 814 428 q 739 240 796 321 q 594 113 682 158 q 396 68 506 68 q 228 104 301 68 q 114 206 154 140 q 74 356 74 271 q 79 419 74 390 q 236 687 110 596 q 544 778 363 778 l 589 778 l 619 953 l 32 953 l 44 1028 l 1031 1028 l 1017 953 l 707 953 l 663 701 l 536 701 z "},"ठ":{"ha":935,"x_min":31,"x_max":1065,"o":"m 583 953 l 550 765 q 744 675 669 753 q 819 481 819 597 q 813 413 819 451 q 734 234 794 311 q 583 115 674 157 q 389 72 493 72 q 228 108 299 72 q 117 210 157 144 q 76 361 76 275 q 82 426 76 397 q 153 597 99 524 q 289 715 208 671 q 463 767 369 758 l 497 953 l 31 953 l 44 1028 l 1065 1028 l 1051 953 l 583 953 m 725 415 q 729 469 729 443 q 665 630 729 568 q 494 692 601 692 q 347 658 417 692 q 231 563 278 624 q 169 424 183 501 q 165 371 165 397 q 229 210 165 272 q 399 147 293 147 q 547 181 476 147 q 664 276 617 215 q 725 415 711 338 z "},"ड":{"ha":803,"x_min":39,"x_max":933,"o":"m 439 703 q 300 674 360 703 q 228 574 240 646 q 225 547 225 554 q 266 469 225 494 q 371 444 307 444 l 433 444 q 610 399 540 444 q 681 257 681 353 q 676 210 681 235 q 574 44 658 107 q 351 -18 490 -18 q 134 44 213 -18 q 56 207 56 107 q 60 250 56 229 l 149 250 q 146 214 146 238 q 200 96 146 140 q 358 51 254 51 q 517 97 456 51 q 592 213 579 142 q 594 249 594 225 q 542 349 594 319 q 407 379 489 379 l 350 379 q 199 418 261 379 q 136 538 136 457 q 140 576 136 556 q 237 723 157 678 q 422 768 317 768 l 599 768 l 631 953 l 39 953 l 51 1028 l 933 1028 l 919 953 l 717 953 l 672 703 l 439 703 z "},"ढ":{"ha":883,"x_min":35,"x_max":1014,"o":"m 571 717 q 388 681 472 717 q 244 572 303 644 q 168 396 186 500 q 163 333 163 367 q 237 153 163 221 q 439 85 311 85 q 624 141 546 85 q 719 286 703 197 q 722 319 722 308 q 687 410 722 375 q 593 444 651 444 q 484 408 531 444 q 428 310 438 371 q 425 281 425 290 l 358 281 q 363 319 358 303 q 445 460 378 408 q 607 511 513 511 q 748 460 694 511 q 801 326 801 408 q 797 283 801 307 q 733 145 783 206 q 603 51 682 85 q 428 17 525 17 q 245 56 325 17 q 120 166 165 94 q 75 331 75 238 q 82 401 75 360 q 173 612 104 526 q 342 739 242 697 q 560 781 443 781 l 622 781 l 653 953 l 35 953 l 49 1028 l 1014 1028 l 1000 953 l 736 953 l 696 717 l 571 717 z "},"ण":{"ha":1174,"x_min":36,"x_max":1304,"o":"m 1292 953 l 1096 953 l 928 0 l 840 0 l 1007 953 l 714 953 l 640 539 q 544 344 619 418 q 350 269 468 269 q 188 327 247 269 q 128 481 128 385 q 133 539 128 511 l 207 953 l 36 953 l 50 1028 l 1304 1028 l 1292 953 m 626 953 l 294 953 l 221 531 q 217 485 217 508 q 253 383 217 421 q 354 344 289 344 q 484 396 431 344 q 553 531 538 447 l 626 953 z "},"त":{"ha":958,"x_min":36,"x_max":1089,"o":"m 1075 953 l 881 953 l 713 0 l 625 0 l 733 617 l 522 617 q 282 549 376 617 q 163 346 188 481 q 157 281 157 314 q 219 128 157 182 q 399 75 281 75 l 429 75 l 417 3 l 381 3 q 152 74 238 3 q 67 276 67 144 q 74 350 67 306 q 226 608 104 524 q 531 693 347 693 l 747 693 l 792 953 l 36 953 l 50 1028 l 1089 1028 l 1075 953 z "},"थ":{"ha":1053,"x_min":110,"x_max":1183,"o":"m 1183 1028 l 1171 953 l 975 953 l 807 0 l 718 0 l 778 332 q 704 242 753 285 q 586 171 656 199 q 435 143 517 143 q 197 222 285 143 q 110 436 110 301 q 118 518 110 475 q 133 583 122 547 l 274 583 q 492 629 400 583 q 604 792 583 675 q 607 828 607 804 q 571 926 607 889 q 467 964 535 964 q 313 895 369 964 q 258 722 257 826 l 178 722 q 216 885 179 813 q 321 999 253 957 q 479 1040 389 1040 q 635 985 578 1040 q 693 842 693 931 q 688 790 693 826 q 556 584 664 651 q 292 517 449 517 q 204 518 226 517 q 196 446 196 481 q 265 280 196 340 q 458 219 333 219 q 615 256 540 219 q 741 358 689 292 q 808 511 793 425 l 899 1028 l 1183 1028 z "},"द":{"ha":847,"x_min":38,"x_max":976,"o":"m 517 713 q 299 649 392 713 q 186 465 207 586 q 182 414 182 439 q 236 274 182 326 q 383 222 290 222 q 490 244 436 222 q 584 313 543 267 q 636 428 625 360 l 717 428 l 640 -15 l 553 -15 l 604 271 q 497 183 565 215 q 350 150 429 150 q 162 218 233 150 q 90 403 90 286 q 97 471 90 432 q 242 709 125 629 q 522 789 360 789 l 635 789 l 665 953 l 38 953 l 51 1028 l 976 1028 l 963 953 l 754 953 l 711 713 l 517 713 z "},"ध":{"ha":983,"x_min":100,"x_max":1114,"o":"m 1101 953 l 908 953 l 739 0 l 651 0 l 708 326 q 562 192 654 242 q 360 143 469 143 q 173 196 246 143 q 100 343 100 249 q 104 386 100 364 q 181 524 121 474 q 313 585 240 575 l 313 588 q 209 649 250 603 q 168 769 168 694 q 172 818 168 793 q 262 978 189 917 q 439 1040 335 1040 q 582 994 531 1040 q 633 867 633 947 q 619 781 633 832 l 550 781 q 560 844 560 814 q 526 933 560 901 q 431 965 493 965 q 311 919 363 965 q 249 807 260 874 q 244 767 244 786 q 292 663 244 700 q 428 625 339 625 l 515 625 l 503 551 l 429 551 q 255 499 317 551 q 193 363 193 446 q 249 256 193 293 q 392 218 304 218 q 547 253 474 218 q 671 353 619 289 q 739 499 722 417 l 822 969 l 832 1028 l 1114 1028 l 1101 953 z "},"न":{"ha":1085,"x_min":36,"x_max":1215,"o":"m 1203 953 l 1007 953 l 839 0 l 750 0 l 861 628 l 560 628 q 621 479 621 571 q 617 432 621 457 q 560 300 604 357 q 451 212 515 243 q 313 181 386 181 q 140 240 206 181 q 75 396 75 300 q 79 444 75 419 q 190 634 101 565 q 408 703 279 703 l 875 703 l 919 953 l 36 953 l 50 1028 l 1215 1028 l 1203 953 m 549 481 q 504 587 549 546 q 388 628 460 628 q 238 576 301 628 q 161 440 175 524 q 158 404 158 428 q 203 297 158 338 q 322 257 247 257 q 435 288 383 257 q 518 369 488 318 q 549 481 549 421 z "},"प":{"ha":901,"x_min":36,"x_max":1032,"o":"m 1018 953 l 824 953 l 656 0 l 568 0 l 640 414 q 533 321 597 354 q 386 288 468 288 q 200 356 265 288 q 135 542 135 424 q 143 628 135 582 l 203 953 l 36 953 l 50 1028 l 1032 1028 l 1018 953 m 735 953 l 290 953 l 232 628 q 225 556 225 583 q 273 414 225 464 q 414 364 321 364 q 584 428 515 364 q 671 588 653 492 l 735 953 z "},"फ":{"ha":1368,"x_min":36,"x_max":1500,"o":"m 797 953 l 740 626 q 856 742 783 699 q 1024 786 928 786 q 1199 720 1133 786 q 1265 542 1265 654 q 1260 474 1265 506 q 1191 301 1242 374 q 1067 190 1140 228 q 911 151 994 151 q 826 163 863 151 l 839 233 q 906 225 868 225 q 1076 291 1003 225 q 1169 471 1149 357 q 1174 521 1174 499 q 1122 659 1174 608 q 986 710 1069 710 q 849 672 908 710 q 756 576 790 635 q 710 453 721 518 l 710 454 l 629 0 l 542 0 l 614 415 q 510 321 572 354 q 369 288 447 288 q 194 351 254 288 q 135 531 135 415 q 143 624 135 574 l 203 953 l 36 953 l 50 1028 l 1500 1028 l 1486 953 l 797 953 m 708 953 l 290 953 l 232 624 q 224 542 224 581 q 267 410 224 457 q 400 364 311 364 q 558 424 493 364 q 643 576 622 483 l 708 953 z "},"ब":{"ha":957,"x_min":36,"x_max":1088,"o":"m 1088 1028 l 1075 953 l 879 953 l 713 0 l 626 0 l 681 303 q 556 185 635 231 q 376 139 478 139 q 229 172 294 139 q 127 265 164 204 q 90 406 90 325 q 96 471 90 442 q 169 645 114 571 q 307 760 225 719 q 483 800 389 800 q 651 753 586 800 q 738 633 715 707 l 793 953 l 36 953 l 50 1028 l 1088 1028 m 713 471 q 717 522 717 496 q 660 675 717 613 q 492 738 603 738 q 386 719 438 738 q 293 668 335 701 l 631 307 q 684 385 663 343 q 713 471 706 428 m 175 468 q 169 414 169 442 q 235 261 169 317 q 401 206 300 206 q 597 275 514 206 l 258 638 q 175 468 193 568 z "},"भ":{"ha":1082,"x_min":86,"x_max":1213,"o":"m 1213 1028 l 1200 953 l 1004 953 l 836 0 l 747 0 l 844 553 l 603 553 l 582 435 q 484 226 558 299 q 297 154 410 154 q 143 206 200 154 q 86 344 86 258 q 90 390 86 368 q 193 563 111 500 q 390 626 275 626 l 532 626 l 556 765 q 563 833 563 807 q 449 963 563 963 q 340 920 386 963 q 281 803 294 878 q 276 747 276 778 l 189 747 q 192 806 188 775 q 282 976 211 913 q 457 1040 353 1040 q 599 988 553 1040 q 646 840 646 935 q 638 753 646 799 l 615 626 l 857 626 l 928 1028 l 1213 1028 m 518 553 l 379 553 q 244 509 300 553 q 174 390 188 465 q 171 356 171 378 q 208 265 171 299 q 306 231 244 231 q 430 283 379 231 q 497 431 481 336 l 518 553 z "},"म":{"ha":1071,"x_min":36,"x_max":1201,"o":"m 1188 953 l 993 953 l 825 0 l 736 0 l 833 553 l 560 553 l 539 435 q 441 226 515 299 q 254 154 367 154 q 101 205 158 154 q 44 342 44 256 q 49 390 44 365 q 149 563 67 500 q 346 626 232 626 l 489 626 l 546 953 l 36 953 l 50 1028 l 1201 1028 l 1188 953 m 904 953 l 631 953 l 572 626 l 846 626 l 904 953 m 475 553 l 335 553 q 188 499 247 553 q 129 356 129 444 q 166 265 129 299 q 264 231 203 231 q 386 283 336 231 q 454 431 436 336 l 475 553 z "},"य":{"ha":1017,"x_min":36,"x_max":1147,"o":"m 1133 953 l 939 953 l 772 0 l 683 0 l 740 325 q 607 210 690 254 q 417 165 524 165 q 185 247 269 165 q 100 468 100 328 q 108 557 100 510 q 122 618 113 582 l 144 618 q 345 670 268 618 q 444 849 422 722 l 463 953 l 36 953 l 50 1028 l 1147 1028 l 1133 953 m 850 953 l 551 953 l 531 835 q 422 633 507 697 q 197 565 336 568 q 194 550 194 554 q 188 475 188 517 q 255 303 188 365 q 442 242 322 242 q 589 274 519 242 q 706 366 658 307 q 771 501 754 425 l 850 953 z "},"र":{"ha":746,"x_min":38,"x_max":876,"o":"m 864 953 l 685 953 l 660 804 q 539 566 632 647 q 293 485 446 485 l 207 485 l 171 282 q 164 222 164 247 q 203 107 164 150 q 318 64 243 64 q 453 118 399 64 q 522 265 507 172 l 526 289 l 613 289 l 610 267 q 510 63 588 138 q 313 -12 432 -12 q 139 49 201 -12 q 76 214 76 111 q 83 286 76 256 l 131 558 l 279 558 q 474 620 400 558 q 571 804 549 682 l 597 953 l 38 953 l 51 1028 l 876 1028 l 864 953 z "},"ल":{"ha":1243,"x_min":28,"x_max":1374,"o":"m 997 953 l 964 756 q 1089 676 1044 739 q 1133 519 1133 614 q 1126 443 1133 488 q 1002 202 1100 294 q 751 110 904 110 q 697 113 733 110 l 713 192 q 753 189 738 189 q 942 260 867 189 q 1038 446 1017 331 q 1043 507 1043 474 q 1003 634 1043 586 q 886 682 964 682 q 722 607 788 682 q 635 404 657 532 l 632 386 l 557 386 l 558 404 q 568 497 568 463 q 529 633 568 585 q 413 682 490 682 q 252 617 315 682 q 171 446 189 551 q 165 383 165 417 q 216 241 165 293 q 367 189 267 189 q 407 192 379 189 l 393 113 q 351 110 360 110 q 146 182 217 110 q 75 374 75 254 q 82 450 75 406 q 196 678 107 594 q 413 761 285 761 q 567 699 517 761 q 621 549 617 636 l 624 549 q 719 690 657 631 q 876 760 782 750 l 911 953 l 28 953 l 42 1028 l 1374 1028 l 1360 953 l 997 953 z "},"व":{"ha":939,"x_min":36,"x_max":1069,"o":"m 1069 1028 l 1056 953 l 861 953 l 694 0 l 607 0 l 660 303 q 538 188 614 231 q 364 144 461 144 q 165 214 240 144 q 90 404 90 283 q 97 478 90 436 q 167 644 114 572 q 297 753 219 715 q 465 792 375 792 q 631 749 567 792 q 719 635 694 706 l 775 953 l 36 953 l 50 1028 l 1069 1028 m 392 217 q 540 254 476 217 q 640 349 603 292 q 689 465 678 406 q 693 517 693 490 q 640 661 693 603 q 479 719 588 719 q 347 689 410 719 q 240 602 283 658 q 182 471 196 546 q 178 418 178 444 q 236 270 178 324 q 392 217 294 217 z "},"श":{"ha":1115,"x_min":88,"x_max":1246,"o":"m 508 1040 q 683 979 617 1040 q 750 813 750 918 q 744 749 750 778 q 612 531 718 606 q 356 456 506 456 l 213 456 l 183 289 q 178 228 178 261 q 218 109 178 153 q 339 65 258 65 q 485 126 425 65 q 561 289 544 186 l 647 289 q 547 71 628 153 q 333 -11 467 -11 q 151 51 214 -11 q 88 219 88 113 q 94 294 88 250 l 136 532 l 342 532 q 549 590 461 532 q 657 757 638 649 q 661 801 661 781 q 617 919 661 876 q 500 963 572 963 q 377 927 431 963 q 295 831 324 892 q 267 694 267 771 l 179 694 q 224 874 182 796 q 340 997 267 953 q 508 1040 414 1040 m 1246 1028 l 1232 953 l 1038 953 l 869 0 l 781 0 l 961 1028 l 1246 1028 z "},"ष":{"ha":908,"x_min":36,"x_max":1039,"o":"m 1025 953 l 831 953 l 663 0 l 575 0 l 647 413 q 538 316 604 350 q 389 282 472 282 q 203 352 271 282 q 135 544 135 422 q 143 628 135 585 l 203 953 l 36 953 l 50 1028 l 1039 1028 l 1025 953 m 743 953 l 288 953 l 675 571 l 679 593 l 743 953 m 417 358 q 557 399 496 358 q 651 508 618 440 l 274 879 l 229 625 q 222 557 222 586 q 274 411 222 464 q 417 358 325 358 z "},"स":{"ha":1135,"x_min":36,"x_max":1265,"o":"m 1251 953 l 1056 953 l 889 0 l 800 0 l 889 504 l 208 504 l 169 282 q 164 225 164 254 q 203 107 164 150 q 321 64 243 64 q 460 124 406 64 q 528 281 514 185 l 614 281 q 518 69 597 150 q 313 -12 439 -12 q 138 51 199 -12 q 76 221 76 114 q 82 290 76 258 l 132 571 l 268 571 q 463 637 388 571 q 560 817 539 703 l 585 953 l 36 953 l 50 1028 l 1265 1028 l 1251 953 m 968 953 l 672 953 l 647 817 q 592 672 632 732 q 499 576 553 613 l 901 576 l 968 953 z "},"ह":{"ha":826,"x_min":50,"x_max":958,"o":"m 958 1028 l 944 953 l 743 953 l 713 772 l 700 707 l 442 707 q 319 677 371 707 q 256 583 267 647 q 253 560 253 567 q 278 493 253 521 q 347 453 304 465 q 429 461 388 461 q 577 428 518 461 q 665 345 636 396 q 693 240 693 294 l 608 240 q 556 344 603 299 q 417 389 508 389 q 288 358 346 389 q 194 274 231 326 q 147 161 158 222 q 143 111 143 136 q 192 -18 143 31 q 336 -67 242 -67 q 489 -22 425 -67 q 579 81 553 22 l 665 81 q 600 -28 646 22 q 485 -110 554 -79 q 331 -142 415 -142 q 128 -72 200 -142 q 56 107 56 -1 q 61 165 56 139 q 130 322 76 253 q 264 426 183 390 q 194 481 221 446 q 168 567 168 517 q 171 599 168 576 q 256 729 188 686 q 428 772 325 772 l 626 772 l 658 953 l 50 953 l 63 1028 l 958 1028 z "},"ळ":{"ha":1386,"x_min":25,"x_max":1517,"o":"m 1107 953 l 1074 769 q 1223 688 1168 753 q 1278 524 1278 622 q 1272 457 1278 489 q 1205 297 1257 367 q 1076 187 1153 226 q 911 147 999 147 q 735 206 803 147 q 660 351 668 264 l 656 351 q 531 205 617 263 q 338 147 446 147 q 148 215 221 147 q 75 396 75 283 q 81 457 75 429 q 149 623 97 551 q 278 734 201 694 q 442 774 356 774 q 615 718 551 774 q 696 574 679 663 l 699 574 q 817 711 743 657 q 989 772 890 765 l 1021 953 l 25 953 l 39 1028 l 1517 1028 l 1503 953 l 1107 953 m 632 457 q 636 508 636 485 q 585 644 636 593 q 443 696 533 696 q 263 630 340 696 q 168 457 186 564 q 164 408 164 432 q 217 275 164 325 q 360 225 271 225 q 538 290 463 225 q 632 457 613 354 m 1186 457 q 1190 507 1190 485 q 1137 644 1190 593 q 996 696 1083 696 q 816 629 892 696 q 721 457 740 563 q 717 408 717 432 q 768 275 717 325 q 910 225 819 225 q 1090 290 1011 225 q 1186 457 1168 354 z "},"क़":{"ha":1392,"x_min":36,"x_max":1522,"o":"m 822 953 l 765 626 q 877 742 807 699 q 1040 786 947 786 q 1219 718 1150 786 q 1288 539 1288 650 q 1281 469 1288 508 q 1158 235 1254 319 q 933 151 1063 151 q 851 161 890 151 l 864 233 q 928 226 886 226 q 1098 292 1024 226 q 1192 471 1172 357 q 1196 522 1196 499 q 1144 659 1196 608 q 1008 710 1092 710 q 826 635 896 710 q 736 460 756 561 l 656 0 l 571 0 l 625 303 q 509 190 581 232 q 343 147 438 147 q 160 215 231 147 q 89 400 89 283 q 96 472 89 431 q 164 638 113 567 q 290 748 215 710 q 450 786 364 786 q 605 743 547 786 q 682 629 663 700 l 739 953 l 36 953 l 50 1028 l 1522 1028 l 1510 953 l 822 953 m 654 469 l 653 469 q 657 517 657 493 q 609 654 657 599 q 461 710 561 710 q 339 681 397 710 q 240 597 281 651 q 186 469 199 542 q 181 414 181 443 q 235 274 181 325 q 376 224 289 224 q 511 259 453 224 q 604 348 569 294 q 651 457 639 401 l 654 469 m 354 -37 q 327 -82 349 -64 q 278 -100 306 -100 q 238 -85 254 -100 q 222 -47 222 -71 q 246 6 222 -17 q 300 28 269 28 q 343 9 328 28 q 354 -37 358 -10 z "},"ख़":{"ha":1286,"x_min":36,"x_max":1417,"o":"m 1417 1028 l 1403 953 l 1208 953 l 1042 0 l 953 0 l 1010 328 q 910 234 972 269 q 767 199 847 199 q 711 204 735 199 q 567 55 656 113 q 367 -3 478 -3 q 158 64 233 -3 q 83 250 83 131 q 90 326 83 282 l 129 551 l 182 551 q 421 768 383 551 l 453 953 l 36 953 l 50 1028 l 1417 1028 m 1119 953 l 542 953 l 508 758 q 403 548 482 611 q 211 485 324 485 l 206 485 l 176 317 q 171 264 171 281 q 226 126 171 176 q 382 75 282 75 q 534 119 467 75 q 643 231 601 163 q 567 312 594 260 q 539 432 539 364 q 544 493 539 465 q 603 637 558 575 q 715 732 649 699 q 857 765 781 765 q 993 730 942 765 q 1064 636 1044 694 l 1119 953 m 794 269 q 953 328 890 269 q 1035 467 1015 388 l 1040 499 q 1042 525 1042 507 q 997 647 1042 597 q 864 696 953 696 q 706 639 775 696 q 621 486 638 582 q 617 440 617 461 q 667 315 617 360 q 794 269 717 269 m 378 -186 q 351 -231 372 -212 q 301 -249 329 -249 q 262 -234 278 -249 q 246 -196 246 -219 q 269 -143 246 -165 q 324 -121 293 -121 q 367 -140 351 -121 q 378 -186 382 -158 z "},"ग़":{"ha":1010,"x_min":36,"x_max":1140,"o":"m 1140 1028 l 1126 953 l 932 953 l 764 0 l 676 0 l 843 953 l 576 953 l 508 561 q 428 394 490 458 q 260 331 367 331 q 122 379 169 331 q 74 507 74 428 q 78 556 74 531 l 86 597 l 174 597 l 165 554 q 161 515 161 536 q 186 438 161 468 q 265 408 211 408 q 371 451 335 408 q 418 558 407 493 l 489 953 l 36 953 l 50 1028 l 1140 1028 m 294 139 q 267 94 289 113 q 218 76 246 76 q 178 91 194 76 q 163 129 163 106 q 186 182 163 160 q 240 204 210 204 q 283 185 268 204 q 294 139 299 167 z "},"ज़":{"ha":1160,"x_min":36,"x_max":1290,"o":"m 1276 953 l 1082 953 l 915 0 l 826 0 l 936 621 l 644 621 l 617 465 q 515 268 596 343 q 315 193 435 193 q 158 251 217 193 q 100 406 100 310 q 106 467 100 439 l 146 697 l 235 697 l 193 465 q 189 418 189 440 q 225 312 189 351 q 325 272 261 272 q 460 326 404 272 q 531 465 515 379 l 571 697 l 950 697 l 994 953 l 36 953 l 50 1028 l 1290 1028 l 1276 953 m 350 8 q 323 -36 344 -18 q 274 -54 301 -54 q 234 -40 250 -54 q 218 -1 218 -25 q 242 51 218 29 q 296 74 265 74 q 339 55 324 74 q 350 8 354 36 z "},"ड़":{"ha":803,"x_min":39,"x_max":933,"o":"m 439 703 q 300 674 360 703 q 228 574 240 646 q 225 547 225 554 q 266 469 225 494 q 371 444 307 444 l 433 444 q 610 399 540 444 q 681 257 681 353 q 676 210 681 235 q 574 44 658 107 q 351 -18 490 -18 q 134 44 213 -18 q 56 207 56 107 q 60 250 56 229 l 149 250 q 146 214 146 238 q 200 96 146 140 q 358 51 254 51 q 517 97 456 51 q 592 213 579 142 q 594 249 594 225 q 542 349 594 319 q 407 379 489 379 l 350 379 q 199 418 261 379 q 136 538 136 457 q 140 576 136 556 q 237 723 157 678 q 422 768 317 768 l 599 768 l 631 953 l 39 953 l 51 1028 l 933 1028 l 919 953 l 717 953 l 672 703 l 439 703 m 374 -203 q 347 -247 368 -229 q 297 -265 325 -265 q 258 -251 274 -265 q 242 -212 242 -236 q 265 -160 242 -182 q 319 -137 289 -137 q 363 -156 347 -137 q 374 -203 378 -175 z "},"ढ़":{"ha":883,"x_min":35,"x_max":1014,"o":"m 571 717 q 388 681 472 717 q 244 572 303 644 q 168 396 186 500 q 163 333 163 367 q 237 153 163 221 q 439 85 311 85 q 624 141 546 85 q 719 286 703 197 q 722 319 722 308 q 687 410 722 375 q 593 444 651 444 q 484 408 531 444 q 428 310 438 371 q 425 281 425 290 l 358 281 q 363 319 358 303 q 445 460 378 408 q 607 511 513 511 q 748 460 694 511 q 801 326 801 408 q 797 283 801 307 q 733 145 783 206 q 603 51 682 85 q 428 17 525 17 q 245 56 325 17 q 120 166 165 94 q 75 331 75 238 q 82 401 75 360 q 173 612 104 526 q 342 739 242 697 q 560 781 443 781 l 622 781 l 653 953 l 35 953 l 49 1028 l 1014 1028 l 1000 953 l 736 953 l 696 717 l 571 717 m 422 -167 q 395 -211 417 -193 q 346 -229 374 -229 q 306 -215 322 -229 q 290 -176 290 -200 q 314 -124 290 -146 q 368 -101 338 -101 q 411 -120 396 -101 q 422 -167 426 -139 z "},"फ़":{"ha":1368,"x_min":36,"x_max":1500,"o":"m 797 953 l 740 626 q 856 742 783 699 q 1024 786 928 786 q 1199 720 1133 786 q 1265 542 1265 654 q 1260 474 1265 506 q 1191 301 1242 374 q 1067 190 1140 228 q 911 151 994 151 q 826 163 863 151 l 839 233 q 906 225 868 225 q 1076 291 1003 225 q 1169 471 1149 357 q 1174 521 1174 499 q 1122 659 1174 608 q 986 710 1069 710 q 849 672 908 710 q 756 576 790 635 q 710 453 721 518 l 710 454 l 629 0 l 542 0 l 614 415 q 510 321 572 354 q 369 288 447 288 q 194 351 254 288 q 135 531 135 415 q 143 624 135 574 l 203 953 l 36 953 l 50 1028 l 1500 1028 l 1486 953 l 797 953 m 708 953 l 290 953 l 232 624 q 224 542 224 581 q 267 410 224 457 q 400 364 311 364 q 558 424 493 364 q 643 576 622 483 l 708 953 m 367 106 q 340 61 361 79 q 290 43 318 43 q 251 58 267 43 q 235 96 235 72 q 258 149 235 126 q 313 171 282 171 q 356 152 340 171 q 367 106 371 133 z "},"ऱ":{"ha":746,"x_min":-8,"x_max":876,"o":"m 864 953 l 685 953 l 660 804 q 539 566 632 647 q 293 485 446 485 l 207 485 l 171 282 q 164 222 164 247 q 203 107 164 150 q 318 64 243 64 q 453 118 399 64 q 522 265 507 172 l 526 289 l 613 289 l 610 267 q 510 63 588 138 q 313 -12 432 -12 q 139 49 201 -12 q 76 214 76 111 q 83 286 76 256 l 131 558 l 279 558 q 474 620 400 558 q 571 804 549 682 l 597 953 l 38 953 l 51 1028 l 876 1028 l 864 953 m 124 -139 q 97 -183 118 -165 q 47 -201 75 -201 q 8 -187 24 -201 q -8 -149 -8 -172 q 15 -96 -8 -118 q 69 -74 39 -74 q 113 -92 97 -74 q 124 -139 128 -111 z "},"ं":{"ha":0,"x_min":-139,"x_max":-7,"o":"m -7 1244 q -30 1190 -7 1213 q -83 1168 -53 1168 q -123 1183 -107 1168 q -139 1222 -139 1199 q -116 1275 -139 1253 q -62 1297 -93 1297 q -22 1283 -37 1297 q -7 1244 -7 1268 z "},"ँ":{"ha":0,"x_min":-322,"x_max":219,"o":"m 10 1422 q -8 1381 10 1399 q -51 1363 -26 1363 q -85 1377 -74 1363 q -93 1413 -96 1392 q -72 1448 -89 1433 q -33 1463 -56 1463 q -2 1451 -14 1463 q 10 1422 10 1440 m 219 1371 q 123 1206 201 1274 q -83 1139 44 1139 q -260 1195 -197 1139 q -322 1335 -322 1251 q -319 1371 -322 1358 l -246 1371 q -249 1344 -249 1354 q -206 1246 -249 1286 q -79 1206 -164 1206 q 75 1256 15 1206 q 146 1371 135 1306 l 219 1371 z "},"ः":{"ha":304,"x_min":49,"x_max":260,"o":"m 256 692 q 228 647 250 665 q 179 628 207 628 q 139 642 154 628 q 124 679 124 657 q 125 692 124 688 q 151 737 129 718 q 201 756 174 756 q 244 737 229 756 q 256 692 260 718 m 179 265 q 153 219 175 238 q 104 200 132 200 q 64 215 79 200 q 49 253 49 229 q 72 306 49 283 q 126 329 94 329 q 165 315 150 329 q 181 278 181 300 q 179 265 181 269 z "},"ऽ":{"ha":793,"x_min":38,"x_max":743,"o":"m 38 90 l 51 167 l 385 167 q 483 201 447 167 q 519 283 519 235 q 488 372 519 329 q 393 478 457 414 q 276 611 317 553 q 235 739 235 669 q 238 775 235 763 q 316 895 253 857 q 468 933 379 933 l 743 933 l 729 857 l 478 857 q 326 763 343 857 q 325 742 325 756 q 356 651 325 694 q 454 540 388 608 q 569 408 531 464 q 608 286 608 353 q 552 147 608 204 q 390 90 496 90 l 38 90 z "},"्":{"ha":0,"x_min":-343,"x_max":-133,"o":"m -225 -354 l -343 -86 l -256 -86 l -133 -354 l -225 -354 z "},"़":{"ha":0,"x_min":-593,"x_max":-457,"o":"m -461 -100 q -488 -144 -467 -126 q -537 -162 -510 -162 q -577 -148 -561 -162 q -593 -110 -593 -133 q -569 -57 -593 -79 q -515 -35 -546 -35 q -472 -53 -487 -35 q -461 -100 -457 -72 z "},"०":{"ha":856,"x_min":89,"x_max":806,"o":"m 110 500 q 248 869 151 738 q 535 1001 344 1001 q 742 922 679 1001 q 806 700 806 843 q 785 500 806 618 q 646 130 743 263 q 358 -3 549 -3 q 151 76 214 -3 q 89 297 89 154 q 110 500 89 379 m 689 500 q 710 692 710 615 q 666 855 710 797 q 519 913 622 913 q 357 859 419 913 q 261 717 294 806 q 206 500 228 628 q 183 304 183 374 q 226 143 183 200 q 374 86 269 86 q 536 140 474 86 q 632 282 599 193 q 689 500 665 371 z "},"१":{"ha":406,"x_min":111,"x_max":383,"o":"m 131 893 l 147 982 l 383 982 l 208 0 l 111 0 l 268 893 l 131 893 z "},"२":{"ha":794,"x_min":1,"x_max":765,"o":"m 14 76 q 471 419 304 267 q 663 714 638 571 q 668 768 668 750 q 627 879 668 838 q 494 921 586 921 q 319 855 389 921 q 225 681 250 789 l 131 681 q 267 919 165 835 q 510 1004 369 1004 q 697 947 628 1004 q 765 782 765 889 q 760 718 765 747 q 564 397 731 553 q 167 89 397 240 l 679 89 l 665 7 l 1 7 l 14 76 z "},"३":{"ha":813,"x_min":50,"x_max":775,"o":"m 147 742 q 281 941 181 868 q 522 1014 382 1014 q 710 957 644 1014 q 775 808 775 900 q 771 760 775 785 q 694 608 756 672 q 535 529 632 544 l 533 522 q 662 453 615 506 q 708 318 708 401 q 703 264 708 303 q 588 69 681 144 q 344 -7 494 -7 q 128 60 207 -7 q 50 254 50 128 q 51 283 50 274 l 146 283 q 197 133 142 192 q 357 75 251 75 q 530 130 464 75 q 611 272 596 185 q 615 315 615 296 q 343 483 615 483 l 314 483 l 329 565 l 360 565 q 676 750 643 565 q 679 786 679 763 q 635 891 679 853 q 504 929 590 929 q 340 880 411 929 q 242 742 269 831 l 147 742 z "},"४":{"ha":851,"x_min":19,"x_max":804,"o":"m 19 236 l 32 310 l 658 990 l 774 990 l 656 321 l 804 321 l 789 236 l 640 236 l 599 0 l 503 0 l 544 236 l 19 236 m 663 883 l 147 321 l 564 321 l 663 883 z "},"५":{"ha":857,"x_min":76,"x_max":825,"o":"m 810 913 l 301 913 l 239 557 q 354 637 282 606 q 504 668 426 668 q 710 597 646 668 q 775 417 775 526 q 768 342 775 383 q 701 166 751 244 q 567 42 651 88 q 369 -4 482 -4 q 152 70 228 -4 q 79 271 76 144 l 174 271 q 233 129 176 179 q 385 79 289 79 q 580 151 506 79 q 675 340 654 222 q 681 401 681 369 q 629 537 681 489 q 478 585 578 585 q 330 547 397 585 q 219 446 263 510 l 129 446 l 226 997 l 825 997 l 810 913 z "},"६":{"ha":874,"x_min":100,"x_max":822,"o":"m 725 753 q 683 887 726 840 q 547 933 639 933 q 325 827 411 933 q 201 482 239 721 q 331 613 243 565 q 521 661 418 661 q 715 594 646 661 q 785 408 785 528 q 776 325 785 369 q 713 159 761 233 q 583 40 664 85 q 394 -4 501 -4 q 167 76 235 -4 q 100 303 100 156 q 119 501 100 392 q 563 1015 210 1015 q 759 942 696 1015 q 817 753 822 869 l 725 753 m 488 578 q 359 551 422 578 q 249 472 296 525 q 190 340 203 418 q 185 281 185 313 q 240 134 185 190 q 404 78 294 78 q 587 143 511 78 q 682 321 663 208 q 689 389 689 360 q 637 528 689 479 q 488 578 585 578 z "},"७":{"ha":740,"x_min":122,"x_max":792,"o":"m 779 919 l 229 0 l 122 0 l 683 913 l 128 913 l 142 994 l 792 994 l 779 919 z "},"८":{"ha":867,"x_min":54,"x_max":828,"o":"m 307 524 q 167 707 167 574 q 171 756 167 731 q 233 890 185 831 q 362 984 282 950 q 544 1018 442 1018 q 755 958 682 1018 q 828 803 828 899 q 824 756 828 781 q 752 613 808 674 q 606 524 696 551 q 726 449 683 503 q 769 318 769 396 q 765 267 769 294 q 630 51 740 131 q 358 -29 519 -29 q 135 34 217 -29 q 54 208 54 97 q 60 267 54 239 q 142 433 76 367 q 307 524 208 500 m 529 936 q 352 887 424 936 q 264 744 281 838 q 261 710 261 732 q 315 598 261 639 q 463 557 369 557 q 656 619 581 557 q 732 785 732 682 q 678 897 732 858 q 529 936 624 936 m 449 482 q 253 429 335 482 q 153 271 172 376 q 149 226 149 249 q 208 99 149 144 q 374 53 268 53 q 572 111 492 53 q 669 271 651 169 q 674 314 674 294 q 612 440 674 397 q 449 482 550 482 z "},"९":{"ha":868,"x_min":99,"x_max":817,"o":"m 197 265 q 242 126 196 175 q 382 78 288 78 q 594 180 513 78 q 711 518 675 282 q 589 398 671 442 q 411 354 507 354 q 213 420 285 354 q 140 608 140 486 q 147 685 140 639 q 213 853 164 778 q 344 971 263 928 q 532 1014 425 1014 q 751 936 685 1014 q 817 711 817 858 q 797 517 817 626 q 651 126 751 256 q 363 -4 551 -4 q 162 70 225 -4 q 107 265 99 144 l 197 265 m 440 438 q 566 465 506 438 q 669 544 626 492 q 724 671 711 597 q 729 733 729 699 q 677 878 729 824 q 519 932 625 932 q 337 865 413 932 q 242 688 261 799 q 236 626 236 658 q 288 488 236 538 q 440 438 340 438 z "},"ॐ":{"ha":1461,"x_min":40,"x_max":1333,"o":"m 906 1264 q 876 1276 888 1264 q 864 1306 864 1288 q 882 1348 864 1331 q 924 1365 900 1365 q 953 1353 942 1365 q 965 1322 965 1342 q 947 1281 965 1299 q 906 1264 929 1264 m 881 1040 q 698 1094 761 1040 q 635 1231 635 1149 q 639 1272 635 1251 l 711 1272 q 708 1244 708 1253 q 753 1147 708 1188 q 883 1107 797 1107 q 1035 1156 979 1107 q 1104 1272 1092 1206 l 1176 1272 q 1085 1107 1160 1174 q 881 1040 1011 1040 m 1121 954 q 1283 897 1232 954 q 1333 731 1333 839 q 1322 611 1333 681 l 1288 415 q 1156 132 1254 226 q 874 38 1057 38 q 740 51 819 38 l 753 126 q 874 115 826 115 q 1100 192 1025 115 q 1200 418 1175 268 l 1238 621 q 1247 721 1247 671 q 1214 839 1247 799 q 1107 879 1181 879 q 968 827 1017 879 q 904 688 919 775 q 813 503 881 558 q 624 447 744 447 l 611 447 q 633 346 633 404 q 629 294 633 322 q 517 93 607 168 q 299 18 426 18 q 110 80 181 18 q 40 244 40 142 q 44 297 40 271 l 129 297 q 126 258 126 283 q 176 140 126 185 q 307 94 225 94 q 465 151 399 94 q 549 301 531 208 q 551 339 551 326 q 508 454 551 408 q 369 500 464 500 l 317 500 l 331 576 l 383 576 q 538 631 478 576 q 611 757 599 685 q 615 796 615 778 q 569 908 615 867 q 450 949 522 949 q 303 901 367 949 q 224 772 239 853 l 140 772 q 251 956 161 888 q 465 1025 342 1025 q 636 969 572 1025 q 700 818 700 914 q 696 769 700 794 q 625 622 681 682 q 481 543 569 561 l 481 540 q 543 518 513 535 l 625 518 q 753 557 703 518 q 821 688 804 596 q 915 884 843 814 q 1121 954 986 954 z "},"॰":{"ha":692,"x_min":114,"x_max":578,"o":"m 386 711 q 526 663 474 711 q 578 532 578 614 q 574 488 578 511 q 485 328 557 390 q 313 267 413 267 q 169 317 224 267 q 114 446 114 367 q 118 489 114 467 q 210 649 135 588 q 386 711 285 711 m 378 653 q 246 607 303 653 q 176 489 189 561 q 174 460 174 469 q 213 362 174 399 q 319 325 253 325 q 446 370 392 325 q 514 488 500 415 q 517 521 517 510 q 479 617 517 581 q 378 653 442 653 z "},"।":{"ha":369,"x_min":131,"x_max":399,"o":"m 399 1029 l 218 0 l 131 0 l 311 1029 l 399 1029 z "},"॥":{"ha":639,"x_min":131,"x_max":668,"o":"m 399 1029 l 218 0 l 131 0 l 311 1029 l 399 1029 m 668 1029 l 488 0 l 400 0 l 581 1029 l 668 1029 z "},"₨":{"ha":1492,"x_min":42,"x_max":1404,"o":"m 506 971 q 718 910 647 971 q 789 749 789 850 q 783 689 789 717 q 686 502 765 576 q 472 413 607 428 l 675 0 l 556 0 l 361 408 l 211 408 l 139 0 l 42 0 l 213 971 l 506 971 m 685 689 q 690 740 690 725 q 492 893 690 893 l 296 893 l 225 488 l 421 488 q 603 541 539 488 q 685 689 668 594 m 1304 532 q 1271 647 1310 603 q 1149 692 1232 692 q 1010 647 1064 692 q 957 536 957 603 q 981 476 957 499 q 1040 440 1004 453 q 1136 414 1075 428 q 1252 381 1208 397 q 1326 332 1296 365 q 1357 242 1357 299 q 1317 112 1357 169 q 1208 22 1278 54 q 1054 -11 1139 -11 q 867 45 936 -11 q 799 201 799 101 q 800 226 799 218 l 900 226 q 937 111 893 156 q 1068 67 981 67 q 1196 104 1146 67 q 1257 201 1246 142 q 1260 225 1260 218 q 1235 287 1260 264 q 1176 323 1211 310 q 1076 351 1140 336 q 963 384 1006 368 q 889 432 919 400 q 858 518 858 464 q 898 646 858 589 q 1008 736 938 703 q 1168 769 1079 769 q 1342 714 1279 769 q 1404 561 1404 658 q 1403 532 1404 542 l 1304 532 z "},"₹":{"ha":897,"x_min":115,"x_max":935,"o":"m 700 754 q 694 726 697 735 l 890 726 l 878 654 l 678 654 q 599 502 650 556 q 463 426 549 449 q 236 403 376 403 l 214 272 q 207 208 207 235 q 244 101 207 139 q 360 64 282 64 q 572 263 536 64 l 664 263 q 556 56 638 126 q 346 -14 474 -14 q 174 41 232 -14 q 115 197 115 96 q 122 272 115 228 l 157 472 q 401 485 319 472 q 524 535 482 497 q 588 654 565 574 l 122 654 l 135 726 l 604 726 l 610 756 l 635 899 l 165 899 l 179 972 l 935 972 l 921 899 l 725 899 l 700 754 z "},"‌":{"ha":0,"x_min":-32,"x_max":33,"o":"m -32 -319 l -32 1126 l 33 1126 l 33 -319 l -32 -319 z "},"‍":{"ha":0,"x_min":-178,"x_max":178,"o":"m 132 778 l 32 882 l 32 -319 l -33 -319 l -33 882 l -129 781 l -175 826 l -46 956 l -178 1088 l -132 1133 l 0 1001 l 133 1133 l 178 1089 l 44 956 l 178 824 l 132 778 z "},"◌":{"ha":904,"x_min":69,"x_max":835,"o":"m 478 692 q 461 649 478 665 q 418 633 444 633 q 375 649 392 633 q 358 692 358 665 q 375 734 358 718 q 418 750 392 750 q 461 734 444 750 q 478 692 478 718 m 646 671 q 629 628 646 644 q 586 613 613 613 q 543 628 560 613 q 526 671 526 644 q 543 713 526 697 q 586 729 560 729 q 629 713 613 729 q 646 671 646 697 m 315 633 q 299 591 315 607 q 256 575 282 575 q 213 591 229 575 q 196 633 196 607 q 213 676 196 660 q 256 692 229 692 q 299 676 282 692 q 315 633 315 660 m 774 568 q 757 526 774 542 q 714 510 740 510 q 671 526 688 510 q 654 568 654 542 q 671 610 654 594 q 714 626 688 626 q 757 610 740 626 q 774 568 774 594 m 210 496 q 193 453 210 469 q 150 438 176 438 q 107 453 124 438 q 90 496 90 469 q 107 538 90 522 q 150 554 124 554 q 193 538 176 554 q 210 496 210 522 m 835 410 q 818 367 835 383 q 775 351 801 351 q 732 367 749 351 q 715 410 715 383 q 732 452 715 436 q 775 468 749 468 q 818 452 801 468 q 835 410 835 436 m 189 328 q 172 285 189 301 q 129 269 156 269 q 86 285 103 269 q 69 328 69 301 q 86 370 69 354 q 129 386 103 386 q 172 370 156 386 q 189 328 189 354 m 821 243 q 804 201 821 217 q 761 185 788 185 q 718 201 735 185 q 701 243 701 217 q 718 285 701 269 q 761 301 735 301 q 804 285 788 301 q 821 243 821 269 m 251 171 q 235 128 251 144 q 192 113 218 113 q 149 128 165 113 q 132 171 132 144 q 149 213 132 197 q 192 229 165 229 q 235 213 218 229 q 251 171 251 197 m 719 110 q 703 67 719 83 q 660 51 686 51 q 617 67 633 51 q 600 110 600 83 q 617 152 600 136 q 660 168 633 168 q 703 152 686 168 q 719 110 719 136 m 388 65 q 371 23 388 39 q 328 7 354 7 q 285 23 301 7 q 268 65 268 39 q 285 108 268 92 q 328 124 301 124 q 371 108 354 124 q 388 65 388 92 m 560 46 q 543 3 560 19 q 500 -12 526 -12 q 457 3 474 -12 q 440 46 440 19 q 457 88 440 72 q 500 104 474 104 q 543 88 526 104 q 560 46 560 72 z "},"!":{"ha":385,"x_min":63,"x_max":343,"o":"m 343 971 l 206 257 l 124 257 l 239 971 l 343 971 m 122 -7 q 79 10 96 -7 q 63 53 63 26 q 88 111 63 86 q 147 136 114 136 q 190 120 174 136 q 207 78 207 104 q 181 19 207 44 q 122 -7 156 -7 z "},"\"":{"ha":367,"x_min":144,"x_max":440,"o":"m 274 1104 l 213 836 l 144 836 l 176 1104 l 274 1104 m 440 1104 l 379 836 l 311 836 l 343 1104 l 440 1104 z "},"#":{"ha":1128,"x_min":32,"x_max":1117,"o":"m 881 640 l 781 383 l 979 383 l 964 297 l 747 297 l 631 0 l 538 0 l 654 297 l 346 297 l 229 0 l 136 0 l 253 297 l 32 297 l 47 383 l 286 383 l 386 640 l 168 640 l 185 726 l 419 726 l 538 1028 l 631 1028 l 513 726 l 821 726 l 939 1028 l 1032 1028 l 914 726 l 1117 726 l 1100 640 l 881 640 m 788 640 l 479 640 l 379 383 l 688 383 l 788 640 z "},"$":{"ha":829,"x_min":57,"x_max":763,"o":"m 654 746 q 621 842 656 797 q 518 897 586 886 l 453 526 q 578 483 531 504 q 660 420 626 461 q 693 313 693 379 q 688 256 693 283 q 634 131 676 190 q 521 33 592 72 q 358 -10 450 -6 l 339 -121 l 278 -121 l 297 -8 q 122 61 186 1 q 57 213 57 121 q 60 247 57 222 l 163 247 q 195 134 158 185 q 313 72 232 83 l 379 456 q 251 499 300 478 q 169 561 203 519 q 136 669 136 603 q 142 724 136 685 q 251 906 161 835 q 472 982 340 976 l 493 1099 l 554 1099 l 533 981 q 704 906 646 969 q 757 746 763 842 l 654 746 m 242 728 q 239 692 239 715 q 278 600 239 632 q 394 543 318 568 l 458 901 q 313 854 372 899 q 242 728 254 810 m 592 288 q 552 381 592 349 q 438 439 513 414 l 372 71 q 489 106 439 75 q 565 184 539 136 q 592 288 592 232 z "},"%":{"ha":878,"x_min":35,"x_max":874,"o":"m 126 788 q 206 929 142 875 q 356 983 271 983 q 475 941 431 983 q 519 828 519 899 q 515 788 519 808 q 435 644 500 699 q 286 589 371 589 q 167 631 211 589 q 122 746 122 674 q 126 788 122 765 m 874 972 l 132 0 l 35 0 l 776 972 l 874 972 m 344 921 q 253 885 292 921 q 204 788 215 850 q 201 751 201 775 q 227 678 201 704 q 297 651 253 651 q 388 688 349 651 q 438 788 426 724 q 440 821 440 810 q 415 894 440 868 q 344 921 389 921 m 396 185 q 476 328 411 274 q 625 382 540 382 q 744 340 699 382 q 789 225 789 297 q 785 185 789 206 q 705 42 769 96 q 556 -12 640 -12 q 437 30 482 -12 q 392 144 392 72 q 396 185 392 164 m 614 319 q 523 284 561 319 q 474 185 485 249 q 471 150 471 172 q 496 77 471 103 q 565 51 521 51 q 656 87 618 51 q 706 185 694 122 q 708 219 708 197 q 683 293 708 267 q 614 319 658 319 z "},"&":{"ha":1010,"x_min":32,"x_max":976,"o":"m 840 321 q 744 204 779 242 l 910 0 l 785 0 l 676 135 q 506 20 592 57 q 319 -17 419 -17 q 110 51 189 -17 q 32 231 32 118 q 110 438 32 347 q 319 576 188 528 q 272 658 288 619 q 257 735 257 696 q 293 865 257 807 q 394 954 329 922 q 539 986 458 986 q 687 939 631 986 q 743 815 743 892 q 739 779 743 799 l 642 779 q 643 803 643 788 q 610 878 643 850 q 525 906 578 906 q 404 861 453 906 q 356 751 356 817 q 373 679 356 715 q 428 594 390 643 l 690 271 q 758 356 722 308 l 872 503 l 976 503 l 840 321 m 332 68 q 483 100 413 68 q 624 200 553 132 l 369 514 q 195 406 258 475 q 132 244 132 338 q 187 117 132 167 q 332 68 242 68 z "},"'":{"ha":204,"x_min":147,"x_max":278,"o":"m 278 1104 l 215 836 l 147 836 l 176 1104 l 278 1104 z "},"(":{"ha":583,"x_min":133,"x_max":690,"o":"m 300 -258 q 177 -23 221 -161 q 133 281 133 115 q 188 660 133 469 q 346 1017 243 851 q 589 1297 449 1182 l 690 1297 l 689 1288 q 444 1009 549 1169 q 285 665 340 849 q 229 299 229 482 q 273 1 229 140 q 403 -249 317 -139 l 401 -258 l 300 -258 z "},")":{"ha":583,"x_min":-42,"x_max":497,"o":"m -42 -258 l -40 -249 q 284 194 167 -67 q 401 728 401 456 q 355 1034 401 890 q 215 1288 308 1178 l 217 1297 l 319 1297 q 451 1056 406 1197 q 497 744 497 914 q 444 372 497 560 q 292 19 392 183 q 60 -258 193 -144 l -42 -258 z "},"*":{"ha":651,"x_min":131,"x_max":650,"o":"m 622 918 l 650 849 l 438 760 l 618 669 l 568 599 l 408 718 l 388 500 l 307 500 l 360 718 l 160 597 l 131 671 l 343 760 l 164 849 l 215 919 l 375 799 l 399 1017 l 479 1017 l 424 799 l 622 918 z "},"+":{"ha":910,"x_min":115,"x_max":839,"o":"m 824 471 l 515 471 l 460 160 l 367 160 l 422 471 l 115 471 l 131 557 l 436 557 l 492 868 l 585 868 l 529 557 l 839 557 l 824 471 z "},",":{"ha":240,"x_min":-117,"x_max":158,"o":"m 158 161 l -49 -203 l -117 -203 l 50 161 l 158 161 z "},"-":{"ha":721,"x_min":57,"x_max":611,"o":"m 611 556 l 597 474 l 57 474 l 71 556 l 611 556 z "},".":{"ha":253,"x_min":-3,"x_max":142,"o":"m 57 -7 q 14 10 31 -7 q -3 53 -3 26 q 23 111 -3 86 q 82 136 49 136 q 125 120 108 136 q 142 78 142 104 q 116 19 142 44 q 57 -7 90 -7 z "},"/":{"ha":613,"x_min":-46,"x_max":704,"o":"m 704 1306 l 50 -231 l -46 -231 l 606 1306 l 704 1306 z "},":":{"ha":257,"x_min":-3,"x_max":142,"o":"m 57 -7 q 14 10 31 -7 q -3 53 -3 26 q 23 111 -3 86 q 82 136 49 136 q 125 120 108 136 q 142 78 142 104 q 116 19 142 44 q 57 -7 90 -7 m 57 597 q 14 614 31 597 q -3 657 -3 631 q 23 715 -3 690 q 82 740 49 740 q 125 724 108 740 q 142 682 142 708 q 116 623 142 649 q 57 597 90 597 z "},";":{"ha":315,"x_min":-83,"x_max":279,"o":"m 194 599 q 151 615 168 599 q 135 658 135 632 q 160 717 135 692 q 219 742 186 742 q 263 726 246 742 q 279 683 279 710 q 253 624 279 650 q 194 599 228 599 m 192 161 l -15 -203 l -83 -203 l 83 161 l 192 161 z "},"<":{"ha":700,"x_min":119,"x_max":649,"o":"m 413 192 l 119 514 l 526 836 l 649 836 l 242 514 l 535 192 l 413 192 z "},"=":{"ha":939,"x_min":104,"x_max":878,"o":"m 878 699 l 863 613 l 154 613 l 169 699 l 878 699 m 826 415 l 813 329 l 104 329 l 119 415 l 826 415 z "},">":{"ha":683,"x_min":74,"x_max":601,"o":"m 188 836 l 310 836 l 601 514 l 196 192 l 74 192 l 481 514 l 188 836 z "},"?":{"ha":711,"x_min":103,"x_max":708,"o":"m 450 983 q 638 922 568 983 q 708 757 708 861 q 703 700 708 726 q 572 480 676 550 q 308 410 467 410 l 276 257 l 193 257 l 228 479 l 263 479 q 496 524 406 479 q 610 700 586 569 q 614 742 614 724 q 566 858 614 815 q 436 900 518 900 q 276 849 342 900 q 194 708 211 797 l 103 708 q 222 908 125 833 q 450 983 318 983 m 188 -7 q 144 10 161 -7 q 128 53 128 26 q 153 111 128 86 q 213 136 179 136 q 256 120 239 136 q 272 78 272 104 q 247 19 272 44 q 188 -7 221 -7 z "},"@":{"ha":1385,"x_min":94,"x_max":1278,"o":"m 778 883 q 1042 825 929 883 q 1217 662 1156 767 q 1278 421 1278 557 q 1244 214 1278 313 q 1144 53 1210 115 q 990 -8 1079 -8 q 888 28 922 -8 q 850 131 853 65 q 740 28 807 65 q 597 -8 672 -8 q 433 56 492 -8 q 374 229 374 119 q 417 422 374 332 q 537 565 460 511 q 711 619 614 619 q 828 590 781 619 q 896 503 875 560 l 914 603 l 1000 603 l 929 199 q 925 151 925 174 q 1006 60 925 60 q 1108 114 1065 60 q 1174 251 1151 168 q 1197 415 1197 333 q 1146 627 1197 538 q 997 765 1094 717 q 767 813 900 813 q 465 731 600 813 q 253 508 331 649 q 176 199 176 368 q 290 -96 175 8 q 607 -200 406 -200 q 836 -153 732 -200 l 850 -221 q 586 -271 729 -271 q 328 -215 440 -271 q 156 -54 217 -158 q 94 189 94 50 q 183 540 94 382 q 427 791 271 699 q 778 883 583 883 m 626 68 q 749 106 693 68 q 839 213 806 144 q 872 367 872 282 q 831 494 872 446 q 710 543 789 543 q 581 500 638 543 q 495 388 525 457 q 465 243 465 319 q 507 115 465 163 q 626 68 549 68 z "},"A":{"ha":906,"x_min":-25,"x_max":792,"o":"m 646 231 l 203 231 l 78 0 l -25 0 l 499 958 l 608 958 l 792 0 l 689 0 l 646 231 m 631 308 l 532 838 l 244 308 l 631 308 z "},"B":{"ha":829,"x_min":42,"x_max":801,"o":"m 797 726 q 724 580 782 636 q 585 501 665 524 q 698 434 654 489 q 742 303 742 379 q 738 260 742 283 q 678 127 725 186 q 553 34 631 68 q 378 0 476 0 l 42 0 l 213 971 l 540 971 q 735 917 669 971 q 801 774 801 863 q 797 726 801 751 m 697 717 q 700 753 700 729 q 654 856 700 818 q 518 893 608 893 l 296 893 l 235 540 l 461 540 q 620 588 558 540 q 697 717 682 635 m 642 269 q 646 308 646 290 q 593 420 646 379 q 447 461 540 461 l 219 461 l 153 79 l 385 79 q 558 130 490 79 q 642 269 626 181 z "},"C":{"ha":1071,"x_min":74,"x_max":1042,"o":"m 83 486 q 190 742 108 629 q 392 919 272 856 q 646 982 513 982 q 910 905 807 982 q 1042 688 1014 828 l 928 688 q 827 840 903 785 q 631 894 751 894 q 430 844 524 894 q 271 701 336 794 q 183 486 206 608 q 175 394 175 439 q 214 227 175 299 q 324 117 253 156 q 486 79 394 79 q 702 133 607 79 q 856 283 797 188 l 971 283 q 762 68 892 144 q 471 -8 632 -8 q 263 41 353 -8 q 124 179 174 90 q 74 385 74 268 q 83 486 74 425 z "},"D":{"ha":981,"x_min":42,"x_max":940,"o":"m 501 971 q 826 872 713 971 q 940 594 940 774 q 929 483 940 546 q 822 224 903 333 q 616 58 742 115 q 329 0 490 0 l 42 0 l 213 971 l 501 971 m 343 76 q 671 184 546 76 q 829 483 796 292 q 839 583 839 533 q 750 811 839 731 q 486 892 661 892 l 296 892 l 153 76 l 343 76 z "},"E":{"ha":699,"x_min":42,"x_max":721,"o":"m 296 894 l 232 528 l 600 528 l 588 450 l 218 450 l 153 78 l 563 78 l 549 0 l 42 0 l 213 972 l 721 972 l 706 894 l 296 894 z "},"F":{"ha":685,"x_min":42,"x_max":739,"o":"m 739 971 l 725 893 l 296 893 l 232 526 l 593 526 l 579 450 l 218 450 l 139 0 l 42 0 l 213 971 l 739 971 z "},"G":{"ha":1086,"x_min":74,"x_max":1042,"o":"m 83 486 q 192 742 108 629 q 396 919 275 856 q 651 982 517 982 q 910 904 807 982 q 1042 688 1013 826 l 928 688 q 826 838 903 783 q 635 893 750 893 q 431 843 526 893 q 271 701 336 793 q 183 486 206 608 q 175 394 175 439 q 215 226 175 297 q 326 116 254 154 q 492 78 397 78 q 682 122 593 78 q 835 247 771 165 q 925 438 899 329 l 517 438 l 531 515 l 1042 515 l 1029 444 q 918 213 999 317 q 722 50 838 110 q 476 -10 607 -10 q 266 40 357 -10 q 124 178 175 89 q 74 386 74 268 q 83 486 74 425 z "},"H":{"ha":943,"x_min":42,"x_max":935,"o":"m 935 971 l 763 0 l 665 0 l 746 457 l 219 457 l 139 0 l 42 0 l 213 971 l 310 971 l 233 533 l 760 533 l 838 971 l 935 971 z "},"I":{"ha":318,"x_min":42,"x_max":310,"o":"m 310 971 l 139 0 l 42 0 l 213 971 l 310 971 z "},"J":{"ha":693,"x_min":22,"x_max":663,"o":"m 663 971 l 533 236 q 433 58 514 125 q 239 -10 353 -10 q 80 44 138 -10 q 22 193 22 99 q 28 256 22 226 l 126 256 q 122 208 122 231 q 154 113 122 149 q 254 76 186 76 q 378 122 332 76 q 436 236 424 168 l 565 971 l 663 971 z "},"K":{"ha":789,"x_min":42,"x_max":856,"o":"m 315 486 l 688 0 l 560 0 l 218 449 l 139 0 l 42 0 l 213 971 l 310 971 l 229 515 l 732 971 l 856 971 l 315 486 z "},"L":{"ha":585,"x_min":42,"x_max":501,"o":"m 153 76 l 501 76 l 488 0 l 42 0 l 213 971 l 310 971 l 153 76 z "},"M":{"ha":1169,"x_min":42,"x_max":1158,"o":"m 1158 958 l 989 0 l 892 0 l 1026 764 l 551 0 l 481 0 l 272 763 l 139 0 l 42 0 l 211 958 l 314 958 l 540 128 l 1056 958 l 1158 958 z "},"N":{"ha":953,"x_min":42,"x_max":944,"o":"m 774 0 l 676 0 l 283 817 l 139 0 l 42 0 l 213 971 l 310 971 l 704 156 l 847 971 l 944 971 l 774 0 z "},"O":{"ha":1094,"x_min":78,"x_max":1049,"o":"m 479 -10 q 269 40 360 -10 q 128 181 178 90 q 78 389 78 272 q 153 688 78 551 q 358 903 228 824 q 649 982 489 982 q 859 932 768 982 q 999 791 950 882 q 1049 582 1049 700 q 974 284 1049 419 q 769 69 900 149 q 479 -10 639 -10 m 493 78 q 728 146 624 78 q 890 328 832 214 q 949 576 949 443 q 863 808 949 724 q 633 893 778 893 q 399 825 503 893 q 238 642 296 757 q 179 396 179 528 q 265 163 179 249 q 493 78 350 78 z "},"P":{"ha":783,"x_min":42,"x_max":790,"o":"m 785 692 q 667 490 763 567 q 407 414 571 414 l 211 414 l 139 0 l 42 0 l 213 971 l 506 971 q 719 911 649 971 q 790 750 790 851 q 785 692 790 718 m 422 494 q 685 692 650 494 q 690 743 690 728 q 492 893 690 893 l 296 893 l 226 494 l 422 494 z "},"Q":{"ha":1096,"x_min":78,"x_max":1049,"o":"m 1049 582 q 961 260 1049 404 q 726 46 874 117 l 940 -190 l 810 -190 l 629 10 q 479 -10 556 -10 q 269 40 360 -10 q 128 181 178 90 q 78 389 78 272 q 153 688 78 551 q 358 903 228 824 q 649 982 489 982 q 859 932 768 982 q 999 791 950 882 q 1049 582 1049 700 m 179 396 q 265 163 179 249 q 493 78 350 78 q 728 146 624 78 q 890 328 832 214 q 949 576 949 443 q 863 808 949 724 q 633 893 778 893 q 399 825 503 893 q 238 642 296 757 q 179 396 179 528 z "},"R":{"ha":815,"x_min":42,"x_max":792,"o":"m 506 971 q 720 910 649 971 q 792 746 792 849 q 786 689 792 728 q 694 509 768 583 q 499 413 621 435 l 675 0 l 558 0 l 390 406 l 210 406 l 139 0 l 42 0 l 213 971 l 506 971 m 685 689 q 689 739 689 717 q 640 853 689 813 q 490 893 592 893 l 296 893 l 224 483 l 419 483 q 601 539 535 483 q 685 689 668 594 z "},"S":{"ha":786,"x_min":60,"x_max":742,"o":"m 351 -10 q 198 19 264 -10 q 96 101 132 49 q 60 222 60 154 q 61 250 60 240 l 157 250 q 173 165 154 206 q 238 97 192 124 q 358 69 285 69 q 522 121 461 69 q 583 260 583 172 q 555 348 583 313 q 485 406 526 383 q 371 458 443 429 q 236 520 286 492 q 153 599 186 549 q 126 726 121 649 q 172 859 129 801 q 287 949 214 917 q 453 982 360 982 q 610 951 544 982 q 709 865 676 919 q 738 746 742 811 l 636 746 q 619 819 639 783 q 555 878 599 856 q 447 901 511 901 q 286 853 349 901 q 224 724 224 806 q 251 642 224 675 q 319 586 279 608 q 431 535 360 564 q 563 472 513 501 q 649 394 614 443 q 685 272 685 346 q 683 244 685 254 q 636 115 678 174 q 522 24 594 57 q 351 -10 449 -10 z "},"T":{"ha":722,"x_min":131,"x_max":782,"o":"m 782 971 l 768 893 l 497 893 l 340 0 l 243 0 l 400 893 l 131 893 l 144 971 l 782 971 z "},"U":{"ha":918,"x_min":93,"x_max":915,"o":"m 307 971 l 199 361 q 190 281 190 318 q 247 127 190 176 q 406 78 304 78 q 603 147 524 78 q 710 361 683 217 l 818 971 l 915 971 l 807 361 q 660 84 775 178 q 389 -10 546 -10 q 174 60 254 -10 q 93 267 93 129 q 101 361 93 311 l 210 971 l 307 971 z "},"V":{"ha":915,"x_min":136,"x_max":983,"o":"m 242 971 l 407 110 l 878 971 l 983 971 l 443 0 l 332 0 l 136 971 l 242 971 z "},"W":{"ha":1326,"x_min":139,"x_max":1392,"o":"m 1392 971 l 944 0 l 836 0 l 739 825 l 343 0 l 236 -1 l 139 971 l 244 971 l 315 125 l 714 971 l 824 971 l 914 122 l 1286 971 l 1392 971 z "},"X":{"ha":813,"x_min":-12,"x_max":860,"o":"m 478 485 l 686 0 l 576 0 l 401 406 l 96 0 l -12 0 l 367 488 l 158 971 l 268 971 l 442 568 l 750 971 l 860 971 l 478 485 z "},"Y":{"ha":783,"x_min":133,"x_max":856,"o":"m 856 971 l 439 378 l 372 0 l 275 0 l 342 378 l 133 971 l 243 971 l 406 467 l 746 971 l 856 971 z "},"Z":{"ha":729,"x_min":-10,"x_max":765,"o":"m 119 86 l 615 86 l 600 0 l -10 0 l 4 78 l 635 885 l 154 885 l 171 971 l 765 971 l 751 893 l 119 86 z "},"[":{"ha":510,"x_min":51,"x_max":540,"o":"m 540 1304 l 526 1224 l 403 1224 l 158 -168 l 281 -168 l 267 -250 l 51 -250 l 325 1304 l 540 1304 z "},"\\":{"ha":678,"x_min":226,"x_max":474,"o":"m 378 -231 l 226 1306 l 324 1306 l 474 -231 l 378 -231 z "},"]":{"ha":510,"x_min":18,"x_max":506,"o":"m 232 -258 l 18 -258 l 32 -176 l 154 -176 l 400 1217 l 278 1217 l 292 1297 l 506 1297 l 232 -258 z "},"^":{"ha":842,"x_min":25,"x_max":763,"o":"m 125 238 l 25 238 l 478 958 l 565 958 l 763 238 l 663 238 l 501 836 l 125 238 z "},"_":{"ha":936,"x_min":26,"x_max":747,"o":"m 747 -49 l 732 -139 l 26 -139 l 42 -49 l 747 -49 z "},"`":{"ha":361,"x_min":138,"x_max":406,"o":"m 406 892 l 393 817 l 138 982 l 153 1069 l 406 892 z "},"a":{"ha":938,"x_min":56,"x_max":890,"o":"m 64 381 q 147 585 85 497 q 301 722 210 674 q 496 769 392 769 q 674 719 604 769 q 764 592 743 669 l 793 758 l 890 758 l 757 0 l 660 0 l 689 168 q 553 40 642 90 q 357 -11 465 -11 q 199 26 267 -11 q 93 133 131 64 q 56 294 56 201 q 64 381 56 335 m 726 379 q 733 449 733 418 q 668 621 733 557 q 499 685 603 685 q 348 649 418 685 q 229 544 278 613 q 164 381 181 475 q 157 310 157 339 q 222 137 157 200 q 390 74 286 74 q 540 111 468 74 q 660 218 611 149 q 726 379 710 288 z "},"b":{"ha":938,"x_min":42,"x_max":876,"o":"m 243 590 q 381 719 293 669 q 574 769 468 769 q 794 688 711 769 q 876 468 876 607 q 868 381 876 426 q 785 175 847 264 q 631 38 722 86 q 436 -11 540 -11 q 260 38 329 -11 q 167 167 190 88 l 138 0 l 42 0 l 224 1028 l 319 1028 l 243 590 m 769 381 q 776 451 776 422 q 712 623 776 561 q 542 685 647 685 q 393 647 464 685 q 272 540 322 610 q 206 379 222 471 q 199 310 199 340 q 264 138 199 201 q 433 74 329 74 q 584 110 514 74 q 703 217 654 147 q 769 381 753 288 z "},"c":{"ha":851,"x_min":56,"x_max":804,"o":"m 64 379 q 148 585 85 497 q 303 722 211 674 q 501 769 394 769 q 720 700 642 769 q 804 511 799 631 l 700 511 q 640 640 696 593 q 488 686 583 686 q 280 606 369 686 q 164 379 190 526 q 157 300 157 344 q 217 130 157 189 q 378 71 278 71 q 547 117 475 71 q 654 247 619 164 l 758 247 q 607 60 711 131 q 364 -11 503 -11 q 140 69 224 -11 q 56 290 56 150 q 64 379 56 333 z "},"d":{"ha":938,"x_min":56,"x_max":939,"o":"m 64 381 q 147 585 85 497 q 301 722 210 674 q 497 769 393 769 q 669 721 597 769 q 765 594 740 672 l 842 1028 l 939 1028 l 757 0 l 660 0 l 690 169 q 553 40 640 90 q 358 -11 465 -11 q 138 72 221 -11 q 56 294 56 154 q 64 381 56 335 m 726 379 q 733 449 733 418 q 668 621 733 557 q 499 685 603 685 q 348 649 418 685 q 229 544 278 613 q 164 381 181 475 q 157 310 157 339 q 222 137 157 200 q 390 74 286 74 q 540 111 468 74 q 660 218 611 149 q 726 379 710 288 z "},"e":{"ha":864,"x_min":56,"x_max":808,"o":"m 506 769 q 669 733 601 769 q 773 632 738 696 q 808 486 808 568 q 803 419 808 449 q 786 344 794 378 l 157 344 q 153 294 153 318 q 217 129 153 188 q 382 71 282 71 q 550 117 478 71 q 656 240 622 163 l 760 240 q 609 59 713 129 q 368 -11 506 -11 q 141 70 226 -11 q 56 292 56 151 q 64 379 56 333 q 148 586 85 497 q 304 722 211 675 q 506 769 397 769 m 703 417 q 710 482 710 456 q 647 633 710 581 q 488 686 585 686 q 351 656 417 686 q 238 564 286 625 q 171 417 189 503 l 703 417 z "},"f":{"ha":451,"x_min":67,"x_max":521,"o":"m 506 968 q 367 932 411 968 q 307 811 322 896 l 297 758 l 475 758 l 460 676 l 283 676 l 164 0 l 67 0 l 186 676 l 81 676 l 96 758 l 200 758 l 210 811 q 306 993 232 935 q 521 1051 379 1051 l 506 968 z "},"g":{"ha":938,"x_min":21,"x_max":890,"o":"m 496 769 q 673 719 603 769 q 764 593 743 669 l 793 758 l 890 758 l 754 -19 q 677 -204 736 -124 q 529 -328 618 -285 q 338 -372 440 -372 q 108 -303 192 -372 q 21 -114 24 -233 l 117 -114 q 189 -240 128 -193 q 353 -287 250 -287 q 550 -216 465 -287 q 657 -19 635 -144 l 689 168 q 553 40 642 90 q 358 -11 465 -11 q 138 72 221 -11 q 56 294 56 154 q 64 381 56 335 q 147 585 85 497 q 301 722 210 674 q 496 769 392 769 m 726 379 q 733 449 733 418 q 668 621 733 557 q 499 685 603 685 q 348 649 418 685 q 229 544 278 613 q 164 381 181 475 q 157 310 157 339 q 222 137 157 200 q 390 74 286 74 q 540 111 468 74 q 660 218 611 149 q 726 379 710 288 z "},"h":{"ha":879,"x_min":42,"x_max":792,"o":"m 539 772 q 722 710 653 772 q 792 525 792 647 q 785 444 792 481 l 706 0 l 610 0 l 686 433 q 692 501 692 465 q 642 640 692 593 q 501 688 592 688 q 314 618 392 688 q 213 414 236 549 l 213 415 l 139 0 l 42 0 l 224 1028 l 321 1028 l 250 629 q 375 735 299 699 q 539 772 451 772 z "},"i":{"ha":318,"x_min":42,"x_max":333,"o":"m 250 901 q 207 917 224 901 q 190 960 190 933 q 215 1020 190 996 q 275 1044 240 1044 q 317 1029 301 1044 q 333 989 333 1014 q 308 927 333 953 q 250 901 283 901 m 272 758 l 139 0 l 42 0 l 175 758 l 272 758 z "},"j":{"ha":325,"x_min":-169,"x_max":340,"o":"m 256 901 q 213 917 229 901 q 197 960 197 933 q 222 1020 197 996 q 281 1044 247 1044 q 324 1028 307 1044 q 340 986 340 1013 q 315 926 340 951 q 256 901 289 901 m 114 -179 q 44 -315 99 -271 q -103 -358 -10 -358 l -169 -358 l -154 -275 l -103 -275 q -21 -252 -49 -275 q 17 -175 7 -229 l 182 758 l 279 758 l 114 -179 z "},"k":{"ha":667,"x_min":42,"x_max":714,"o":"m 288 379 l 583 0 l 451 0 l 199 339 l 139 0 l 42 0 l 224 1028 l 321 1028 l 213 419 l 579 758 l 714 758 l 288 379 z "},"l":{"ha":318,"x_min":42,"x_max":321,"o":"m 321 1028 l 139 0 l 42 0 l 224 1028 l 321 1028 z "},"m":{"ha":1419,"x_min":42,"x_max":1333,"o":"m 1082 772 q 1265 710 1196 772 q 1333 526 1333 647 q 1325 444 1333 489 l 1246 0 l 1150 0 l 1228 433 q 1235 503 1235 475 q 1186 640 1235 593 q 1049 688 1138 688 q 876 625 950 688 q 772 444 801 563 l 692 0 l 596 0 l 674 433 q 681 503 681 475 q 632 640 681 593 q 496 688 583 688 q 314 619 390 688 q 213 421 238 550 l 139 0 l 42 0 l 175 758 l 272 758 l 249 626 q 370 735 296 697 q 528 772 444 772 q 692 725 626 772 q 774 586 757 678 q 903 724 819 676 q 1082 772 986 772 z "},"n":{"ha":879,"x_min":42,"x_max":792,"o":"m 535 772 q 722 709 651 772 q 792 525 792 646 q 785 444 792 481 l 706 0 l 610 0 l 686 433 q 692 501 692 465 q 642 640 692 593 q 501 688 592 688 q 314 618 392 688 q 213 414 236 549 l 213 418 l 139 0 l 42 0 l 175 758 l 272 758 l 249 628 q 372 735 297 697 q 535 772 447 772 z "},"o":{"ha":892,"x_min":57,"x_max":829,"o":"m 375 -11 q 208 27 281 -11 q 97 135 136 65 q 57 300 57 206 q 115 535 57 428 q 278 706 174 643 q 510 769 382 769 q 676 731 604 769 q 789 623 749 693 q 829 458 829 553 q 769 222 829 329 q 606 52 710 115 q 375 -11 503 -11 m 386 71 q 563 124 485 71 q 685 264 642 176 q 729 453 729 351 q 663 626 729 567 q 496 686 597 686 q 320 633 397 686 q 200 493 243 581 q 157 304 157 406 q 222 131 157 192 q 386 71 288 71 z "},"p":{"ha":938,"x_min":-22,"x_max":876,"o":"m 243 592 q 378 719 290 668 q 574 769 467 769 q 794 688 711 769 q 876 467 876 607 q 868 381 876 426 q 785 175 847 264 q 631 38 722 86 q 436 -11 540 -11 q 260 40 329 -11 q 167 167 190 90 l 75 -358 l -22 -358 l 175 758 l 272 758 l 243 592 m 769 381 q 776 451 776 422 q 712 623 776 561 q 542 685 647 685 q 393 647 464 685 q 272 540 322 610 q 206 379 222 471 q 199 310 199 340 q 264 138 199 201 q 433 74 329 74 q 584 110 514 74 q 703 217 654 147 q 769 381 753 288 z "},"q":{"ha":938,"x_min":56,"x_max":890,"o":"m 64 381 q 147 585 85 497 q 301 722 210 674 q 497 769 393 769 q 674 719 604 769 q 764 592 744 668 l 793 758 l 890 758 l 694 -358 l 597 -358 l 689 167 q 554 40 643 92 q 356 -11 465 -11 q 199 26 267 -11 q 93 133 131 64 q 56 294 56 201 q 64 381 56 335 m 726 379 q 733 449 733 418 q 668 621 733 557 q 499 685 603 685 q 348 649 418 685 q 229 544 278 613 q 164 381 181 475 q 157 310 157 339 q 222 137 157 200 q 390 74 286 74 q 540 111 468 74 q 660 218 611 149 q 726 379 710 288 z "},"r":{"ha":503,"x_min":42,"x_max":536,"o":"m 246 607 q 365 729 292 686 q 536 772 439 772 l 518 671 l 490 671 q 318 619 390 671 q 218 450 246 568 l 139 0 l 42 0 l 175 758 l 272 758 l 246 607 z "},"s":{"ha":708,"x_min":35,"x_max":638,"o":"m 294 -11 q 107 42 179 -11 q 35 189 35 96 q 36 214 35 206 l 131 214 q 169 107 125 147 q 300 67 214 67 q 440 103 388 67 q 493 201 493 140 q 471 263 493 238 q 416 303 449 288 q 325 340 383 319 q 209 390 253 367 q 134 453 165 413 q 103 557 103 494 q 139 668 103 619 q 238 743 175 717 q 382 769 301 769 q 566 714 494 769 q 638 567 638 658 q 636 538 638 547 l 544 538 q 546 556 546 543 q 498 654 546 617 q 375 692 450 692 q 251 656 300 692 q 201 561 201 621 q 225 494 201 521 q 283 450 249 467 q 376 411 318 433 q 488 363 446 385 q 560 301 531 340 q 589 204 589 263 q 507 47 589 106 q 294 -11 425 -11 z "},"t":{"ha":494,"x_min":83,"x_max":511,"o":"m 203 206 q 199 163 199 181 q 223 101 199 118 q 303 83 247 83 l 392 83 l 376 0 l 272 0 q 143 33 186 0 q 100 143 100 67 q 106 206 100 174 l 189 676 l 83 676 l 99 758 l 204 758 l 238 949 l 335 949 l 301 758 l 511 758 l 496 676 l 286 676 l 203 206 z "},"u":{"ha":879,"x_min":83,"x_max":832,"o":"m 832 758 l 699 0 l 601 0 l 625 133 q 503 25 578 63 q 342 -12 428 -12 q 154 51 225 -12 q 83 235 83 114 q 90 315 83 279 l 168 758 l 264 758 l 188 326 q 182 260 182 294 q 233 120 182 168 q 374 72 283 72 q 556 137 479 72 q 658 326 632 201 l 735 758 l 832 758 z "},"v":{"ha":760,"x_min":85,"x_max":806,"o":"m 329 99 l 700 758 l 806 758 l 367 0 l 254 0 l 85 758 l 189 758 l 329 99 z "},"w":{"ha":1132,"x_min":85,"x_max":1175,"o":"m 1175 758 l 804 0 l 707 0 l 610 635 l 286 0 l 189 0 l 85 758 l 185 758 l 258 103 l 585 758 l 683 758 l 776 101 l 1079 758 l 1175 758 z "},"x":{"ha":639,"x_min":-49,"x_max":681,"o":"m 372 383 l 549 0 l 438 0 l 297 304 l 53 0 l -49 0 l 263 379 l 88 758 l 199 758 l 338 458 l 578 758 l 681 758 l 372 383 z "},"y":{"ha":757,"x_min":51,"x_max":800,"o":"m 193 758 l 336 115 l 699 758 l 800 758 l 154 -357 l 51 -357 l 263 6 l 85 758 l 193 758 z "},"z":{"ha":613,"x_min":-18,"x_max":618,"o":"m 108 81 l 506 81 l 490 0 l -18 0 l -3 81 l 492 678 l 108 678 l 124 758 l 618 758 l 603 678 l 108 81 z "},"{":{"ha":574,"x_min":138,"x_max":667,"o":"m 150 558 q 274 617 233 576 q 326 721 315 658 q 342 896 336 774 q 361 1094 350 1032 q 441 1245 378 1194 q 597 1296 504 1296 l 667 1296 l 653 1211 l 600 1211 q 502 1182 539 1211 q 454 1088 465 1153 q 442 981 446 1040 q 438 907 439 922 q 433 831 436 893 q 419 718 429 768 q 361 588 407 639 q 233 519 315 536 l 232 517 q 326 467 297 499 q 354 379 354 435 q 340 281 354 343 q 299 126 325 219 q 263 -10 275 42 q 250 -92 250 -62 q 356 -175 250 -175 l 408 -175 l 393 -260 l 324 -260 q 198 -222 243 -260 q 153 -107 153 -183 q 167 -10 153 -69 q 210 149 182 49 q 246 283 233 232 q 258 364 258 335 q 231 437 258 410 q 138 479 203 464 l 150 558 z "},"|":{"ha":363,"x_min":39,"x_max":356,"o":"m 136 -139 l 39 -139 l 258 1097 l 356 1097 l 136 -139 z "},"}":{"ha":574,"x_min":-46,"x_max":485,"o":"m 472 479 q 296 315 319 444 q 281 140 286 261 q 261 -58 272 4 q 181 -208 244 -157 q 24 -260 117 -260 l -46 -260 l -31 -175 l 22 -175 q 120 -146 83 -175 q 168 -51 157 -117 q 180 55 176 -4 q 185 129 183 114 q 190 206 186 143 q 203 318 193 269 q 263 447 215 394 q 393 517 311 499 l 393 519 q 268 672 268 549 q 272 718 268 693 q 318 896 282 768 q 368 1088 357 1019 q 372 1125 372 1108 q 267 1211 372 1211 l 214 1211 l 228 1296 l 297 1296 q 424 1258 379 1296 q 469 1144 469 1219 q 465 1094 469 1122 q 415 901 454 1029 q 368 721 379 781 q 364 685 364 703 q 485 558 364 588 l 472 479 z "},"~":{"ha":676,"x_min":46,"x_max":649,"o":"m 46 357 q 131 491 78 446 q 253 536 183 536 q 315 524 289 536 q 372 486 340 511 q 420 455 400 465 q 465 444 440 444 q 531 469 501 444 q 575 535 561 494 l 649 535 q 565 401 618 446 q 442 356 511 356 q 381 368 407 356 q 324 406 356 381 q 274 438 293 428 q 229 447 254 447 q 165 422 194 447 q 119 357 135 397 l 46 357 z "}," ":{"ha":410,"x_min":0,"x_max":0,"o":""},"¡":{"ha":433,"x_min":63,"x_max":343,"o":"m 283 779 q 326 763 310 779 q 343 719 343 746 q 317 661 343 686 q 258 636 292 636 q 215 652 232 636 q 199 694 199 668 q 224 753 199 728 q 283 779 250 779 m 63 -199 l 200 515 l 282 515 l 167 -199 l 63 -199 z "},"¢":{"ha":892,"x_min":76,"x_max":779,"o":"m 482 640 q 285 569 369 640 q 176 367 200 497 q 171 301 171 335 q 230 148 171 201 q 386 94 289 94 q 547 140 479 94 q 647 267 615 186 l 739 267 q 614 90 706 160 q 397 15 522 21 l 372 -125 l 311 -125 l 336 15 q 144 98 213 25 q 76 289 76 171 q 83 367 76 321 q 211 612 110 515 q 460 719 313 708 l 483 853 l 544 853 l 521 721 q 711 644 643 714 q 774 468 779 574 l 682 468 q 627 594 679 549 q 482 640 575 640 z "},"£":{"ha":828,"x_min":67,"x_max":799,"o":"m 550 994 q 736 928 674 994 q 799 757 799 863 q 796 714 799 744 l 706 714 q 708 750 708 739 q 664 868 708 824 q 536 913 619 913 q 385 862 450 913 q 303 708 321 811 q 296 638 296 667 q 313 506 296 589 l 581 506 l 569 436 l 324 436 q 328 382 328 410 q 322 326 328 353 q 274 196 310 256 q 174 81 238 136 l 685 81 l 671 -1 l 72 -1 l 67 57 q 176 183 138 126 q 231 324 215 240 q 235 378 235 353 q 231 436 235 407 l 71 436 l 83 506 l 218 506 q 203 632 203 576 q 210 713 203 664 q 326 917 232 839 q 550 994 419 994 z "},"¤":{"ha":731,"x_min":74,"x_max":703,"o":"m 604 675 q 629 575 629 629 q 624 524 629 560 q 551 374 610 436 l 619 290 l 567 244 l 497 326 q 344 281 425 281 q 208 326 261 281 l 113 244 l 74 290 l 171 372 q 149 469 149 417 q 154 524 149 497 q 226 675 171 615 l 156 760 l 211 806 l 281 721 q 431 767 349 767 q 567 721 513 767 l 665 806 l 703 760 l 604 675 m 233 524 q 229 478 229 499 q 264 377 229 413 q 354 342 299 342 q 474 390 419 342 q 543 524 529 439 q 547 567 547 547 q 511 669 547 632 q 419 707 475 707 q 301 658 354 707 q 233 524 249 608 z "},"¥":{"ha":813,"x_min":56,"x_max":872,"o":"m 553 517 l 757 517 l 744 444 l 501 443 l 456 378 l 444 313 l 721 313 l 708 239 l 431 239 l 388 0 l 290 0 l 333 239 l 56 239 l 68 313 l 347 313 l 358 378 l 335 443 l 92 444 l 104 517 l 310 517 l 150 971 l 258 971 l 422 467 l 761 971 l 872 971 l 553 517 z "},"¦":{"ha":363,"x_min":39,"x_max":356,"o":"m 258 1097 l 356 1097 l 264 583 l 167 583 l 258 1097 m 136 -139 l 39 -139 l 131 375 l 228 375 l 136 -139 z "},"§":{"ha":794,"x_min":47,"x_max":743,"o":"m 644 774 q 610 887 650 840 q 476 933 569 933 q 342 901 394 933 q 279 806 290 868 q 276 781 276 789 q 321 703 276 735 q 476 635 365 671 q 663 547 600 596 q 726 417 726 499 q 722 375 726 399 q 641 232 708 294 q 467 147 574 169 q 572 82 533 119 q 611 -12 611 44 q 572 -133 611 -78 q 463 -220 533 -187 q 303 -253 393 -253 q 116 -200 185 -253 q 47 -51 47 -147 q 49 -22 47 -32 l 146 -22 q 181 -137 140 -92 q 317 -182 221 -182 q 447 -149 396 -182 q 510 -53 499 -117 q 513 -28 513 -36 q 468 49 513 18 q 313 115 424 81 q 125 203 189 154 q 61 335 61 253 q 93 452 61 396 q 185 549 125 508 q 325 604 244 589 q 217 670 257 632 q 178 767 178 708 q 217 885 178 831 q 326 971 256 939 q 489 1003 397 1003 q 675 950 607 1003 q 743 801 743 897 q 742 774 743 783 l 644 774 m 625 406 q 571 508 625 469 q 422 547 517 547 q 286 519 346 547 q 194 446 226 492 q 163 349 163 400 q 217 243 163 283 q 367 203 271 203 q 503 231 444 203 q 594 306 563 260 q 625 406 625 353 z "},"¨":{"ha":438,"x_min":143,"x_max":485,"o":"m 196 865 q 158 881 172 865 q 143 918 143 896 q 165 971 143 949 q 218 993 188 993 q 256 978 242 993 q 271 940 271 964 q 248 888 271 910 q 196 865 225 865 m 410 865 q 372 881 386 865 q 357 918 357 896 q 380 971 357 949 q 433 993 403 993 q 470 978 456 993 q 485 942 485 964 q 462 888 485 911 q 410 865 439 865 z "},"©":{"ha":1106,"x_min":79,"x_max":1058,"o":"m 656 976 q 869 928 778 976 q 1009 793 960 881 q 1058 590 1058 706 q 1049 486 1058 536 q 943 231 1024 343 q 743 57 863 119 q 483 -6 624 -6 q 269 43 360 -6 q 128 180 178 92 q 79 385 79 268 q 89 486 79 425 q 194 740 114 629 q 395 914 275 851 q 656 976 515 976 m 649 932 q 410 876 518 932 q 233 718 303 819 q 139 486 163 617 q 131 388 131 435 q 226 135 131 229 q 492 40 321 40 q 728 97 621 40 q 906 254 835 153 q 999 486 976 356 q 1007 585 1007 539 q 913 838 1007 743 q 649 932 818 932 m 626 811 q 468 772 543 811 q 340 660 393 733 q 269 488 288 586 q 263 414 263 443 q 332 229 263 296 q 511 163 401 163 q 701 219 614 163 q 832 371 789 275 l 742 371 q 652 269 708 304 q 525 235 596 235 q 399 283 447 235 q 351 422 351 332 q 357 486 351 454 q 450 672 378 606 q 614 738 522 738 q 728 702 683 738 q 782 601 774 667 l 872 601 q 797 756 864 700 q 626 811 731 811 z "},"ª":{"ha":618,"x_min":104,"x_max":650,"o":"m 110 735 q 162 865 122 808 q 259 953 201 922 q 382 985 317 985 q 497 952 453 985 q 551 864 540 919 l 571 976 l 650 976 l 565 490 l 486 490 l 506 603 q 419 515 474 547 q 294 482 365 482 q 156 537 208 482 q 104 681 104 592 q 110 735 104 696 m 528 733 q 532 776 532 757 q 493 883 532 844 q 390 922 454 922 q 263 872 319 922 q 190 735 206 821 q 186 690 186 713 q 224 583 186 622 q 324 544 263 544 q 456 596 399 544 q 528 733 514 647 z "},"«":{"ha":604,"x_min":65,"x_max":581,"o":"m 160 167 l 65 410 l 246 653 l 344 653 l 160 410 l 260 167 l 160 167 m 396 167 l 301 410 l 482 653 l 581 653 l 396 410 l 496 167 l 396 167 z "},"¬":{"ha":1013,"x_min":90,"x_max":979,"o":"m 979 597 l 931 319 l 835 319 l 869 518 l 90 518 l 104 597 l 979 597 z "},"­":{"ha":721,"x_min":57,"x_max":611,"o":"m 611 556 l 597 474 l 57 474 l 71 556 l 611 556 z "},"®":{"ha":697,"x_min":126,"x_max":686,"o":"m 456 983 q 624 921 561 983 q 686 760 686 858 q 681 704 686 743 q 620 562 667 625 q 505 463 574 499 q 357 426 436 426 q 189 488 251 426 q 126 647 126 549 q 132 704 126 678 q 192 847 146 783 q 308 947 239 911 q 456 983 376 983 m 632 704 q 636 753 636 729 q 586 886 636 836 q 447 936 536 936 q 273 872 346 936 q 182 704 200 807 q 178 654 178 679 q 228 522 178 572 q 365 472 278 472 q 540 538 467 472 q 632 704 614 603 m 454 856 q 517 836 494 856 q 540 783 540 817 q 515 713 540 742 q 451 678 490 685 l 511 558 l 442 557 l 388 675 l 354 675 l 333 557 l 274 557 l 326 856 l 454 856 m 478 764 q 470 791 481 782 q 440 800 460 800 l 376 800 l 363 726 l 426 726 q 478 764 469 726 z "},"¯":{"ha":538,"x_min":122,"x_max":607,"o":"m 607 972 l 594 897 l 122 897 l 136 972 l 607 972 z "},"°":{"ha":547,"x_min":94,"x_max":571,"o":"m 99 725 q 195 901 118 835 q 375 968 272 968 q 518 917 465 968 q 571 779 571 865 q 565 725 571 761 q 469 549 547 617 q 288 482 392 482 q 147 533 199 482 q 94 672 94 585 q 99 725 94 699 m 485 725 q 489 772 489 750 q 455 873 489 838 q 364 908 421 908 q 244 860 296 908 q 179 725 193 811 q 175 676 175 699 q 208 578 175 613 q 299 543 242 543 q 419 591 367 543 q 485 725 471 639 z "},"±":{"ha":913,"x_min":60,"x_max":849,"o":"m 526 526 l 475 238 l 783 238 l 767 151 l 60 151 l 76 238 l 382 238 l 432 526 l 126 526 l 142 614 l 447 614 l 493 872 l 588 872 l 542 614 l 849 614 l 833 526 l 526 526 z "},"²":{"ha":447,"x_min":64,"x_max":463,"o":"m 460 838 q 412 739 450 782 q 297 643 374 696 l 168 554 l 418 554 l 407 489 l 64 489 l 74 544 l 251 676 q 347 763 315 724 q 379 857 379 803 q 360 906 379 889 q 310 924 342 924 q 243 901 271 924 q 204 836 215 878 l 124 836 q 191 943 139 901 q 322 985 243 985 q 425 951 388 985 q 463 865 463 918 q 460 838 463 857 z "},"³":{"ha":449,"x_min":75,"x_max":476,"o":"m 125 853 q 196 948 142 911 q 328 985 250 985 q 435 952 394 985 q 476 867 476 919 q 447 781 476 817 q 368 733 417 746 l 367 731 q 420 696 400 719 q 440 638 440 672 q 415 562 440 597 q 342 504 389 526 q 235 482 294 482 q 115 519 156 482 q 81 626 75 557 l 158 626 q 244 543 157 543 q 326 569 294 543 q 357 640 357 596 q 333 688 357 671 q 269 706 310 706 l 203 706 l 213 760 l 279 760 q 353 781 322 760 q 390 842 383 803 q 392 858 392 847 q 371 905 392 888 q 313 922 350 922 q 200 853 231 922 l 125 853 z "},"´":{"ha":351,"x_min":108,"x_max":438,"o":"m 422 982 l 108 817 l 121 892 l 438 1069 l 422 982 z "},"µ":{"ha":886,"x_min":-22,"x_max":839,"o":"m 839 758 l 706 0 l 608 0 l 636 156 q 511 29 589 72 q 346 -14 433 -14 q 226 17 276 -14 q 157 114 175 47 l 74 -358 l -22 -358 l 175 758 l 271 758 l 199 350 q 192 272 192 315 q 244 122 192 172 q 388 71 296 71 q 564 135 490 71 q 665 322 638 199 l 742 758 l 839 758 z "},"¶":{"ha":783,"x_min":83,"x_max":772,"o":"m 603 0 l 515 0 l 671 881 l 551 881 l 396 0 l 308 0 l 379 401 l 368 401 q 155 461 226 401 q 83 622 83 521 q 89 679 83 640 q 208 881 111 804 q 467 958 306 958 l 772 958 l 603 0 z "},"·":{"ha":254,"x_min":0,"x_max":144,"o":"m 60 410 q 17 426 33 410 q 0 469 0 443 q 26 528 0 503 q 85 553 51 553 q 128 537 111 553 q 144 494 144 521 q 119 435 144 461 q 60 410 93 410 z "},"¸":{"ha":368,"x_min":-99,"x_max":229,"o":"m 71 -93 q 188 -118 146 -90 q 229 -197 229 -146 q 226 -222 229 -206 q 165 -322 215 -285 q 40 -358 114 -358 l -99 -358 l -87 -293 l 32 -293 q 143 -222 133 -293 q 144 -207 144 -217 q 57 -156 144 -156 l -8 -156 l 21 10 l 90 10 l 71 -93 z "},"¹":{"ha":254,"x_min":132,"x_max":297,"o":"m 132 915 l 144 978 l 297 978 l 211 489 l 132 489 l 207 915 l 132 915 z "},"º":{"ha":596,"x_min":104,"x_max":613,"o":"m 108 732 q 211 915 129 846 q 400 985 293 985 q 554 930 496 985 q 613 783 613 875 q 608 732 613 760 q 553 601 596 658 q 448 511 510 543 q 315 479 386 479 q 163 534 221 479 q 104 681 104 589 q 108 732 104 706 m 526 732 q 531 779 531 757 q 491 885 531 847 q 390 924 451 924 q 262 873 318 924 q 189 732 206 822 q 185 688 185 710 q 224 580 185 618 q 325 542 263 542 q 454 592 397 542 q 526 732 511 642 z "},"»":{"ha":604,"x_min":29,"x_max":544,"o":"m 214 410 l 115 653 l 214 653 l 308 410 l 128 167 l 29 167 l 214 410 m 450 410 l 351 653 l 450 653 l 544 410 l 364 167 l 265 167 l 450 410 z "},"¼":{"ha":836,"x_min":14,"x_max":788,"o":"m 156 915 l 168 978 l 321 978 l 235 489 l 156 489 l 231 915 l 156 915 m 788 972 l 107 0 l 14 0 l 696 972 l 788 972 m 731 99 l 661 99 l 643 0 l 564 0 l 582 99 l 333 99 l 342 147 l 629 492 l 731 492 l 671 153 l 739 153 l 731 99 m 639 411 l 424 153 l 593 153 l 639 411 z "},"½":{"ha":903,"x_min":3,"x_max":918,"o":"m 157 489 l 232 915 l 157 915 l 169 978 l 322 978 l 236 489 l 157 489 m 768 972 l 96 0 l 3 0 l 675 972 l 768 972 m 915 347 q 867 249 906 292 q 753 153 829 206 l 624 64 l 874 64 l 863 -1 l 519 -1 l 529 54 l 707 186 q 803 273 771 233 q 835 367 835 313 q 816 416 835 399 q 765 433 797 433 q 699 410 726 433 q 660 346 671 388 l 579 346 q 647 453 594 411 q 778 494 699 494 q 881 461 843 494 q 918 375 918 428 q 915 347 918 367 z "},"¾":{"ha":894,"x_min":97,"x_max":890,"o":"m 147 853 q 218 948 164 911 q 350 985 272 985 q 458 952 417 985 q 499 867 499 919 q 469 781 499 817 q 390 733 439 746 l 389 731 q 442 696 422 719 q 463 638 463 672 q 437 562 463 597 q 364 504 411 526 q 257 482 317 482 q 138 519 178 482 q 103 626 97 557 l 181 626 q 267 543 179 543 q 348 569 317 543 q 379 640 379 596 q 356 688 379 671 q 292 706 332 706 l 225 706 l 235 760 l 301 760 q 375 781 344 760 q 413 842 406 803 q 414 858 414 847 q 393 905 414 888 q 335 922 372 922 q 222 853 253 922 l 147 853 m 890 972 l 194 0 l 103 0 l 799 972 l 890 972 m 797 99 l 728 99 l 710 0 l 632 0 l 650 99 l 400 99 l 408 147 l 696 492 l 797 492 l 738 153 l 807 153 l 797 99 m 707 411 l 490 153 l 660 153 l 707 411 z "},"¿":{"ha":697,"x_min":-4,"x_max":601,"o":"m 517 765 q 560 749 543 765 q 576 706 576 732 q 551 647 576 672 q 492 622 525 622 q 449 638 465 622 q 432 681 432 654 q 458 740 432 714 q 517 765 483 765 m 254 -225 q 66 -164 136 -225 q -4 1 -4 -103 q 1 58 -4 32 q 133 278 28 208 q 396 349 238 349 l 428 501 l 511 501 l 476 279 l 442 279 q 208 234 299 279 q 94 58 118 189 q 90 17 90 36 q 138 -99 90 -57 q 268 -142 186 -142 q 428 -90 363 -142 q 510 50 493 -39 l 601 50 q 483 -150 579 -75 q 254 -225 386 -225 z "},"À":{"ha":906,"x_min":-25,"x_max":792,"o":"m 646 231 l 203 231 l 78 0 l -25 0 l 499 958 l 608 958 l 792 0 l 689 0 l 646 231 m 631 308 l 532 838 l 244 308 l 631 308 m 704 1092 l 692 1017 l 436 1182 l 451 1269 l 704 1092 z "},"Á":{"ha":906,"x_min":-25,"x_max":792,"o":"m 646 231 l 203 231 l 78 0 l -25 0 l 499 958 l 608 958 l 792 0 l 689 0 l 646 231 m 631 308 l 532 838 l 244 308 l 631 308 m 721 1182 l 407 1017 l 419 1092 l 736 1269 l 721 1182 z "},"Â":{"ha":906,"x_min":-25,"x_max":792,"o":"m 646 231 l 203 231 l 78 0 l -25 0 l 499 958 l 608 958 l 792 0 l 689 0 l 646 231 m 631 308 l 532 838 l 244 308 l 631 308 m 589 1160 l 382 1043 l 396 1122 l 603 1236 l 768 1122 l 754 1043 l 589 1160 z "},"Ã":{"ha":906,"x_min":-25,"x_max":806,"o":"m 646 231 l 203 231 l 78 0 l -25 0 l 499 958 l 608 958 l 792 0 l 689 0 l 646 231 m 631 308 l 532 838 l 244 308 l 631 308 m 385 1042 q 442 1138 404 1104 q 531 1171 481 1171 q 572 1163 556 1171 q 610 1136 588 1154 q 642 1113 628 1121 q 675 1106 656 1106 q 718 1122 699 1106 q 746 1168 738 1138 l 806 1168 q 748 1073 788 1107 q 658 1039 708 1039 q 615 1048 632 1039 q 576 1075 597 1057 q 546 1097 560 1089 q 514 1104 532 1104 q 444 1042 463 1104 l 385 1042 z "},"Ä":{"ha":906,"x_min":-25,"x_max":792,"o":"m 646 231 l 203 231 l 78 0 l -25 0 l 499 958 l 608 958 l 792 0 l 689 0 l 646 231 m 631 308 l 532 838 l 244 308 l 631 308 m 467 1065 q 428 1081 443 1065 q 414 1118 414 1096 q 436 1171 414 1149 q 489 1193 458 1193 q 527 1178 513 1193 q 542 1140 542 1164 q 519 1088 542 1110 q 467 1065 496 1065 m 681 1065 q 642 1081 657 1065 q 628 1118 628 1096 q 651 1171 628 1149 q 704 1193 674 1193 q 741 1178 726 1193 q 756 1142 756 1164 q 733 1088 756 1111 q 681 1065 710 1065 z "},"Å":{"ha":906,"x_min":-25,"x_max":792,"o":"m 646 231 l 203 231 l 78 0 l -25 0 l 499 958 l 608 958 l 792 0 l 689 0 l 646 231 m 631 308 l 532 838 l 244 308 l 631 308 m 454 1186 q 514 1287 467 1249 q 619 1325 561 1325 q 703 1295 671 1325 q 736 1215 736 1265 q 713 1127 736 1165 q 651 1068 689 1089 q 569 1047 613 1047 q 485 1077 518 1047 q 451 1158 451 1107 q 454 1186 451 1167 m 679 1204 q 660 1253 679 1235 q 608 1271 640 1271 q 545 1248 572 1271 q 511 1186 518 1225 q 510 1168 510 1179 q 528 1119 510 1138 q 579 1101 547 1101 q 649 1131 619 1101 q 679 1204 679 1160 z "},"Æ":{"ha":1225,"x_min":-54,"x_max":1246,"o":"m 822 894 l 757 528 l 1125 528 l 1113 450 l 744 450 l 679 78 l 1088 78 l 1074 0 l 567 0 l 608 231 l 228 231 l 53 0 l -54 0 l 682 972 l 1246 972 l 1232 894 l 822 894 m 725 889 l 286 308 l 622 308 l 725 889 z "},"Ç":{"ha":1071,"x_min":74,"x_max":1042,"o":"m 486 79 q 702 133 607 79 q 856 283 797 188 l 971 283 q 782 80 899 156 q 521 -7 665 4 l 504 -93 q 621 -118 579 -90 q 663 -197 663 -146 q 660 -222 663 -206 q 598 -322 649 -285 q 474 -358 547 -358 l 335 -358 l 346 -293 l 465 -293 q 576 -222 567 -293 q 578 -207 578 -217 q 490 -156 578 -156 l 425 -156 l 451 -8 q 253 46 339 -4 q 121 183 168 96 q 74 385 74 271 q 83 486 74 425 q 190 742 108 629 q 392 919 272 856 q 646 982 513 982 q 910 905 807 982 q 1042 688 1014 828 l 928 688 q 827 840 903 785 q 631 894 751 894 q 430 844 524 894 q 271 701 336 794 q 183 486 206 608 q 175 394 175 439 q 214 227 175 299 q 324 117 253 156 q 486 79 394 79 z "},"È":{"ha":699,"x_min":42,"x_max":721,"o":"m 296 894 l 232 528 l 600 528 l 588 450 l 218 450 l 153 78 l 563 78 l 549 0 l 42 0 l 213 972 l 721 972 l 706 894 l 296 894 m 596 1092 l 583 1017 l 328 1182 l 343 1269 l 596 1092 z "},"É":{"ha":699,"x_min":42,"x_max":721,"o":"m 296 894 l 232 528 l 600 528 l 588 450 l 218 450 l 153 78 l 563 78 l 549 0 l 42 0 l 213 972 l 721 972 l 706 894 l 296 894 m 613 1182 l 299 1017 l 311 1092 l 628 1269 l 613 1182 z "},"Ê":{"ha":699,"x_min":42,"x_max":721,"o":"m 296 894 l 232 528 l 600 528 l 588 450 l 218 450 l 153 78 l 563 78 l 549 0 l 42 0 l 213 972 l 721 972 l 706 894 l 296 894 m 481 1160 l 274 1043 l 288 1122 l 494 1236 l 660 1122 l 646 1043 l 481 1160 z "},"Ë":{"ha":699,"x_min":42,"x_max":721,"o":"m 296 894 l 232 528 l 600 528 l 588 450 l 218 450 l 153 78 l 563 78 l 549 0 l 42 0 l 213 972 l 721 972 l 706 894 l 296 894 m 358 1065 q 320 1081 335 1065 q 306 1118 306 1096 q 328 1171 306 1149 q 381 1193 350 1193 q 419 1178 404 1193 q 433 1140 433 1164 q 410 1088 433 1110 q 358 1065 388 1065 m 572 1065 q 534 1081 549 1065 q 519 1118 519 1096 q 542 1171 519 1149 q 596 1193 565 1193 q 633 1178 618 1193 q 647 1142 647 1164 q 624 1088 647 1111 q 572 1065 601 1065 z "},"Ì":{"ha":318,"x_min":42,"x_max":410,"o":"m 310 971 l 139 0 l 42 0 l 213 971 l 310 971 m 410 1092 l 397 1017 l 142 1182 l 157 1269 l 410 1092 z "},"Í":{"ha":318,"x_min":42,"x_max":442,"o":"m 310 971 l 139 0 l 42 0 l 213 971 l 310 971 m 426 1182 l 113 1017 l 125 1092 l 442 1269 l 426 1182 z "},"Î":{"ha":318,"x_min":42,"x_max":474,"o":"m 310 971 l 139 0 l 42 0 l 213 971 l 310 971 m 294 1160 l 88 1043 l 101 1122 l 308 1236 l 474 1122 l 460 1043 l 294 1160 z "},"Ï":{"ha":318,"x_min":42,"x_max":461,"o":"m 310 971 l 139 0 l 42 0 l 213 971 l 310 971 m 172 1065 q 134 1081 149 1065 q 119 1118 119 1096 q 142 1171 119 1149 q 194 1193 164 1193 q 233 1178 218 1193 q 247 1140 247 1164 q 224 1088 247 1110 q 172 1065 201 1065 m 386 1065 q 348 1081 363 1065 q 333 1118 333 1096 q 356 1171 333 1149 q 410 1193 379 1193 q 447 1178 432 1193 q 461 1142 461 1164 q 438 1088 461 1111 q 386 1065 415 1065 z "},"Ð":{"ha":1014,"x_min":22,"x_max":974,"o":"m 536 971 q 860 872 746 971 q 974 596 974 774 q 963 483 974 546 q 856 224 936 333 q 651 58 776 115 q 364 0 525 0 l 75 0 l 153 439 l 22 439 l 38 529 l 169 529 l 247 971 l 536 971 m 864 483 q 874 585 874 533 q 785 811 874 731 q 522 892 696 892 l 331 892 l 267 529 l 550 529 l 535 439 l 251 439 l 188 76 l 378 76 q 706 184 581 76 q 864 483 831 292 z "},"Ñ":{"ha":953,"x_min":42,"x_max":944,"o":"m 774 0 l 676 0 l 283 817 l 139 0 l 42 0 l 213 971 l 310 971 l 704 156 l 847 971 l 944 971 l 774 0 m 410 1042 q 467 1138 429 1104 q 556 1171 506 1171 q 597 1163 581 1171 q 635 1136 613 1154 q 667 1113 653 1121 q 700 1106 681 1106 q 743 1122 724 1106 q 771 1168 763 1138 l 831 1168 q 773 1073 813 1107 q 683 1039 733 1039 q 640 1048 657 1039 q 601 1075 622 1057 q 571 1097 585 1089 q 539 1104 557 1104 q 469 1042 488 1104 l 410 1042 z "},"Ò":{"ha":1094,"x_min":78,"x_max":1049,"o":"m 479 -10 q 269 40 360 -10 q 128 181 178 90 q 78 389 78 272 q 153 688 78 551 q 358 903 228 824 q 649 982 489 982 q 859 932 768 982 q 999 791 950 882 q 1049 582 1049 700 q 974 284 1049 419 q 769 69 900 149 q 479 -10 639 -10 m 493 78 q 728 146 624 78 q 890 328 832 214 q 949 576 949 443 q 863 808 949 724 q 633 893 778 893 q 399 825 503 893 q 238 642 296 757 q 179 396 179 528 q 265 163 179 249 q 493 78 350 78 m 803 1097 l 790 1022 l 535 1188 l 550 1275 l 803 1097 z "},"Ó":{"ha":1094,"x_min":78,"x_max":1049,"o":"m 479 -10 q 269 40 360 -10 q 128 181 178 90 q 78 389 78 272 q 153 688 78 551 q 358 903 228 824 q 649 982 489 982 q 859 932 768 982 q 999 791 950 882 q 1049 582 1049 700 q 974 284 1049 419 q 769 69 900 149 q 479 -10 639 -10 m 493 78 q 728 146 624 78 q 890 328 832 214 q 949 576 949 443 q 863 808 949 724 q 633 893 778 893 q 399 825 503 893 q 238 642 296 757 q 179 396 179 528 q 265 163 179 249 q 493 78 350 78 m 819 1188 l 506 1022 l 518 1097 l 835 1275 l 819 1188 z "},"Ô":{"ha":1094,"x_min":78,"x_max":1049,"o":"m 479 -10 q 269 40 360 -10 q 128 181 178 90 q 78 389 78 272 q 153 688 78 551 q 358 903 228 824 q 649 982 489 982 q 859 932 768 982 q 999 791 950 882 q 1049 582 1049 700 q 974 284 1049 419 q 769 69 900 149 q 479 -10 639 -10 m 493 78 q 728 146 624 78 q 890 328 832 214 q 949 576 949 443 q 863 808 949 724 q 633 893 778 893 q 399 825 503 893 q 238 642 296 757 q 179 396 179 528 q 265 163 179 249 q 493 78 350 78 m 688 1165 l 481 1049 l 494 1128 l 701 1242 l 867 1128 l 853 1049 l 688 1165 z "},"Õ":{"ha":1094,"x_min":78,"x_max":1049,"o":"m 479 -10 q 269 40 360 -10 q 128 181 178 90 q 78 389 78 272 q 153 688 78 551 q 358 903 228 824 q 649 982 489 982 q 859 932 768 982 q 999 791 950 882 q 1049 582 1049 700 q 974 284 1049 419 q 769 69 900 149 q 479 -10 639 -10 m 493 78 q 728 146 624 78 q 890 328 832 214 q 949 576 949 443 q 863 808 949 724 q 633 893 778 893 q 399 825 503 893 q 238 642 296 757 q 179 396 179 528 q 265 163 179 249 q 493 78 350 78 m 483 1047 q 541 1143 503 1110 q 629 1176 579 1176 q 670 1168 654 1176 q 708 1142 686 1160 q 740 1119 726 1126 q 774 1111 754 1111 q 817 1127 797 1111 q 844 1174 836 1143 l 904 1174 q 847 1078 886 1113 q 757 1044 807 1044 q 713 1053 731 1044 q 675 1081 696 1063 q 644 1102 658 1094 q 613 1110 631 1110 q 543 1047 561 1110 l 483 1047 z "},"Ö":{"ha":1094,"x_min":78,"x_max":1049,"o":"m 479 -10 q 269 40 360 -10 q 128 181 178 90 q 78 389 78 272 q 153 688 78 551 q 358 903 228 824 q 649 982 489 982 q 859 932 768 982 q 999 791 950 882 q 1049 582 1049 700 q 974 284 1049 419 q 769 69 900 149 q 479 -10 639 -10 m 493 78 q 728 146 624 78 q 890 328 832 214 q 949 576 949 443 q 863 808 949 724 q 633 893 778 893 q 399 825 503 893 q 238 642 296 757 q 179 396 179 528 q 265 163 179 249 q 493 78 350 78 m 565 1071 q 527 1086 542 1071 q 513 1124 513 1101 q 535 1176 513 1154 q 588 1199 557 1199 q 626 1184 611 1199 q 640 1146 640 1169 q 617 1093 640 1115 q 565 1071 594 1071 m 779 1071 q 741 1086 756 1071 q 726 1124 726 1101 q 749 1176 726 1154 q 803 1199 772 1199 q 840 1184 825 1199 q 854 1147 854 1169 q 831 1094 854 1117 q 779 1071 808 1071 z "},"×":{"ha":821,"x_min":99,"x_max":764,"o":"m 496 515 l 685 285 l 611 222 l 422 451 l 151 222 l 99 286 l 369 517 l 182 744 l 257 807 l 444 579 l 711 806 l 764 742 l 496 515 z "},"Ø":{"ha":1094,"x_min":-11,"x_max":1138,"o":"m 978 826 q 1049 582 1049 725 q 974 284 1049 419 q 769 69 900 149 q 479 -10 639 -10 q 314 19 389 -10 q 185 103 239 49 l 72 0 l -11 0 l 150 146 q 78 389 78 246 q 153 688 78 551 q 358 903 228 824 q 649 982 489 982 q 814 952 739 982 q 942 868 889 922 l 1056 972 l 1138 972 l 978 826 m 179 396 q 225 215 179 292 l 869 801 q 767 869 828 846 q 633 893 707 893 q 399 825 503 893 q 238 642 296 757 q 179 396 179 528 m 949 576 q 903 758 949 679 l 258 169 q 360 101 300 125 q 493 78 419 78 q 728 146 624 78 q 890 328 832 214 q 949 576 949 443 z "},"Ù":{"ha":918,"x_min":93,"x_max":915,"o":"m 307 971 l 199 361 q 190 281 190 318 q 247 127 190 176 q 406 78 304 78 q 603 147 524 78 q 710 361 683 217 l 818 971 l 915 971 l 807 361 q 660 84 775 178 q 389 -10 546 -10 q 174 60 254 -10 q 93 267 93 129 q 101 361 93 311 l 210 971 l 307 971 m 710 1092 l 697 1017 l 442 1182 l 457 1269 l 710 1092 z "},"Ú":{"ha":918,"x_min":93,"x_max":915,"o":"m 307 971 l 199 361 q 190 281 190 318 q 247 127 190 176 q 406 78 304 78 q 603 147 524 78 q 710 361 683 217 l 818 971 l 915 971 l 807 361 q 660 84 775 178 q 389 -10 546 -10 q 174 60 254 -10 q 93 267 93 129 q 101 361 93 311 l 210 971 l 307 971 m 726 1182 l 413 1017 l 425 1092 l 742 1269 l 726 1182 z "},"Û":{"ha":918,"x_min":93,"x_max":915,"o":"m 307 971 l 199 361 q 190 281 190 318 q 247 127 190 176 q 406 78 304 78 q 603 147 524 78 q 710 361 683 217 l 818 971 l 915 971 l 807 361 q 660 84 775 178 q 389 -10 546 -10 q 174 60 254 -10 q 93 267 93 129 q 101 361 93 311 l 210 971 l 307 971 m 594 1160 l 388 1043 l 401 1122 l 608 1236 l 774 1122 l 760 1043 l 594 1160 z "},"Ü":{"ha":918,"x_min":93,"x_max":915,"o":"m 307 971 l 199 361 q 190 281 190 318 q 247 127 190 176 q 406 78 304 78 q 603 147 524 78 q 710 361 683 217 l 818 971 l 915 971 l 807 361 q 660 84 775 178 q 389 -10 546 -10 q 174 60 254 -10 q 93 267 93 129 q 101 361 93 311 l 210 971 l 307 971 m 472 1065 q 434 1081 449 1065 q 419 1118 419 1096 q 442 1171 419 1149 q 494 1193 464 1193 q 533 1178 518 1193 q 547 1140 547 1164 q 524 1088 547 1110 q 472 1065 501 1065 m 686 1065 q 648 1081 663 1065 q 633 1118 633 1096 q 656 1171 633 1149 q 710 1193 679 1193 q 747 1178 732 1193 q 761 1142 761 1164 q 738 1088 761 1111 q 686 1065 715 1065 z "},"Ý":{"ha":783,"x_min":133,"x_max":856,"o":"m 856 971 l 439 378 l 372 0 l 275 0 l 342 378 l 133 971 l 243 971 l 406 467 l 746 971 l 856 971 m 661 1182 l 347 1017 l 360 1092 l 676 1269 l 661 1182 z "},"Þ":{"ha":783,"x_min":42,"x_max":754,"o":"m 749 486 q 631 285 726 361 q 371 208 536 208 l 175 208 l 139 0 l 42 0 l 213 972 l 310 972 l 274 765 l 469 765 q 683 706 613 765 q 754 544 754 646 q 749 486 754 513 m 385 288 q 567 340 503 288 q 649 486 632 392 q 654 538 654 522 q 456 686 654 686 l 260 686 l 189 288 l 385 288 z "},"ß":{"ha":886,"x_min":26,"x_max":811,"o":"m 163 778 q 278 987 185 907 q 522 1067 371 1067 q 710 1015 644 1067 q 776 879 776 963 q 753 782 776 825 q 697 708 729 739 q 613 639 664 678 q 538 574 563 600 q 514 521 514 549 q 544 470 514 492 q 658 419 574 449 q 775 348 739 392 q 811 236 811 304 q 774 108 811 165 q 670 19 736 51 q 522 -14 604 -14 q 350 45 414 -14 q 286 203 286 104 q 288 232 286 222 l 388 232 q 386 207 386 224 q 425 103 386 140 q 535 65 464 65 q 661 110 613 65 q 710 225 710 154 q 681 294 710 267 q 588 346 653 322 q 453 413 493 379 q 413 501 413 447 q 446 594 413 554 q 546 686 479 633 q 644 776 611 736 q 678 867 678 815 q 633 953 678 921 q 507 985 588 985 q 338 928 400 985 q 258 767 276 871 l 124 0 l 26 0 l 163 778 z "},"à":{"ha":938,"x_min":56,"x_max":890,"o":"m 64 381 q 147 585 85 497 q 301 722 210 674 q 496 769 392 769 q 674 719 604 769 q 764 592 743 669 l 793 758 l 890 758 l 757 0 l 660 0 l 689 168 q 553 40 642 90 q 357 -11 465 -11 q 199 26 267 -11 q 93 133 131 64 q 56 294 56 201 q 64 381 56 335 m 726 379 q 733 449 733 418 q 668 621 733 557 q 499 685 603 685 q 348 649 418 685 q 229 544 278 613 q 164 381 181 475 q 157 310 157 339 q 222 137 157 200 q 390 74 286 74 q 540 111 468 74 q 660 218 611 149 q 726 379 710 288 m 686 892 l 674 817 l 418 982 l 433 1069 l 686 892 z "},"á":{"ha":938,"x_min":56,"x_max":890,"o":"m 64 381 q 147 585 85 497 q 301 722 210 674 q 496 769 392 769 q 674 719 604 769 q 764 592 743 669 l 793 758 l 890 758 l 757 0 l 660 0 l 689 168 q 553 40 642 90 q 357 -11 465 -11 q 199 26 267 -11 q 93 133 131 64 q 56 294 56 201 q 64 381 56 335 m 726 379 q 733 449 733 418 q 668 621 733 557 q 499 685 603 685 q 348 649 418 685 q 229 544 278 613 q 164 381 181 475 q 157 310 157 339 q 222 137 157 200 q 390 74 286 74 q 540 111 468 74 q 660 218 611 149 q 726 379 710 288 m 703 982 l 389 817 l 401 892 l 718 1069 l 703 982 z "},"â":{"ha":938,"x_min":56,"x_max":890,"o":"m 64 381 q 147 585 85 497 q 301 722 210 674 q 496 769 392 769 q 674 719 604 769 q 764 592 743 669 l 793 758 l 890 758 l 757 0 l 660 0 l 689 168 q 553 40 642 90 q 357 -11 465 -11 q 199 26 267 -11 q 93 133 131 64 q 56 294 56 201 q 64 381 56 335 m 726 379 q 733 449 733 418 q 668 621 733 557 q 499 685 603 685 q 348 649 418 685 q 229 544 278 613 q 164 381 181 475 q 157 310 157 339 q 222 137 157 200 q 390 74 286 74 q 540 111 468 74 q 660 218 611 149 q 726 379 710 288 m 571 960 l 364 843 l 378 922 l 585 1036 l 750 922 l 736 843 l 571 960 z "},"ã":{"ha":938,"x_min":56,"x_max":890,"o":"m 64 381 q 147 585 85 497 q 301 722 210 674 q 496 769 392 769 q 674 719 604 769 q 764 592 743 669 l 793 758 l 890 758 l 757 0 l 660 0 l 689 168 q 553 40 642 90 q 357 -11 465 -11 q 199 26 267 -11 q 93 133 131 64 q 56 294 56 201 q 64 381 56 335 m 726 379 q 733 449 733 418 q 668 621 733 557 q 499 685 603 685 q 348 649 418 685 q 229 544 278 613 q 164 381 181 475 q 157 310 157 339 q 222 137 157 200 q 390 74 286 74 q 540 111 468 74 q 660 218 611 149 q 726 379 710 288 m 367 842 q 424 938 386 904 q 513 971 463 971 q 553 963 538 971 q 592 936 569 954 q 624 913 610 921 q 657 906 638 906 q 700 922 681 906 q 728 968 719 938 l 788 968 q 730 873 769 907 q 640 839 690 839 q 597 848 614 839 q 558 875 579 857 q 528 897 542 889 q 496 904 514 904 q 426 842 444 904 l 367 842 z "},"ä":{"ha":938,"x_min":56,"x_max":890,"o":"m 64 381 q 147 585 85 497 q 301 722 210 674 q 496 769 392 769 q 674 719 604 769 q 764 592 743 669 l 793 758 l 890 758 l 757 0 l 660 0 l 689 168 q 553 40 642 90 q 357 -11 465 -11 q 199 26 267 -11 q 93 133 131 64 q 56 294 56 201 q 64 381 56 335 m 726 379 q 733 449 733 418 q 668 621 733 557 q 499 685 603 685 q 348 649 418 685 q 229 544 278 613 q 164 381 181 475 q 157 310 157 339 q 222 137 157 200 q 390 74 286 74 q 540 111 468 74 q 660 218 611 149 q 726 379 710 288 m 449 865 q 410 881 425 865 q 396 918 396 896 q 418 971 396 949 q 471 993 440 993 q 509 978 494 993 q 524 940 524 964 q 501 888 524 910 q 449 865 478 865 m 663 865 q 624 881 639 865 q 610 918 610 896 q 633 971 610 949 q 686 993 656 993 q 723 978 708 993 q 738 942 738 964 q 715 888 738 911 q 663 865 692 865 z "},"å":{"ha":938,"x_min":56,"x_max":890,"o":"m 64 381 q 147 585 85 497 q 301 722 210 674 q 496 769 392 769 q 674 719 604 769 q 764 592 743 669 l 793 758 l 890 758 l 757 0 l 660 0 l 689 168 q 553 40 642 90 q 357 -11 465 -11 q 199 26 267 -11 q 93 133 131 64 q 56 294 56 201 q 64 381 56 335 m 726 379 q 733 449 733 418 q 668 621 733 557 q 499 685 603 685 q 348 649 418 685 q 229 544 278 613 q 164 381 181 475 q 157 310 157 339 q 222 137 157 200 q 390 74 286 74 q 540 111 468 74 q 660 218 611 149 q 726 379 710 288 m 436 986 q 496 1087 449 1049 q 601 1125 543 1125 q 685 1095 653 1125 q 718 1015 718 1065 q 694 927 718 965 q 633 868 671 889 q 551 847 594 847 q 467 877 500 847 q 433 958 433 907 q 436 986 433 967 m 661 1004 q 642 1053 661 1035 q 590 1071 622 1071 q 527 1048 554 1071 q 493 986 500 1025 q 492 968 492 979 q 510 919 492 938 q 561 901 529 901 q 631 931 601 901 q 661 1004 661 960 z "},"æ":{"ha":1539,"x_min":56,"x_max":1483,"o":"m 1188 769 q 1349 733 1282 769 q 1449 632 1415 696 q 1483 488 1483 568 q 1478 419 1483 451 q 1458 344 1469 374 l 819 344 q 817 301 817 314 q 849 174 817 226 q 933 97 881 122 q 1049 71 986 71 q 1223 117 1149 71 q 1331 240 1297 163 l 1435 240 q 1286 59 1388 129 q 1050 -11 1185 -11 q 874 38 947 -11 q 783 175 801 88 l 751 0 l 660 0 l 692 175 q 551 40 639 92 q 358 -11 464 -11 q 138 72 221 -11 q 56 294 56 154 q 64 381 56 335 q 147 585 85 497 q 302 722 210 674 q 500 769 394 769 q 672 721 604 769 q 764 588 739 672 l 794 758 l 886 758 l 856 586 q 1000 724 914 678 q 1188 769 1086 769 m 1379 417 q 1386 481 1386 456 q 1322 633 1386 579 q 1158 686 1258 686 q 1019 655 1086 686 q 901 563 951 624 q 832 417 851 501 l 1379 417 m 726 379 q 733 449 733 418 q 668 621 733 557 q 499 685 603 685 q 348 649 418 685 q 229 544 278 613 q 164 381 181 475 q 157 310 157 339 q 222 137 157 200 q 390 74 286 74 q 540 111 468 74 q 660 218 611 149 q 726 379 710 288 z "},"ç":{"ha":851,"x_min":56,"x_max":804,"o":"m 378 71 q 547 117 475 71 q 654 247 619 164 l 758 247 q 619 68 714 138 q 396 -10 524 -1 l 381 -93 q 497 -118 456 -90 q 539 -197 539 -146 q 536 -222 539 -206 q 474 -322 525 -285 q 350 -358 424 -358 l 211 -358 l 222 -293 l 342 -293 q 453 -222 442 -293 q 454 -207 454 -217 q 367 -156 454 -156 l 301 -156 l 328 -10 q 129 81 203 1 q 56 292 56 161 q 64 379 56 333 q 148 585 85 497 q 303 722 211 674 q 501 769 394 769 q 720 700 642 769 q 804 511 799 631 l 700 511 q 640 640 696 593 q 488 686 583 686 q 280 606 369 686 q 164 379 190 526 q 157 300 157 344 q 217 130 157 189 q 378 71 278 71 z "},"è":{"ha":864,"x_min":56,"x_max":808,"o":"m 506 769 q 669 733 601 769 q 773 632 738 696 q 808 486 808 568 q 803 419 808 449 q 786 344 794 378 l 157 344 q 153 294 153 318 q 217 129 153 188 q 382 71 282 71 q 550 117 478 71 q 656 240 622 163 l 760 240 q 609 59 713 129 q 368 -11 506 -11 q 141 70 226 -11 q 56 292 56 151 q 64 379 56 333 q 148 586 85 497 q 304 722 211 675 q 506 769 397 769 m 703 417 q 710 482 710 456 q 647 633 710 581 q 488 686 585 686 q 351 656 417 686 q 238 564 286 625 q 171 417 189 503 l 703 417 m 647 892 l 635 817 l 379 982 l 394 1069 l 647 892 z "},"é":{"ha":864,"x_min":56,"x_max":808,"o":"m 506 769 q 669 733 601 769 q 773 632 738 696 q 808 486 808 568 q 803 419 808 449 q 786 344 794 378 l 157 344 q 153 294 153 318 q 217 129 153 188 q 382 71 282 71 q 550 117 478 71 q 656 240 622 163 l 760 240 q 609 59 713 129 q 368 -11 506 -11 q 141 70 226 -11 q 56 292 56 151 q 64 379 56 333 q 148 586 85 497 q 304 722 211 675 q 506 769 397 769 m 703 417 q 710 482 710 456 q 647 633 710 581 q 488 686 585 686 q 351 656 417 686 q 238 564 286 625 q 171 417 189 503 l 703 417 m 664 982 l 350 817 l 363 892 l 679 1069 l 664 982 z "},"ê":{"ha":864,"x_min":56,"x_max":808,"o":"m 506 769 q 669 733 601 769 q 773 632 738 696 q 808 486 808 568 q 803 419 808 449 q 786 344 794 378 l 157 344 q 153 294 153 318 q 217 129 153 188 q 382 71 282 71 q 550 117 478 71 q 656 240 622 163 l 760 240 q 609 59 713 129 q 368 -11 506 -11 q 141 70 226 -11 q 56 292 56 151 q 64 379 56 333 q 148 586 85 497 q 304 722 211 675 q 506 769 397 769 m 703 417 q 710 482 710 456 q 647 633 710 581 q 488 686 585 686 q 351 656 417 686 q 238 564 286 625 q 171 417 189 503 l 703 417 m 532 960 l 325 843 l 339 922 l 546 1036 l 711 922 l 697 843 l 532 960 z "},"ë":{"ha":864,"x_min":56,"x_max":808,"o":"m 506 769 q 669 733 601 769 q 773 632 738 696 q 808 486 808 568 q 803 419 808 449 q 786 344 794 378 l 157 344 q 153 294 153 318 q 217 129 153 188 q 382 71 282 71 q 550 117 478 71 q 656 240 622 163 l 760 240 q 609 59 713 129 q 368 -11 506 -11 q 141 70 226 -11 q 56 292 56 151 q 64 379 56 333 q 148 586 85 497 q 304 722 211 675 q 506 769 397 769 m 703 417 q 710 482 710 456 q 647 633 710 581 q 488 686 585 686 q 351 656 417 686 q 238 564 286 625 q 171 417 189 503 l 703 417 m 410 865 q 372 881 386 865 q 357 918 357 896 q 379 971 357 949 q 432 993 401 993 q 470 978 456 993 q 485 940 485 964 q 462 888 485 910 q 410 865 439 865 m 624 865 q 585 881 600 865 q 571 918 571 896 q 594 971 571 949 q 647 993 617 993 q 684 978 669 993 q 699 942 699 964 q 676 888 699 911 q 624 865 653 865 z "},"ì":{"ha":318,"x_min":42,"x_max":375,"o":"m 272 758 l 139 0 l 42 0 l 175 758 l 272 758 m 375 892 l 363 817 l 107 982 l 122 1069 l 375 892 z "},"í":{"ha":318,"x_min":42,"x_max":407,"o":"m 272 758 l 139 0 l 42 0 l 175 758 l 272 758 m 392 982 l 78 817 l 90 892 l 407 1069 l 392 982 z "},"î":{"ha":318,"x_min":42,"x_max":439,"o":"m 272 758 l 139 0 l 42 0 l 175 758 l 272 758 m 260 960 l 53 843 l 67 922 l 274 1036 l 439 922 l 425 843 l 260 960 z "},"ï":{"ha":318,"x_min":42,"x_max":425,"o":"m 272 758 l 139 0 l 42 0 l 175 758 l 272 758 m 136 865 q 98 881 113 865 q 83 918 83 896 q 106 971 83 949 q 158 993 128 993 q 197 978 182 993 q 211 940 211 964 q 188 888 211 910 q 136 865 165 865 m 350 865 q 312 881 326 865 q 297 918 297 896 q 320 971 297 949 q 374 993 343 993 q 410 978 396 993 q 425 942 425 964 q 402 888 425 911 q 350 865 379 865 z "},"ð":{"ha":889,"x_min":58,"x_max":882,"o":"m 872 974 l 715 922 q 842 558 842 758 q 831 433 842 503 q 738 189 804 289 q 578 39 672 89 q 371 -11 483 -11 q 142 73 226 -11 q 58 299 58 157 q 67 390 58 343 q 149 591 86 504 q 305 725 213 678 q 504 772 397 772 q 662 729 597 772 q 751 600 726 686 q 719 756 744 685 q 640 899 693 828 l 436 832 l 446 889 l 606 940 q 521 1028 575 976 l 621 1028 q 681 965 650 1000 l 882 1031 l 872 974 m 721 379 q 728 453 728 424 q 663 628 728 565 q 496 690 597 690 q 349 656 418 690 q 231 553 279 621 q 165 390 182 485 q 158 310 158 356 q 221 133 158 196 q 386 71 283 71 q 533 107 463 71 q 653 213 603 143 q 721 379 704 283 z "},"ñ":{"ha":879,"x_min":42,"x_max":792,"o":"m 535 772 q 722 709 651 772 q 792 525 792 646 q 785 444 792 481 l 706 0 l 610 0 l 686 433 q 692 501 692 465 q 642 640 692 593 q 501 688 592 688 q 314 618 392 688 q 213 414 236 549 l 213 418 l 139 0 l 42 0 l 175 758 l 272 758 l 249 628 q 372 735 297 697 q 535 772 447 772 m 326 842 q 384 938 346 904 q 472 971 422 971 q 513 963 497 971 q 551 936 529 954 q 583 913 569 921 q 617 906 597 906 q 660 922 640 906 q 688 968 679 938 l 747 968 q 690 873 729 907 q 600 839 650 839 q 556 848 574 839 q 518 875 539 857 q 488 897 501 889 q 456 904 474 904 q 386 842 404 904 l 326 842 z "},"ò":{"ha":892,"x_min":57,"x_max":829,"o":"m 375 -11 q 208 27 281 -11 q 97 135 136 65 q 57 300 57 206 q 115 535 57 428 q 278 706 174 643 q 510 769 382 769 q 676 731 604 769 q 789 623 749 693 q 829 458 829 553 q 769 222 829 329 q 606 52 710 115 q 375 -11 503 -11 m 386 71 q 563 124 485 71 q 685 264 642 176 q 729 453 729 351 q 663 626 729 567 q 496 686 597 686 q 320 633 397 686 q 200 493 243 581 q 157 304 157 406 q 222 131 157 192 q 386 71 288 71 m 661 903 l 649 828 l 393 993 l 408 1081 l 661 903 z "},"ó":{"ha":892,"x_min":57,"x_max":829,"o":"m 375 -11 q 208 27 281 -11 q 97 135 136 65 q 57 300 57 206 q 115 535 57 428 q 278 706 174 643 q 510 769 382 769 q 676 731 604 769 q 789 623 749 693 q 829 458 829 553 q 769 222 829 329 q 606 52 710 115 q 375 -11 503 -11 m 386 71 q 563 124 485 71 q 685 264 642 176 q 729 453 729 351 q 663 626 729 567 q 496 686 597 686 q 320 633 397 686 q 200 493 243 581 q 157 304 157 406 q 222 131 157 192 q 386 71 288 71 m 678 993 l 364 828 l 376 903 l 693 1081 l 678 993 z "},"ô":{"ha":892,"x_min":57,"x_max":829,"o":"m 375 -11 q 208 27 281 -11 q 97 135 136 65 q 57 300 57 206 q 115 535 57 428 q 278 706 174 643 q 510 769 382 769 q 676 731 604 769 q 789 623 749 693 q 829 458 829 553 q 769 222 829 329 q 606 52 710 115 q 375 -11 503 -11 m 386 71 q 563 124 485 71 q 685 264 642 176 q 729 453 729 351 q 663 626 729 567 q 496 686 597 686 q 320 633 397 686 q 200 493 243 581 q 157 304 157 406 q 222 131 157 192 q 386 71 288 71 m 546 971 l 339 854 l 353 933 l 560 1047 l 725 933 l 711 854 l 546 971 z "},"õ":{"ha":892,"x_min":57,"x_max":829,"o":"m 375 -11 q 208 27 281 -11 q 97 135 136 65 q 57 300 57 206 q 115 535 57 428 q 278 706 174 643 q 510 769 382 769 q 676 731 604 769 q 789 623 749 693 q 829 458 829 553 q 769 222 829 329 q 606 52 710 115 q 375 -11 503 -11 m 386 71 q 563 124 485 71 q 685 264 642 176 q 729 453 729 351 q 663 626 729 567 q 496 686 597 686 q 320 633 397 686 q 200 493 243 581 q 157 304 157 406 q 222 131 157 192 q 386 71 288 71 m 342 853 q 399 949 361 915 q 488 982 438 982 q 528 974 513 982 q 567 947 544 965 q 599 924 585 932 q 632 917 613 917 q 675 933 656 917 q 703 979 694 949 l 763 979 q 705 884 744 918 q 615 850 665 850 q 572 859 589 850 q 533 886 554 868 q 503 908 517 900 q 471 915 489 915 q 401 853 419 915 l 342 853 z "},"ö":{"ha":892,"x_min":57,"x_max":829,"o":"m 375 -11 q 208 27 281 -11 q 97 135 136 65 q 57 300 57 206 q 115 535 57 428 q 278 706 174 643 q 510 769 382 769 q 676 731 604 769 q 789 623 749 693 q 829 458 829 553 q 769 222 829 329 q 606 52 710 115 q 375 -11 503 -11 m 386 71 q 563 124 485 71 q 685 264 642 176 q 729 453 729 351 q 663 626 729 567 q 496 686 597 686 q 320 633 397 686 q 200 493 243 581 q 157 304 157 406 q 222 131 157 192 q 386 71 288 71 m 422 876 q 384 892 399 876 q 369 929 369 907 q 392 982 369 960 q 444 1004 414 1004 q 483 990 468 1004 q 497 951 497 975 q 474 899 497 921 q 422 876 451 876 m 636 876 q 598 892 613 876 q 583 929 583 907 q 606 982 583 960 q 660 1004 629 1004 q 697 990 682 1004 q 711 953 711 975 q 688 899 711 922 q 636 876 665 876 z "},"÷":{"ha":885,"x_min":107,"x_max":829,"o":"m 492 742 q 449 758 465 742 q 432 801 432 775 q 458 860 432 835 q 517 885 483 885 q 560 869 543 885 q 576 826 576 853 q 551 767 576 793 q 492 742 525 742 m 829 557 l 814 471 l 107 471 l 122 557 l 829 557 m 394 146 q 351 163 368 146 q 335 206 335 179 q 360 264 335 239 q 419 289 386 289 q 463 273 446 289 q 479 231 479 257 q 453 172 479 197 q 394 146 428 146 z "},"ø":{"ha":892,"x_min":-4,"x_max":893,"o":"m 774 649 q 829 458 829 569 q 769 222 829 329 q 606 52 710 115 q 375 -11 503 -11 q 146 72 232 -11 l 68 0 l -4 0 l 114 108 q 57 300 57 189 q 115 535 57 428 q 278 706 174 643 q 510 769 382 769 q 742 685 653 769 l 821 758 l 893 758 l 774 649 m 157 304 q 188 176 157 229 l 669 619 q 592 669 638 653 q 496 686 547 686 q 320 633 397 686 q 200 493 243 581 q 157 304 157 406 m 729 453 q 699 581 729 526 l 217 136 q 292 88 247 104 q 386 71 336 71 q 563 124 485 71 q 685 264 642 176 q 729 453 729 351 z "},"ù":{"ha":879,"x_min":83,"x_max":832,"o":"m 832 758 l 699 0 l 601 0 l 625 133 q 503 25 578 63 q 342 -12 428 -12 q 154 51 225 -12 q 83 235 83 114 q 90 315 83 279 l 168 758 l 264 758 l 188 326 q 182 260 182 294 q 233 120 182 168 q 374 72 283 72 q 556 137 479 72 q 658 326 632 201 l 735 758 l 832 758 m 656 892 l 643 817 l 388 982 l 403 1069 l 656 892 z "},"ú":{"ha":879,"x_min":83,"x_max":832,"o":"m 832 758 l 699 0 l 601 0 l 625 133 q 503 25 578 63 q 342 -12 428 -12 q 154 51 225 -12 q 83 235 83 114 q 90 315 83 279 l 168 758 l 264 758 l 188 326 q 182 260 182 294 q 233 120 182 168 q 374 72 283 72 q 556 137 479 72 q 658 326 632 201 l 735 758 l 832 758 m 672 982 l 358 817 l 371 892 l 688 1069 l 672 982 z "},"û":{"ha":879,"x_min":83,"x_max":832,"o":"m 832 758 l 699 0 l 601 0 l 625 133 q 503 25 578 63 q 342 -12 428 -12 q 154 51 225 -12 q 83 235 83 114 q 90 315 83 279 l 168 758 l 264 758 l 188 326 q 182 260 182 294 q 233 120 182 168 q 374 72 283 72 q 556 137 479 72 q 658 326 632 201 l 735 758 l 832 758 m 540 960 l 333 843 l 347 922 l 554 1036 l 719 922 l 706 843 l 540 960 z "},"ü":{"ha":879,"x_min":83,"x_max":832,"o":"m 832 758 l 699 0 l 601 0 l 625 133 q 503 25 578 63 q 342 -12 428 -12 q 154 51 225 -12 q 83 235 83 114 q 90 315 83 279 l 168 758 l 264 758 l 188 326 q 182 260 182 294 q 233 120 182 168 q 374 72 283 72 q 556 137 479 72 q 658 326 632 201 l 735 758 l 832 758 m 418 865 q 380 881 394 865 q 365 918 365 896 q 388 971 365 949 q 440 993 410 993 q 478 978 464 993 q 493 940 493 964 q 470 888 493 910 q 418 865 447 865 m 632 865 q 594 881 608 865 q 579 918 579 896 q 602 971 579 949 q 656 993 625 993 q 692 978 678 993 q 707 942 707 964 q 684 888 707 911 q 632 865 661 865 z "},"ý":{"ha":757,"x_min":51,"x_max":800,"o":"m 193 758 l 336 115 l 699 758 l 800 758 l 154 -357 l 51 -357 l 263 6 l 85 758 l 193 758 m 611 982 l 297 817 l 310 892 l 626 1069 l 611 982 z "},"þ":{"ha":938,"x_min":-22,"x_max":876,"o":"m 239 572 q 377 715 289 661 q 574 769 465 769 q 794 688 711 769 q 876 467 876 607 q 868 381 876 426 q 785 175 847 264 q 631 38 722 86 q 436 -11 540 -11 q 259 44 328 -11 q 171 189 190 99 l 75 -358 l -22 -358 l 224 1028 l 319 1028 l 239 572 m 769 381 q 776 451 776 422 q 712 623 776 561 q 542 685 647 685 q 393 647 464 685 q 272 540 322 610 q 206 379 222 471 q 199 310 199 340 q 264 138 199 201 q 433 74 329 74 q 584 110 514 74 q 703 217 654 147 q 769 381 753 288 z "},"ÿ":{"ha":757,"x_min":51,"x_max":800,"o":"m 193 758 l 336 115 l 699 758 l 800 758 l 154 -357 l 51 -357 l 263 6 l 85 758 l 193 758 m 357 865 q 319 881 333 865 q 304 918 304 896 q 326 971 304 949 q 379 993 349 993 q 417 978 403 993 q 432 940 432 964 q 409 888 432 910 q 357 865 386 865 m 571 865 q 533 881 547 865 q 518 918 518 896 q 541 971 518 949 q 594 993 564 993 q 631 978 617 993 q 646 942 646 964 q 623 888 646 911 q 571 865 600 865 z "},"Ā":{"ha":906,"x_min":-25,"x_max":826,"o":"m 646 231 l 203 231 l 78 0 l -25 0 l 499 958 l 608 958 l 792 0 l 689 0 l 646 231 m 631 308 l 532 838 l 244 308 l 631 308 m 826 1172 l 814 1097 l 342 1097 l 356 1172 l 826 1172 z "},"ā":{"ha":938,"x_min":56,"x_max":890,"o":"m 64 381 q 147 585 85 497 q 301 722 210 674 q 496 769 392 769 q 674 719 604 769 q 764 592 743 669 l 793 758 l 890 758 l 757 0 l 660 0 l 689 168 q 553 40 642 90 q 357 -11 465 -11 q 199 26 267 -11 q 93 133 131 64 q 56 294 56 201 q 64 381 56 335 m 726 379 q 733 449 733 418 q 668 621 733 557 q 499 685 603 685 q 348 649 418 685 q 229 544 278 613 q 164 381 181 475 q 157 310 157 339 q 222 137 157 200 q 390 74 286 74 q 540 111 468 74 q 660 218 611 149 q 726 379 710 288 m 808 972 l 796 897 l 324 897 l 338 972 l 808 972 z "},"Ă":{"ha":906,"x_min":-25,"x_max":792,"o":"m 646 231 l 203 231 l 78 0 l -25 0 l 499 958 l 608 958 l 792 0 l 689 0 l 646 231 m 631 308 l 532 838 l 244 308 l 631 308 m 788 1219 q 717 1098 774 1146 q 569 1050 660 1050 q 451 1088 492 1050 q 410 1188 410 1126 q 413 1221 410 1199 l 415 1239 l 476 1239 q 474 1211 474 1219 q 583 1128 474 1128 q 729 1239 710 1128 l 792 1239 l 788 1219 z "},"ă":{"ha":938,"x_min":56,"x_max":890,"o":"m 64 381 q 147 585 85 497 q 301 722 210 674 q 496 769 392 769 q 674 719 604 769 q 764 592 743 669 l 793 758 l 890 758 l 757 0 l 660 0 l 689 168 q 553 40 642 90 q 357 -11 465 -11 q 199 26 267 -11 q 93 133 131 64 q 56 294 56 201 q 64 381 56 335 m 726 379 q 733 449 733 418 q 668 621 733 557 q 499 685 603 685 q 348 649 418 685 q 229 544 278 613 q 164 381 181 475 q 157 310 157 339 q 222 137 157 200 q 390 74 286 74 q 540 111 468 74 q 660 218 611 149 q 726 379 710 288 m 769 1019 q 699 898 756 946 q 551 850 642 850 q 433 888 474 850 q 392 988 392 926 q 394 1021 392 999 l 397 1039 l 458 1039 q 456 1011 456 1019 q 565 928 456 928 q 711 1039 692 928 l 774 1039 l 769 1019 z "},"Ą":{"ha":906,"x_min":-25,"x_max":792,"o":"m 596 -156 q 615 -198 596 -183 q 669 -212 635 -212 q 764 -193 713 -212 l 751 -261 q 647 -279 697 -279 q 549 -253 588 -279 q 510 -176 510 -228 q 552 -68 510 -121 q 685 24 594 -15 l 646 231 l 203 231 l 78 0 l -25 0 l 499 958 l 608 958 l 792 0 l 703 -40 q 620 -94 644 -67 q 596 -156 596 -122 m 631 308 l 532 838 l 244 308 l 631 308 z "},"ą":{"ha":938,"x_min":56,"x_max":890,"o":"m 668 -40 q 585 -94 610 -67 q 560 -156 560 -122 q 580 -198 560 -183 q 635 -212 600 -212 q 728 -193 676 -212 l 715 -261 q 611 -279 664 -279 q 514 -254 553 -279 q 475 -178 475 -229 q 657 19 475 -57 l 664 22 l 689 168 q 553 40 642 90 q 357 -11 465 -11 q 199 26 267 -11 q 93 133 131 64 q 56 294 56 201 q 64 381 56 335 q 147 585 85 497 q 301 722 210 674 q 496 769 392 769 q 674 719 604 769 q 764 592 743 669 l 793 758 l 890 758 l 757 0 l 668 -40 m 390 74 q 540 111 468 74 q 660 218 611 149 q 726 379 710 288 q 733 449 733 418 q 668 621 733 557 q 499 685 603 685 q 348 649 418 685 q 229 544 278 613 q 164 381 181 475 q 157 310 157 339 q 222 137 157 200 q 390 74 286 74 z "},"Ć":{"ha":1071,"x_min":74,"x_max":1042,"o":"m 83 486 q 190 742 108 629 q 392 919 272 856 q 646 982 513 982 q 910 905 807 982 q 1042 688 1014 828 l 928 688 q 827 840 903 785 q 631 894 751 894 q 430 844 524 894 q 271 701 336 794 q 183 486 206 608 q 175 394 175 439 q 214 227 175 299 q 324 117 253 156 q 486 79 394 79 q 702 133 607 79 q 856 283 797 188 l 971 283 q 762 68 892 144 q 471 -8 632 -8 q 263 41 353 -8 q 124 179 174 90 q 74 385 74 268 q 83 486 74 425 m 819 1182 l 506 1017 l 518 1092 l 835 1269 l 819 1182 z "},"ć":{"ha":851,"x_min":56,"x_max":804,"o":"m 64 379 q 148 585 85 497 q 303 722 211 674 q 501 769 394 769 q 720 700 642 769 q 804 511 799 631 l 700 511 q 640 640 696 593 q 488 686 583 686 q 280 606 369 686 q 164 379 190 526 q 157 300 157 344 q 217 130 157 189 q 378 71 278 71 q 547 117 475 71 q 654 247 619 164 l 758 247 q 607 60 711 131 q 364 -11 503 -11 q 140 69 224 -11 q 56 290 56 150 q 64 379 56 333 m 660 982 l 346 817 l 358 892 l 675 1069 l 660 982 z "},"Ċ":{"ha":1071,"x_min":74,"x_max":1042,"o":"m 83 486 q 190 742 108 629 q 392 919 272 856 q 646 982 513 982 q 910 905 807 982 q 1042 688 1014 828 l 928 688 q 827 840 903 785 q 631 894 751 894 q 430 844 524 894 q 271 701 336 794 q 183 486 206 608 q 175 394 175 439 q 214 227 175 299 q 324 117 253 156 q 486 79 394 79 q 702 133 607 79 q 856 283 797 188 l 971 283 q 762 68 892 144 q 471 -8 632 -8 q 263 41 353 -8 q 124 179 174 90 q 74 385 74 268 q 83 486 74 425 m 669 1051 q 627 1070 643 1051 q 615 1115 611 1089 q 643 1160 621 1142 q 692 1179 665 1179 q 729 1165 714 1179 q 744 1128 744 1150 q 743 1115 744 1119 q 717 1070 739 1089 q 669 1051 696 1051 z "},"ċ":{"ha":851,"x_min":56,"x_max":804,"o":"m 64 379 q 148 585 85 497 q 303 722 211 674 q 501 769 394 769 q 720 700 642 769 q 804 511 799 631 l 700 511 q 640 640 696 593 q 488 686 583 686 q 280 606 369 686 q 164 379 190 526 q 157 300 157 344 q 217 130 157 189 q 378 71 278 71 q 547 117 475 71 q 654 247 619 164 l 758 247 q 607 60 711 131 q 364 -11 503 -11 q 140 69 224 -11 q 56 290 56 150 q 64 379 56 333 m 510 851 q 467 870 483 851 q 456 915 451 889 q 483 960 461 942 q 532 979 506 979 q 569 965 554 979 q 585 928 585 950 q 583 915 585 919 q 558 870 579 889 q 510 851 536 851 z "},"Č":{"ha":1071,"x_min":74,"x_max":1042,"o":"m 83 486 q 190 742 108 629 q 392 919 272 856 q 646 982 513 982 q 910 905 807 982 q 1042 688 1014 828 l 928 688 q 827 840 903 785 q 631 894 751 894 q 430 844 524 894 q 271 701 336 794 q 183 486 206 608 q 175 394 175 439 q 214 227 175 299 q 324 117 253 156 q 486 79 394 79 q 702 133 607 79 q 856 283 797 188 l 971 283 q 762 68 892 144 q 471 -8 632 -8 q 263 41 353 -8 q 124 179 174 90 q 74 385 74 268 q 83 486 74 425 m 872 1156 l 667 1042 l 500 1156 l 515 1235 l 681 1118 l 886 1235 l 872 1156 z "},"č":{"ha":851,"x_min":56,"x_max":804,"o":"m 64 379 q 148 585 85 497 q 303 722 211 674 q 501 769 394 769 q 720 700 642 769 q 804 511 799 631 l 700 511 q 640 640 696 593 q 488 686 583 686 q 280 606 369 686 q 164 379 190 526 q 157 300 157 344 q 217 130 157 189 q 378 71 278 71 q 547 117 475 71 q 654 247 619 164 l 758 247 q 607 60 711 131 q 364 -11 503 -11 q 140 69 224 -11 q 56 290 56 150 q 64 379 56 333 m 713 956 l 507 842 l 340 956 l 356 1035 l 521 918 l 726 1035 l 713 956 z "},"Ď":{"ha":981,"x_min":42,"x_max":940,"o":"m 501 971 q 826 872 713 971 q 940 594 940 774 q 929 483 940 546 q 822 224 903 333 q 616 58 742 115 q 329 0 490 0 l 42 0 l 213 971 l 501 971 m 343 76 q 671 184 546 76 q 829 483 796 292 q 839 583 839 533 q 750 811 839 731 q 486 892 661 892 l 296 892 l 153 76 l 343 76 m 803 1156 l 597 1042 l 431 1156 l 446 1235 l 611 1118 l 817 1235 l 803 1156 z "},"ď":{"ha":1014,"x_min":56,"x_max":1125,"o":"m 64 381 q 147 585 85 497 q 301 722 210 674 q 497 769 393 769 q 669 721 597 769 q 765 594 740 672 l 842 1028 l 939 1028 l 757 0 l 660 0 l 690 169 q 553 40 640 90 q 358 -11 465 -11 q 138 72 221 -11 q 56 294 56 154 q 64 381 56 335 m 1125 1028 q 1117 910 1125 960 q 965 767 1093 767 l 974 817 q 1026 834 1008 817 q 1051 888 1044 851 l 1058 922 l 994 922 l 1013 1028 l 1125 1028 m 726 379 q 733 449 733 418 q 668 621 733 557 q 499 685 603 685 q 348 649 418 685 q 229 544 278 613 q 164 381 181 475 q 157 310 157 339 q 222 137 157 200 q 390 74 286 74 q 540 111 468 74 q 660 218 611 149 q 726 379 710 288 z "},"Đ":{"ha":1014,"x_min":22,"x_max":974,"o":"m 536 971 q 860 872 746 971 q 974 596 974 774 q 963 483 974 546 q 856 224 936 333 q 651 58 776 115 q 364 0 525 0 l 75 0 l 153 439 l 22 439 l 38 529 l 169 529 l 247 971 l 536 971 m 864 483 q 874 585 874 533 q 785 811 874 731 q 522 892 696 892 l 331 892 l 267 529 l 550 529 l 535 439 l 251 439 l 188 76 l 378 76 q 706 184 581 76 q 864 483 831 292 z "},"đ":{"ha":932,"x_min":56,"x_max":1007,"o":"m 996 858 l 908 858 l 757 0 l 660 0 l 690 169 q 553 40 640 90 q 358 -11 465 -11 q 138 72 221 -11 q 56 294 56 154 q 64 381 56 335 q 147 585 85 497 q 301 722 210 674 q 497 769 393 769 q 669 721 597 769 q 765 594 740 672 l 811 858 l 617 858 l 628 919 l 822 919 l 842 1028 l 939 1028 l 919 919 l 1007 919 l 996 858 m 726 379 q 733 449 733 418 q 668 621 733 557 q 499 685 603 685 q 348 649 418 685 q 229 544 278 613 q 164 381 181 475 q 157 310 157 339 q 222 137 157 200 q 390 74 286 74 q 540 111 468 74 q 660 218 611 149 q 726 379 710 288 z "},"Ē":{"ha":699,"x_min":42,"x_max":721,"o":"m 296 894 l 232 528 l 600 528 l 588 450 l 218 450 l 153 78 l 563 78 l 549 0 l 42 0 l 213 972 l 721 972 l 706 894 l 296 894 m 718 1172 l 706 1097 l 233 1097 l 247 1172 l 718 1172 z "},"ē":{"ha":864,"x_min":56,"x_max":808,"o":"m 506 769 q 669 733 601 769 q 773 632 738 696 q 808 486 808 568 q 803 419 808 449 q 786 344 794 378 l 157 344 q 153 294 153 318 q 217 129 153 188 q 382 71 282 71 q 550 117 478 71 q 656 240 622 163 l 760 240 q 609 59 713 129 q 368 -11 506 -11 q 141 70 226 -11 q 56 292 56 151 q 64 379 56 333 q 148 586 85 497 q 304 722 211 675 q 506 769 397 769 m 703 417 q 710 482 710 456 q 647 633 710 581 q 488 686 585 686 q 351 656 417 686 q 238 564 286 625 q 171 417 189 503 l 703 417 m 769 972 l 757 897 l 285 897 l 299 972 l 769 972 z "},"Ĕ":{"ha":699,"x_min":42,"x_max":721,"o":"m 296 894 l 232 528 l 600 528 l 588 450 l 218 450 l 153 78 l 563 78 l 549 0 l 42 0 l 213 972 l 721 972 l 706 894 l 296 894 m 679 1219 q 608 1098 665 1146 q 461 1050 551 1050 q 342 1088 383 1050 q 301 1188 301 1126 q 304 1221 301 1199 l 307 1239 l 368 1239 q 365 1211 365 1219 q 475 1128 365 1128 q 621 1239 601 1128 l 683 1239 l 679 1219 z "},"ĕ":{"ha":864,"x_min":56,"x_max":808,"o":"m 506 769 q 669 733 601 769 q 773 632 738 696 q 808 486 808 568 q 803 419 808 449 q 786 344 794 378 l 157 344 q 153 294 153 318 q 217 129 153 188 q 382 71 282 71 q 550 117 478 71 q 656 240 622 163 l 760 240 q 609 59 713 129 q 368 -11 506 -11 q 141 70 226 -11 q 56 292 56 151 q 64 379 56 333 q 148 586 85 497 q 304 722 211 675 q 506 769 397 769 m 703 417 q 710 482 710 456 q 647 633 710 581 q 488 686 585 686 q 351 656 417 686 q 238 564 286 625 q 171 417 189 503 l 703 417 m 731 1019 q 660 898 717 946 q 513 850 603 850 q 394 888 435 850 q 353 988 353 926 q 356 1021 353 999 l 358 1039 l 419 1039 q 417 1011 417 1019 q 526 928 417 928 q 672 1039 653 928 l 735 1039 l 731 1019 z "},"Ė":{"ha":699,"x_min":42,"x_max":721,"o":"m 296 894 l 232 528 l 600 528 l 588 450 l 218 450 l 153 78 l 563 78 l 549 0 l 42 0 l 213 972 l 721 972 l 706 894 l 296 894 m 463 1051 q 420 1070 436 1051 q 408 1115 404 1089 q 436 1160 414 1142 q 485 1179 458 1179 q 522 1165 507 1179 q 538 1128 538 1150 q 536 1115 538 1119 q 510 1070 532 1089 q 463 1051 489 1051 z "},"ė":{"ha":864,"x_min":56,"x_max":808,"o":"m 506 769 q 669 733 601 769 q 773 632 738 696 q 808 486 808 568 q 803 419 808 449 q 786 344 794 378 l 157 344 q 153 294 153 318 q 217 129 153 188 q 382 71 282 71 q 550 117 478 71 q 656 240 622 163 l 760 240 q 609 59 713 129 q 368 -11 506 -11 q 141 70 226 -11 q 56 292 56 151 q 64 379 56 333 q 148 586 85 497 q 304 722 211 675 q 506 769 397 769 m 703 417 q 710 482 710 456 q 647 633 710 581 q 488 686 585 686 q 351 656 417 686 q 238 564 286 625 q 171 417 189 503 l 703 417 m 514 851 q 472 870 488 851 q 460 915 456 889 q 488 960 465 942 q 536 979 510 979 q 574 965 558 979 q 589 928 589 950 q 588 915 589 919 q 562 870 583 889 q 514 851 540 851 z "},"Ę":{"ha":699,"x_min":42,"x_max":721,"o":"m 296 894 l 232 528 l 600 528 l 588 450 l 218 450 l 153 78 l 563 78 l 549 0 l 460 -40 q 376 -94 401 -67 q 351 -156 351 -122 q 372 -198 351 -183 q 426 -212 392 -212 q 519 -193 468 -212 l 507 -261 q 403 -279 456 -279 q 306 -254 344 -279 q 267 -178 267 -229 q 407 0 267 -72 l 42 0 l 213 972 l 721 972 l 706 894 l 296 894 z "},"ę":{"ha":864,"x_min":56,"x_max":808,"o":"m 506 769 q 669 733 601 769 q 773 632 738 696 q 808 486 808 568 q 803 419 808 449 q 786 344 794 378 l 157 344 q 153 294 153 318 q 217 129 153 188 q 382 71 282 71 q 550 117 478 71 q 656 240 622 163 l 760 240 q 658 96 725 157 q 499 7 590 35 l 433 -22 q 350 -76 375 -49 q 325 -137 325 -104 q 345 -180 325 -165 q 400 -194 365 -194 q 493 -175 442 -194 l 481 -243 q 376 -261 429 -261 q 279 -236 318 -261 q 240 -160 240 -211 q 333 -10 240 -75 q 131 81 206 1 q 56 292 56 161 q 64 379 56 333 q 148 586 85 497 q 304 722 211 675 q 506 769 397 769 m 703 417 q 710 482 710 456 q 647 633 710 581 q 488 686 585 686 q 351 656 417 686 q 238 564 286 625 q 171 417 189 503 l 703 417 z "},"Ě":{"ha":699,"x_min":42,"x_max":721,"o":"m 296 894 l 232 528 l 600 528 l 588 450 l 218 450 l 153 78 l 563 78 l 549 0 l 42 0 l 213 972 l 721 972 l 706 894 l 296 894 m 665 1156 l 460 1042 l 293 1156 l 308 1235 l 474 1118 l 679 1235 l 665 1156 z "},"ě":{"ha":864,"x_min":56,"x_max":808,"o":"m 506 769 q 669 733 601 769 q 773 632 738 696 q 808 486 808 568 q 803 419 808 449 q 786 344 794 378 l 157 344 q 153 294 153 318 q 217 129 153 188 q 382 71 282 71 q 550 117 478 71 q 656 240 622 163 l 760 240 q 609 59 713 129 q 368 -11 506 -11 q 141 70 226 -11 q 56 292 56 151 q 64 379 56 333 q 148 586 85 497 q 304 722 211 675 q 506 769 397 769 m 703 417 q 710 482 710 456 q 647 633 710 581 q 488 686 585 686 q 351 656 417 686 q 238 564 286 625 q 171 417 189 503 l 703 417 m 717 956 l 511 842 l 344 956 l 360 1035 l 525 918 l 731 1035 l 717 956 z "},"Ğ":{"ha":1086,"x_min":74,"x_max":1042,"o":"m 83 486 q 192 742 108 629 q 396 919 275 856 q 651 982 517 982 q 910 904 807 982 q 1042 688 1013 826 l 928 688 q 826 838 903 783 q 635 893 750 893 q 431 843 526 893 q 271 701 336 793 q 183 486 206 608 q 175 394 175 439 q 215 226 175 297 q 326 116 254 154 q 492 78 397 78 q 682 122 593 78 q 835 247 771 165 q 925 438 899 329 l 517 438 l 531 515 l 1042 515 l 1029 444 q 918 213 999 317 q 722 50 838 110 q 476 -10 607 -10 q 266 40 357 -10 q 124 178 175 89 q 74 386 74 268 q 83 486 74 425 m 886 1219 q 815 1098 872 1146 q 668 1050 758 1050 q 549 1088 590 1050 q 508 1188 508 1126 q 511 1221 508 1199 l 514 1239 l 575 1239 q 572 1211 572 1219 q 682 1128 572 1128 q 828 1239 808 1128 l 890 1239 l 886 1219 z "},"ğ":{"ha":938,"x_min":21,"x_max":890,"o":"m 496 769 q 673 719 603 769 q 764 593 743 669 l 793 758 l 890 758 l 754 -19 q 677 -204 736 -124 q 529 -328 618 -285 q 338 -372 440 -372 q 108 -303 192 -372 q 21 -114 24 -233 l 117 -114 q 189 -240 128 -193 q 353 -287 250 -287 q 550 -216 465 -287 q 657 -19 635 -144 l 689 168 q 553 40 642 90 q 358 -11 465 -11 q 138 72 221 -11 q 56 294 56 154 q 64 381 56 335 q 147 585 85 497 q 301 722 210 674 q 496 769 392 769 m 726 379 q 733 449 733 418 q 668 621 733 557 q 499 685 603 685 q 348 649 418 685 q 229 544 278 613 q 164 381 181 475 q 157 310 157 339 q 222 137 157 200 q 390 74 286 74 q 540 111 468 74 q 660 218 611 149 q 726 379 710 288 m 769 1019 q 699 898 756 946 q 551 850 642 850 q 433 888 474 850 q 392 988 392 926 q 394 1021 392 999 l 397 1039 l 458 1039 q 456 1011 456 1019 q 565 928 456 928 q 711 1039 692 928 l 774 1039 l 769 1019 z "},"Ġ":{"ha":1086,"x_min":74,"x_max":1042,"o":"m 83 486 q 192 742 108 629 q 396 919 275 856 q 651 982 517 982 q 910 904 807 982 q 1042 688 1013 826 l 928 688 q 826 838 903 783 q 635 893 750 893 q 431 843 526 893 q 271 701 336 793 q 183 486 206 608 q 175 394 175 439 q 215 226 175 297 q 326 116 254 154 q 492 78 397 78 q 682 122 593 78 q 835 247 771 165 q 925 438 899 329 l 517 438 l 531 515 l 1042 515 l 1029 444 q 918 213 999 317 q 722 50 838 110 q 476 -10 607 -10 q 266 40 357 -10 q 124 178 175 89 q 74 386 74 268 q 83 486 74 425 m 669 1051 q 627 1070 643 1051 q 615 1115 611 1089 q 643 1160 621 1142 q 692 1179 665 1179 q 729 1165 714 1179 q 744 1128 744 1150 q 743 1115 744 1119 q 717 1070 739 1089 q 669 1051 696 1051 z "},"ġ":{"ha":938,"x_min":21,"x_max":890,"o":"m 496 769 q 673 719 603 769 q 764 593 743 669 l 793 758 l 890 758 l 754 -19 q 677 -204 736 -124 q 529 -328 618 -285 q 338 -372 440 -372 q 108 -303 192 -372 q 21 -114 24 -233 l 117 -114 q 189 -240 128 -193 q 353 -287 250 -287 q 550 -216 465 -287 q 657 -19 635 -144 l 689 168 q 553 40 642 90 q 358 -11 465 -11 q 138 72 221 -11 q 56 294 56 154 q 64 381 56 335 q 147 585 85 497 q 301 722 210 674 q 496 769 392 769 m 726 379 q 733 449 733 418 q 668 621 733 557 q 499 685 603 685 q 348 649 418 685 q 229 544 278 613 q 164 381 181 475 q 157 310 157 339 q 222 137 157 200 q 390 74 286 74 q 540 111 468 74 q 660 218 611 149 q 726 379 710 288 m 553 851 q 510 870 526 851 q 499 915 494 889 q 526 960 504 942 q 575 979 549 979 q 613 965 597 979 q 628 928 628 950 q 626 915 628 919 q 601 870 622 889 q 553 851 579 851 z "},"Ģ":{"ha":1086,"x_min":74,"x_max":1042,"o":"m 83 486 q 192 742 108 629 q 396 919 275 856 q 651 982 517 982 q 910 904 807 982 q 1042 688 1013 826 l 928 688 q 826 838 903 783 q 635 893 750 893 q 431 843 526 893 q 271 701 336 793 q 183 486 206 608 q 175 394 175 439 q 215 226 175 297 q 326 116 254 154 q 492 78 397 78 q 682 122 593 78 q 835 247 771 165 q 925 438 899 329 l 517 438 l 531 515 l 1042 515 l 1029 444 q 918 213 999 317 q 722 50 838 110 q 476 -10 607 -10 q 266 40 357 -10 q 124 178 175 89 q 74 386 74 268 q 83 486 74 425 m 518 -72 q 514 -165 521 -125 q 361 -314 488 -314 l 371 -265 q 422 -246 404 -265 q 447 -187 440 -226 l 450 -168 l 392 -168 l 408 -72 l 518 -72 z "},"ģ":{"ha":938,"x_min":21,"x_max":890,"o":"m 482 826 q 490 944 482 894 q 541 1053 503 1019 q 642 1088 579 1088 l 633 1038 q 581 1020 599 1038 q 556 967 563 1003 l 550 933 l 614 933 l 594 826 l 482 826 m 496 769 q 673 719 603 769 q 764 593 743 669 l 793 758 l 890 758 l 754 -19 q 677 -204 736 -124 q 529 -328 618 -285 q 338 -372 440 -372 q 108 -303 192 -372 q 21 -114 24 -233 l 117 -114 q 189 -240 128 -193 q 353 -287 250 -287 q 550 -216 465 -287 q 657 -19 635 -144 l 689 168 q 553 40 642 90 q 358 -11 465 -11 q 138 72 221 -11 q 56 294 56 154 q 64 381 56 335 q 147 585 85 497 q 301 722 210 674 q 496 769 392 769 m 726 379 q 733 449 733 418 q 668 621 733 557 q 499 685 603 685 q 348 649 418 685 q 229 544 278 613 q 164 381 181 475 q 157 310 157 339 q 222 137 157 200 q 390 74 286 74 q 540 111 468 74 q 660 218 611 149 q 726 379 710 288 z "},"Ĩ":{"ha":318,"x_min":42,"x_max":513,"o":"m 310 971 l 139 0 l 42 0 l 213 971 l 310 971 m 92 1042 q 149 1138 111 1104 q 238 1171 188 1171 q 278 1163 263 1171 q 317 1136 294 1154 q 349 1113 335 1121 q 382 1106 363 1106 q 425 1122 406 1106 q 453 1168 444 1138 l 513 1168 q 455 1073 494 1107 q 365 1039 415 1039 q 322 1048 339 1039 q 283 1075 304 1057 q 253 1097 267 1089 q 221 1104 239 1104 q 151 1042 169 1104 l 92 1042 z "},"ĩ":{"ha":318,"x_min":42,"x_max":476,"o":"m 272 758 l 139 0 l 42 0 l 175 758 l 272 758 m 56 842 q 113 938 75 904 q 201 971 151 971 q 242 963 226 971 q 281 936 258 954 q 313 913 299 921 q 346 906 326 906 q 389 922 369 906 q 417 968 408 938 l 476 968 q 419 873 458 907 q 329 839 379 839 q 285 848 303 839 q 247 875 268 857 q 217 897 231 889 q 185 904 203 904 q 115 842 133 904 l 56 842 z "},"Ī":{"ha":318,"x_min":42,"x_max":532,"o":"m 310 971 l 139 0 l 42 0 l 213 971 l 310 971 m 532 1172 l 519 1097 l 47 1097 l 61 1172 l 532 1172 z "},"ī":{"ha":318,"x_min":13,"x_max":497,"o":"m 272 758 l 139 0 l 42 0 l 175 758 l 272 758 m 497 972 l 485 897 l 13 897 l 26 972 l 497 972 z "},"Ĭ":{"ha":318,"x_min":42,"x_max":497,"o":"m 310 971 l 139 0 l 42 0 l 213 971 l 310 971 m 493 1219 q 422 1098 479 1146 q 275 1050 365 1050 q 156 1088 197 1050 q 115 1188 115 1126 q 118 1221 115 1199 l 121 1239 l 182 1239 q 179 1211 179 1219 q 289 1128 179 1128 q 435 1239 415 1128 l 497 1239 l 493 1219 z "},"ĭ":{"ha":318,"x_min":42,"x_max":463,"o":"m 272 758 l 139 0 l 42 0 l 175 758 l 272 758 m 458 1019 q 388 898 444 946 q 240 850 331 850 q 122 888 163 850 q 81 988 81 926 q 83 1021 81 999 l 86 1039 l 147 1039 q 144 1011 144 1019 q 254 928 144 928 q 400 1039 381 928 l 463 1039 l 458 1019 z "},"Į":{"ha":318,"x_min":-143,"x_max":310,"o":"m 50 -39 q -33 -93 -8 -65 q -58 -154 -58 -121 q -38 -197 -58 -182 q 17 -211 -18 -211 q 110 -192 58 -211 l 97 -260 q -7 -278 46 -278 q -104 -253 -65 -278 q -143 -176 -143 -228 q 39 21 -143 -56 l 46 24 l 213 971 l 310 971 l 139 0 l 136 0 l 50 -39 z "},"į":{"ha":318,"x_min":-143,"x_max":333,"o":"m 275 1044 q 317 1029 301 1044 q 333 989 333 1014 q 308 927 333 953 q 250 901 283 901 q 207 917 224 901 q 190 960 190 933 q 215 1020 190 996 q 275 1044 240 1044 m 175 758 l 272 758 l 139 0 l 136 0 l 50 -39 q -33 -93 -8 -65 q -58 -154 -58 -121 q -38 -197 -58 -182 q 17 -211 -18 -211 q 110 -192 58 -211 l 97 -260 q -7 -278 46 -278 q -104 -253 -65 -278 q -143 -176 -143 -228 q 39 21 -143 -56 l 46 24 l 175 758 z "},"İ":{"ha":318,"x_min":42,"x_max":351,"o":"m 310 971 l 139 0 l 42 0 l 213 971 l 310 971 m 276 1051 q 234 1070 250 1051 q 222 1115 218 1089 q 250 1160 228 1142 q 299 1179 272 1179 q 336 1165 321 1179 q 351 1128 351 1150 q 350 1115 351 1119 q 324 1070 346 1089 q 276 1051 303 1051 z "},"ı":{"ha":318,"x_min":42,"x_max":272,"o":"m 272 758 l 139 0 l 42 0 l 175 758 l 272 758 z "},"Ķ":{"ha":789,"x_min":42,"x_max":856,"o":"m 315 486 l 688 0 l 560 0 l 218 449 l 139 0 l 42 0 l 213 971 l 310 971 l 229 515 l 732 971 l 856 971 l 315 486 m 363 -72 q 358 -165 365 -125 q 305 -279 343 -244 q 206 -314 267 -314 l 215 -265 q 267 -246 249 -265 q 292 -187 285 -226 l 294 -168 l 236 -168 l 253 -72 l 363 -72 z "},"ķ":{"ha":667,"x_min":42,"x_max":714,"o":"m 288 379 l 583 0 l 451 0 l 199 339 l 139 0 l 42 0 l 224 1028 l 321 1028 l 213 419 l 579 758 l 714 758 l 288 379 m 307 -72 q 303 -165 310 -125 q 249 -279 288 -244 q 150 -314 211 -314 l 160 -265 q 212 -246 193 -265 q 238 -187 231 -226 l 240 -168 l 181 -168 l 197 -72 l 307 -72 z "},"Ĺ":{"ha":585,"x_min":42,"x_max":578,"o":"m 153 76 l 501 76 l 488 0 l 42 0 l 213 971 l 310 971 l 153 76 m 563 1182 l 249 1017 l 261 1092 l 578 1269 l 563 1182 z "},"ĺ":{"ha":318,"x_min":42,"x_max":454,"o":"m 321 1028 l 139 0 l 42 0 l 224 1028 l 321 1028 m 439 1251 l 125 1086 l 138 1161 l 454 1339 l 439 1251 z "},"Ļ":{"ha":585,"x_min":42,"x_max":501,"o":"m 153 76 l 501 76 l 488 0 l 42 0 l 213 971 l 310 971 l 153 76 m 304 -72 q 306 -100 306 -82 q 300 -165 306 -126 q 248 -279 286 -244 q 147 -314 210 -314 l 157 -265 q 209 -246 190 -265 q 235 -187 228 -226 l 238 -168 l 178 -168 l 194 -72 l 304 -72 z "},"ļ":{"ha":318,"x_min":-28,"x_max":321,"o":"m 321 1028 l 139 0 l 42 0 l 224 1028 l 321 1028 m 128 -72 q 129 -106 129 -83 q 124 -165 129 -142 q 72 -278 110 -243 q -28 -314 33 -314 l -19 -265 q 58 -187 46 -265 l 61 -168 l 1 -168 l 19 -72 l 128 -72 z "},"Ľ":{"ha":599,"x_min":42,"x_max":586,"o":"m 153 76 l 501 76 l 488 0 l 42 0 l 213 971 l 310 971 l 153 76 m 585 971 q 576 853 586 903 q 525 744 563 779 q 425 710 488 710 l 435 760 q 511 832 500 760 l 518 865 l 454 865 l 472 971 l 585 971 z "},"ľ":{"ha":439,"x_min":42,"x_max":528,"o":"m 321 1028 l 139 0 l 42 0 l 224 1028 l 321 1028 m 528 1028 q 519 910 528 960 q 469 801 507 835 q 368 767 431 767 l 376 817 q 429 834 411 817 q 454 888 447 851 l 460 922 l 396 922 l 415 1028 l 528 1028 z "},"Ŀ":{"ha":585,"x_min":42,"x_max":540,"o":"m 213 971 l 310 971 l 153 76 l 501 76 l 488 0 l 42 0 l 213 971 m 461 425 q 422 440 438 425 q 407 476 407 454 q 408 489 407 485 q 435 534 413 515 q 483 553 457 553 q 525 534 510 553 q 536 489 540 515 q 509 444 531 463 q 461 425 488 425 z "},"ŀ":{"ha":385,"x_min":42,"x_max":440,"o":"m 224 1028 l 321 1028 l 139 0 l 42 0 l 224 1028 m 363 447 q 325 463 340 447 q 310 500 310 478 q 333 552 310 529 q 386 575 356 575 q 424 560 408 575 q 440 522 440 544 q 417 469 440 492 q 363 447 393 447 z "},"Ł":{"ha":597,"x_min":14,"x_max":524,"o":"m 524 76 l 508 0 l 63 0 l 142 444 l 14 397 l 31 489 l 157 536 l 235 971 l 332 971 l 263 574 l 447 642 l 431 550 l 246 482 l 175 76 l 524 76 z "},"ł":{"ha":332,"x_min":26,"x_max":372,"o":"m 356 600 l 243 554 l 144 0 l 47 0 l 138 511 l 26 465 l 42 557 l 154 601 l 229 1028 l 326 1028 l 258 643 l 372 689 l 356 600 z "},"Ń":{"ha":953,"x_min":42,"x_max":944,"o":"m 774 0 l 676 0 l 283 817 l 139 0 l 42 0 l 213 971 l 310 971 l 704 156 l 847 971 l 944 971 l 774 0 m 744 1182 l 431 1017 l 443 1092 l 760 1269 l 744 1182 z "},"ń":{"ha":879,"x_min":42,"x_max":792,"o":"m 535 772 q 722 709 651 772 q 792 525 792 646 q 785 444 792 481 l 706 0 l 610 0 l 686 433 q 692 501 692 465 q 642 640 692 593 q 501 688 592 688 q 314 618 392 688 q 213 414 236 549 l 213 418 l 139 0 l 42 0 l 175 758 l 272 758 l 249 628 q 372 735 297 697 q 535 772 447 772 m 663 982 l 349 817 l 361 892 l 678 1069 l 663 982 z "},"Ņ":{"ha":953,"x_min":42,"x_max":944,"o":"m 774 0 l 676 0 l 283 817 l 139 0 l 42 0 l 213 971 l 310 971 l 704 156 l 847 971 l 944 971 l 774 0 m 446 -72 q 447 -106 447 -83 q 442 -165 447 -142 q 390 -278 428 -243 q 290 -314 351 -314 l 300 -265 q 376 -187 364 -265 l 379 -168 l 319 -168 l 338 -72 l 446 -72 z "},"ņ":{"ha":879,"x_min":42,"x_max":792,"o":"m 535 772 q 722 709 651 772 q 792 525 792 646 q 785 444 792 481 l 706 0 l 610 0 l 686 433 q 692 501 692 465 q 642 640 692 593 q 501 688 592 688 q 314 618 392 688 q 213 414 236 549 l 213 418 l 139 0 l 42 0 l 175 758 l 272 758 l 249 628 q 372 735 297 697 q 535 772 447 772 m 414 -72 q 410 -165 417 -125 q 356 -279 394 -244 q 257 -314 318 -314 l 267 -265 q 318 -246 300 -265 q 343 -187 336 -226 l 346 -168 l 288 -168 l 304 -72 l 414 -72 z "},"Ň":{"ha":953,"x_min":42,"x_max":944,"o":"m 774 0 l 676 0 l 283 817 l 139 0 l 42 0 l 213 971 l 310 971 l 704 156 l 847 971 l 944 971 l 774 0 m 797 1156 l 592 1042 l 425 1156 l 440 1235 l 606 1118 l 811 1235 l 797 1156 z "},"ň":{"ha":879,"x_min":42,"x_max":792,"o":"m 535 772 q 722 709 651 772 q 792 525 792 646 q 785 444 792 481 l 706 0 l 610 0 l 686 433 q 692 501 692 465 q 642 640 692 593 q 501 688 592 688 q 314 618 392 688 q 213 414 236 549 l 213 418 l 139 0 l 42 0 l 175 758 l 272 758 l 249 628 q 372 735 297 697 q 535 772 447 772 m 715 956 l 510 842 l 343 956 l 358 1035 l 524 918 l 729 1035 l 715 956 z "},"Ō":{"ha":1094,"x_min":78,"x_max":1049,"o":"m 479 -10 q 269 40 360 -10 q 128 181 178 90 q 78 389 78 272 q 153 688 78 551 q 358 903 228 824 q 649 982 489 982 q 859 932 768 982 q 999 791 950 882 q 1049 582 1049 700 q 974 284 1049 419 q 769 69 900 149 q 479 -10 639 -10 m 493 78 q 728 146 624 78 q 890 328 832 214 q 949 576 949 443 q 863 808 949 724 q 633 893 778 893 q 399 825 503 893 q 238 642 296 757 q 179 396 179 528 q 265 163 179 249 q 493 78 350 78 m 925 1178 l 913 1103 l 440 1103 l 454 1178 l 925 1178 z "},"ō":{"ha":892,"x_min":57,"x_max":829,"o":"m 375 -11 q 208 27 281 -11 q 97 135 136 65 q 57 300 57 206 q 115 535 57 428 q 278 706 174 643 q 510 769 382 769 q 676 731 604 769 q 789 623 749 693 q 829 458 829 553 q 769 222 829 329 q 606 52 710 115 q 375 -11 503 -11 m 386 71 q 563 124 485 71 q 685 264 642 176 q 729 453 729 351 q 663 626 729 567 q 496 686 597 686 q 320 633 397 686 q 200 493 243 581 q 157 304 157 406 q 222 131 157 192 q 386 71 288 71 m 783 983 l 771 908 l 299 908 l 313 983 l 783 983 z "},"Ŏ":{"ha":1094,"x_min":78,"x_max":1049,"o":"m 479 -10 q 269 40 360 -10 q 128 181 178 90 q 78 389 78 272 q 153 688 78 551 q 358 903 228 824 q 649 982 489 982 q 859 932 768 982 q 999 791 950 882 q 1049 582 1049 700 q 974 284 1049 419 q 769 69 900 149 q 479 -10 639 -10 m 493 78 q 728 146 624 78 q 890 328 832 214 q 949 576 949 443 q 863 808 949 724 q 633 893 778 893 q 399 825 503 893 q 238 642 296 757 q 179 396 179 528 q 265 163 179 249 q 493 78 350 78 m 886 1225 q 815 1103 872 1151 q 668 1056 758 1056 q 549 1094 590 1056 q 508 1193 508 1132 q 511 1226 508 1204 l 514 1244 l 575 1244 q 572 1217 572 1225 q 682 1133 572 1133 q 828 1244 808 1133 l 890 1244 l 886 1225 z "},"ŏ":{"ha":892,"x_min":57,"x_max":829,"o":"m 375 -11 q 208 27 281 -11 q 97 135 136 65 q 57 300 57 206 q 115 535 57 428 q 278 706 174 643 q 510 769 382 769 q 676 731 604 769 q 789 623 749 693 q 829 458 829 553 q 769 222 829 329 q 606 52 710 115 q 375 -11 503 -11 m 386 71 q 563 124 485 71 q 685 264 642 176 q 729 453 729 351 q 663 626 729 567 q 496 686 597 686 q 320 633 397 686 q 200 493 243 581 q 157 304 157 406 q 222 131 157 192 q 386 71 288 71 m 744 1031 q 674 909 731 957 q 526 861 617 861 q 408 899 449 861 q 367 999 367 938 q 369 1032 367 1010 l 372 1050 l 433 1050 q 431 1022 431 1031 q 540 939 431 939 q 686 1050 667 939 l 749 1050 l 744 1031 z "},"Ő":{"ha":1094,"x_min":78,"x_max":1049,"o":"m 479 -10 q 269 40 360 -10 q 128 181 178 90 q 78 389 78 272 q 153 688 78 551 q 358 903 228 824 q 649 982 489 982 q 859 932 768 982 q 999 791 950 882 q 1049 582 1049 700 q 974 284 1049 419 q 769 69 900 149 q 479 -10 639 -10 m 493 78 q 728 146 624 78 q 890 328 832 214 q 949 576 949 443 q 863 808 949 724 q 633 893 778 893 q 399 825 503 893 q 238 642 296 757 q 179 396 179 528 q 265 163 179 249 q 493 78 350 78 m 592 1040 l 524 1040 l 649 1233 l 736 1233 l 592 1040 m 785 1040 l 717 1040 l 856 1233 l 943 1233 l 785 1040 z "},"ő":{"ha":892,"x_min":57,"x_max":829,"o":"m 375 -11 q 208 27 281 -11 q 97 135 136 65 q 57 300 57 206 q 115 535 57 428 q 278 706 174 643 q 510 769 382 769 q 676 731 604 769 q 789 623 749 693 q 829 458 829 553 q 769 222 829 329 q 606 52 710 115 q 375 -11 503 -11 m 386 71 q 563 124 485 71 q 685 264 642 176 q 729 453 729 351 q 663 626 729 567 q 496 686 597 686 q 320 633 397 686 q 200 493 243 581 q 157 304 157 406 q 222 131 157 192 q 386 71 288 71 m 450 846 l 382 846 l 507 1039 l 594 1039 l 450 846 m 643 846 l 575 846 l 714 1039 l 801 1039 l 643 846 z "},"Œ":{"ha":1518,"x_min":75,"x_max":1540,"o":"m 1051 526 l 1419 526 l 1406 450 l 1038 450 l 972 78 l 1383 78 l 1368 0 l 861 0 l 904 238 q 721 56 836 121 q 472 -10 606 -10 q 265 40 356 -10 q 125 179 175 89 q 75 386 75 269 q 85 486 75 425 q 192 742 110 629 q 395 919 275 856 q 646 982 515 982 q 872 917 779 982 q 992 736 964 851 l 1033 971 l 1540 971 l 1526 893 l 1115 893 l 1051 526 m 185 486 q 176 397 176 439 q 216 228 176 300 q 327 117 256 156 q 493 78 399 78 q 697 128 601 78 q 859 271 793 178 q 946 486 925 364 q 954 578 954 535 q 915 746 954 675 q 803 855 875 817 q 638 893 731 893 q 434 843 529 893 q 273 701 339 793 q 185 486 207 610 z "},"œ":{"ha":1522,"x_min":56,"x_max":1467,"o":"m 1164 769 q 1328 733 1260 769 q 1431 632 1396 696 q 1467 486 1467 568 q 1461 419 1467 449 q 1442 344 1453 374 l 817 344 q 813 293 813 318 q 875 129 813 188 q 1036 71 938 71 q 1205 117 1132 71 q 1311 240 1278 163 l 1415 240 q 1264 59 1368 129 q 1022 -11 1160 -11 q 835 44 910 -11 q 739 200 761 100 q 582 44 679 100 q 372 -11 485 -11 q 142 71 229 -11 q 56 293 56 153 q 64 379 56 333 q 151 585 85 497 q 311 722 217 674 q 513 769 406 769 q 701 715 625 769 q 803 560 778 660 q 955 715 860 660 q 1164 769 1050 769 m 722 379 q 729 453 729 424 q 663 626 729 567 q 496 686 597 686 q 352 652 422 686 q 231 549 282 618 q 164 379 181 479 q 157 304 157 335 q 222 131 157 192 q 386 71 286 71 q 531 106 461 71 q 653 210 601 140 q 722 379 706 279 m 1361 414 q 1368 481 1368 453 q 1306 633 1368 579 q 1146 686 1243 686 q 946 615 1035 686 q 828 414 857 544 l 1361 414 z "},"Ŕ":{"ha":815,"x_min":42,"x_max":792,"o":"m 506 971 q 720 910 649 971 q 792 746 792 849 q 786 689 792 728 q 694 509 768 583 q 499 413 621 435 l 675 0 l 558 0 l 390 406 l 210 406 l 139 0 l 42 0 l 213 971 l 506 971 m 685 689 q 689 739 689 717 q 640 853 689 813 q 490 893 592 893 l 296 893 l 224 483 l 419 483 q 601 539 535 483 q 685 689 668 594 m 693 1182 l 379 1017 l 392 1092 l 708 1269 l 693 1182 z "},"ŕ":{"ha":503,"x_min":42,"x_max":556,"o":"m 246 607 q 365 729 292 686 q 536 772 439 772 l 518 671 l 490 671 q 318 619 390 671 q 218 450 246 568 l 139 0 l 42 0 l 175 758 l 272 758 l 246 607 m 540 982 l 226 817 l 239 892 l 556 1069 l 540 982 z "},"Ŗ":{"ha":815,"x_min":42,"x_max":792,"o":"m 506 971 q 720 910 649 971 q 792 746 792 849 q 786 689 792 728 q 694 509 768 583 q 499 413 621 435 l 675 0 l 558 0 l 390 406 l 210 406 l 139 0 l 42 0 l 213 971 l 506 971 m 685 689 q 689 739 689 717 q 640 853 689 813 q 490 893 592 893 l 296 893 l 224 483 l 419 483 q 601 539 535 483 q 685 689 668 594 m 375 -72 q 369 -165 376 -118 q 317 -278 356 -243 q 218 -314 279 -314 l 228 -265 q 278 -246 260 -265 q 304 -187 297 -226 l 307 -168 l 249 -168 l 265 -72 l 375 -72 z "},"ŗ":{"ha":503,"x_min":-28,"x_max":536,"o":"m 246 607 q 365 729 292 686 q 536 772 439 772 l 518 671 l 490 671 q 318 619 390 671 q 218 450 246 568 l 139 0 l 42 0 l 175 758 l 272 758 l 246 607 m 128 -72 q 129 -100 129 -82 q 124 -165 129 -126 q 72 -278 110 -243 q -28 -314 33 -314 l -19 -265 q 33 -246 14 -265 q 58 -187 51 -226 l 61 -168 l 1 -168 l 18 -72 l 128 -72 z "},"Ř":{"ha":815,"x_min":42,"x_max":792,"o":"m 506 971 q 720 910 649 971 q 792 746 792 849 q 786 689 792 728 q 694 509 768 583 q 499 413 621 435 l 675 0 l 558 0 l 390 406 l 210 406 l 139 0 l 42 0 l 213 971 l 506 971 m 685 689 q 689 739 689 717 q 640 853 689 813 q 490 893 592 893 l 296 893 l 224 483 l 419 483 q 601 539 535 483 q 685 689 668 594 m 746 1156 l 540 1042 l 374 1156 l 389 1235 l 554 1118 l 760 1235 l 746 1156 z "},"ř":{"ha":503,"x_min":42,"x_max":607,"o":"m 246 607 q 365 729 292 686 q 536 772 439 772 l 518 671 l 490 671 q 318 619 390 671 q 218 450 246 568 l 139 0 l 42 0 l 175 758 l 272 758 l 246 607 m 593 956 l 388 842 l 221 956 l 236 1035 l 401 918 l 607 1035 l 593 956 z "},"Ś":{"ha":786,"x_min":60,"x_max":742,"o":"m 351 -10 q 198 19 264 -10 q 96 101 132 49 q 60 222 60 154 q 61 250 60 240 l 157 250 q 173 165 154 206 q 238 97 192 124 q 358 69 285 69 q 522 121 461 69 q 583 260 583 172 q 555 348 583 313 q 485 406 526 383 q 371 458 443 429 q 236 520 286 492 q 153 599 186 549 q 126 726 121 649 q 172 859 129 801 q 287 949 214 917 q 453 982 360 982 q 610 951 544 982 q 709 865 676 919 q 738 746 742 811 l 636 746 q 619 819 639 783 q 555 878 599 856 q 447 901 511 901 q 286 853 349 901 q 224 724 224 806 q 251 642 224 675 q 319 586 279 608 q 431 535 360 564 q 563 472 513 501 q 649 394 614 443 q 685 272 685 346 q 683 244 685 254 q 636 115 678 174 q 522 24 594 57 q 351 -10 449 -10 m 665 1182 l 351 1017 l 364 1092 l 681 1269 l 665 1182 z "},"ś":{"ha":708,"x_min":35,"x_max":638,"o":"m 294 -11 q 107 42 179 -11 q 35 189 35 96 q 36 214 35 206 l 131 214 q 169 107 125 147 q 300 67 214 67 q 440 103 388 67 q 493 201 493 140 q 471 263 493 238 q 416 303 449 288 q 325 340 383 319 q 209 390 253 367 q 134 453 165 413 q 103 557 103 494 q 139 668 103 619 q 238 743 175 717 q 382 769 301 769 q 566 714 494 769 q 638 567 638 658 q 636 538 638 547 l 544 538 q 546 556 546 543 q 498 654 546 617 q 375 692 450 692 q 251 656 300 692 q 201 561 201 621 q 225 494 201 521 q 283 450 249 467 q 376 411 318 433 q 488 363 446 385 q 560 301 531 340 q 589 204 589 263 q 507 47 589 106 q 294 -11 425 -11 m 588 982 l 274 817 l 286 892 l 603 1069 l 588 982 z "},"Ş":{"ha":786,"x_min":60,"x_max":742,"o":"m 636 746 q 619 819 639 783 q 555 878 599 856 q 447 901 511 901 q 286 853 349 901 q 224 724 224 806 q 251 642 224 675 q 319 586 279 608 q 431 535 360 564 q 563 472 513 501 q 649 394 614 443 q 685 272 685 346 q 683 244 685 254 q 638 118 678 175 q 528 27 599 61 q 365 -10 458 -7 l 350 -93 q 467 -118 425 -90 q 508 -197 508 -146 q 506 -222 508 -206 q 444 -322 494 -285 q 319 -358 393 -358 l 181 -358 l 192 -293 l 311 -293 q 422 -222 413 -293 q 424 -207 424 -217 q 336 -156 424 -156 l 271 -156 l 297 -7 q 124 68 188 7 q 60 221 60 129 q 61 250 60 240 l 157 250 q 173 165 154 206 q 238 97 192 124 q 358 69 285 69 q 522 121 461 69 q 583 260 583 172 q 555 348 583 313 q 485 406 526 383 q 371 458 443 429 q 236 520 286 492 q 153 599 186 549 q 126 726 121 649 q 172 859 129 801 q 287 949 214 917 q 453 982 360 982 q 610 951 544 982 q 709 865 676 919 q 738 746 742 811 l 636 746 z "},"ş":{"ha":708,"x_min":35,"x_max":638,"o":"m 544 538 q 546 556 546 543 q 498 654 546 617 q 375 692 450 692 q 251 656 300 692 q 201 561 201 621 q 225 494 201 521 q 283 450 249 467 q 376 411 318 433 q 488 363 446 385 q 560 301 531 340 q 589 204 589 263 q 515 55 589 113 q 324 -10 442 -3 l 308 -93 q 425 -118 383 -90 q 467 -197 467 -146 q 464 -222 467 -206 q 402 -322 453 -285 q 278 -358 351 -358 l 139 -358 l 150 -293 l 269 -293 q 381 -222 371 -293 q 382 -207 382 -217 q 294 -156 382 -156 l 229 -156 l 256 -10 q 96 51 157 -1 q 35 189 35 104 q 36 214 35 206 l 131 214 q 169 107 125 147 q 300 67 214 67 q 440 103 388 67 q 493 201 493 140 q 471 263 493 238 q 416 303 449 288 q 325 340 383 319 q 209 390 253 367 q 134 453 165 413 q 103 557 103 494 q 139 668 103 619 q 238 743 175 717 q 382 769 301 769 q 566 714 494 769 q 638 567 638 658 q 636 538 638 547 l 544 538 z "},"Š":{"ha":786,"x_min":60,"x_max":742,"o":"m 351 -10 q 198 19 264 -10 q 96 101 132 49 q 60 222 60 154 q 61 250 60 240 l 157 250 q 173 165 154 206 q 238 97 192 124 q 358 69 285 69 q 522 121 461 69 q 583 260 583 172 q 555 348 583 313 q 485 406 526 383 q 371 458 443 429 q 236 520 286 492 q 153 599 186 549 q 126 726 121 649 q 172 859 129 801 q 287 949 214 917 q 453 982 360 982 q 610 951 544 982 q 709 865 676 919 q 738 746 742 811 l 636 746 q 619 819 639 783 q 555 878 599 856 q 447 901 511 901 q 286 853 349 901 q 224 724 224 806 q 251 642 224 675 q 319 586 279 608 q 431 535 360 564 q 563 472 513 501 q 649 394 614 443 q 685 272 685 346 q 683 244 685 254 q 636 115 678 174 q 522 24 594 57 q 351 -10 449 -10 m 718 1156 l 513 1042 l 346 1156 l 361 1235 l 526 1118 l 732 1235 l 718 1156 z "},"š":{"ha":708,"x_min":35,"x_max":654,"o":"m 294 -11 q 107 42 179 -11 q 35 189 35 96 q 36 214 35 206 l 131 214 q 169 107 125 147 q 300 67 214 67 q 440 103 388 67 q 493 201 493 140 q 471 263 493 238 q 416 303 449 288 q 325 340 383 319 q 209 390 253 367 q 134 453 165 413 q 103 557 103 494 q 139 668 103 619 q 238 743 175 717 q 382 769 301 769 q 566 714 494 769 q 638 567 638 658 q 636 538 638 547 l 544 538 q 546 556 546 543 q 498 654 546 617 q 375 692 450 692 q 251 656 300 692 q 201 561 201 621 q 225 494 201 521 q 283 450 249 467 q 376 411 318 433 q 488 363 446 385 q 560 301 531 340 q 589 204 589 263 q 507 47 589 106 q 294 -11 425 -11 m 640 956 l 435 842 l 268 956 l 283 1035 l 449 918 l 654 1035 l 640 956 z "},"Ţ":{"ha":722,"x_min":131,"x_max":782,"o":"m 782 971 l 768 893 l 497 893 l 340 0 l 329 0 l 311 -93 q 428 -118 386 -90 q 469 -197 469 -146 q 467 -222 469 -206 q 405 -322 456 -285 q 281 -358 354 -358 l 142 -358 l 153 -293 l 272 -293 q 383 -222 374 -293 q 385 -207 385 -217 q 297 -156 385 -156 l 232 -156 l 260 0 l 243 0 l 400 893 l 131 893 l 144 971 l 782 971 z "},"ţ":{"ha":494,"x_min":58,"x_max":511,"o":"m 203 206 q 199 163 199 181 q 223 101 199 118 q 303 83 247 83 l 392 83 l 376 0 l 272 0 q 244 1 253 0 l 228 -93 q 344 -118 303 -90 q 386 -197 386 -146 q 383 -222 386 -206 q 321 -322 372 -285 q 196 -358 269 -358 l 58 -358 l 69 -293 l 189 -293 q 267 -276 240 -293 q 300 -222 293 -258 q 301 -207 301 -217 q 214 -156 301 -156 l 149 -156 l 179 14 q 100 142 100 42 q 106 206 100 174 l 189 676 l 83 676 l 99 758 l 204 758 l 238 949 l 335 949 l 301 758 l 511 758 l 496 676 l 286 676 l 203 206 z "},"Ť":{"ha":722,"x_min":131,"x_max":782,"o":"m 782 971 l 768 893 l 497 893 l 340 0 l 243 0 l 400 893 l 131 893 l 144 971 l 782 971 m 682 1156 l 476 1042 l 310 1156 l 325 1235 l 490 1118 l 696 1235 l 682 1156 z "},"ť":{"ha":499,"x_min":83,"x_max":569,"o":"m 569 1060 q 563 949 569 992 q 513 851 550 881 q 413 821 475 821 l 421 871 q 496 924 488 871 l 501 954 l 438 954 l 457 1060 l 569 1060 m 301 758 l 511 758 l 496 676 l 286 676 l 203 206 q 199 163 199 181 q 223 101 199 118 q 303 83 247 83 l 392 83 l 376 0 l 272 0 q 143 33 186 0 q 100 143 100 67 q 106 206 100 174 l 189 676 l 83 676 l 99 758 l 204 758 l 238 949 l 335 949 l 301 758 z "},"Ũ":{"ha":918,"x_min":93,"x_max":915,"o":"m 307 971 l 199 361 q 190 281 190 318 q 247 127 190 176 q 406 78 304 78 q 603 147 524 78 q 710 361 683 217 l 818 971 l 915 971 l 807 361 q 660 84 775 178 q 389 -10 546 -10 q 174 60 254 -10 q 93 267 93 129 q 101 361 93 311 l 210 971 l 307 971 m 390 1042 q 448 1138 410 1104 q 536 1171 486 1171 q 577 1163 561 1171 q 615 1136 593 1154 q 647 1113 633 1121 q 681 1106 661 1106 q 724 1122 704 1106 q 751 1168 743 1138 l 811 1168 q 753 1073 793 1107 q 664 1039 714 1039 q 620 1048 638 1039 q 582 1075 603 1057 q 551 1097 565 1089 q 519 1104 538 1104 q 450 1042 468 1104 l 390 1042 z "},"ũ":{"ha":879,"x_min":83,"x_max":832,"o":"m 832 758 l 699 0 l 601 0 l 625 133 q 503 25 578 63 q 342 -12 428 -12 q 154 51 225 -12 q 83 235 83 114 q 90 315 83 279 l 168 758 l 264 758 l 188 326 q 182 260 182 294 q 233 120 182 168 q 374 72 283 72 q 556 137 479 72 q 658 326 632 201 l 735 758 l 832 758 m 336 842 q 394 938 356 904 q 482 971 432 971 q 523 963 507 971 q 561 936 539 954 q 593 913 579 921 q 626 906 607 906 q 669 922 650 906 q 697 968 689 938 l 757 968 q 699 873 739 907 q 610 839 660 839 q 566 848 583 839 q 528 875 549 857 q 497 897 511 889 q 465 904 483 904 q 396 842 414 904 l 336 842 z "},"Ū":{"ha":918,"x_min":93,"x_max":915,"o":"m 307 971 l 199 361 q 190 281 190 318 q 247 127 190 176 q 406 78 304 78 q 603 147 524 78 q 710 361 683 217 l 818 971 l 915 971 l 807 361 q 660 84 775 178 q 389 -10 546 -10 q 174 60 254 -10 q 93 267 93 129 q 101 361 93 311 l 210 971 l 307 971 m 832 1172 l 819 1097 l 347 1097 l 361 1172 l 832 1172 z "},"ū":{"ha":879,"x_min":83,"x_max":832,"o":"m 832 758 l 699 0 l 601 0 l 625 133 q 503 25 578 63 q 342 -12 428 -12 q 154 51 225 -12 q 83 235 83 114 q 90 315 83 279 l 168 758 l 264 758 l 188 326 q 182 260 182 294 q 233 120 182 168 q 374 72 283 72 q 556 137 479 72 q 658 326 632 201 l 735 758 l 832 758 m 778 972 l 765 897 l 293 897 l 307 972 l 778 972 z "},"Ŭ":{"ha":918,"x_min":93,"x_max":915,"o":"m 307 971 l 199 361 q 190 281 190 318 q 247 127 190 176 q 406 78 304 78 q 603 147 524 78 q 710 361 683 217 l 818 971 l 915 971 l 807 361 q 660 84 775 178 q 389 -10 546 -10 q 174 60 254 -10 q 93 267 93 129 q 101 361 93 311 l 210 971 l 307 971 m 793 1219 q 722 1098 779 1146 q 575 1050 665 1050 q 456 1088 497 1050 q 415 1188 415 1126 q 418 1221 415 1199 l 421 1239 l 482 1239 q 479 1211 479 1219 q 589 1128 479 1128 q 735 1239 715 1128 l 797 1239 l 793 1219 z "},"ŭ":{"ha":879,"x_min":83,"x_max":832,"o":"m 832 758 l 699 0 l 601 0 l 625 133 q 503 25 578 63 q 342 -12 428 -12 q 154 51 225 -12 q 83 235 83 114 q 90 315 83 279 l 168 758 l 264 758 l 188 326 q 182 260 182 294 q 233 120 182 168 q 374 72 283 72 q 556 137 479 72 q 658 326 632 201 l 735 758 l 832 758 m 739 1019 q 668 898 725 946 q 521 850 611 850 q 402 888 443 850 q 361 988 361 926 q 364 1021 361 999 l 367 1039 l 428 1039 q 425 1011 425 1019 q 535 928 425 928 q 681 1039 661 928 l 743 1039 l 739 1019 z "},"Ů":{"ha":918,"x_min":93,"x_max":915,"o":"m 307 971 l 199 361 q 190 281 190 318 q 247 127 190 176 q 406 78 304 78 q 603 147 524 78 q 710 361 683 217 l 818 971 l 915 971 l 807 361 q 660 84 775 178 q 389 -10 546 -10 q 174 60 254 -10 q 93 267 93 129 q 101 361 93 311 l 210 971 l 307 971 m 460 1186 q 519 1287 472 1249 q 625 1325 567 1325 q 709 1295 676 1325 q 742 1215 742 1265 q 718 1127 742 1165 q 656 1068 694 1089 q 575 1047 618 1047 q 490 1077 524 1047 q 457 1158 457 1107 q 460 1186 457 1167 m 685 1204 q 665 1253 685 1235 q 614 1271 646 1271 q 551 1248 578 1271 q 517 1186 524 1225 q 515 1168 515 1179 q 534 1119 515 1138 q 585 1101 553 1101 q 655 1131 625 1101 q 685 1204 685 1160 z "},"ů":{"ha":879,"x_min":83,"x_max":832,"o":"m 832 758 l 699 0 l 601 0 l 625 133 q 503 25 578 63 q 342 -12 428 -12 q 154 51 225 -12 q 83 235 83 114 q 90 315 83 279 l 168 758 l 264 758 l 188 326 q 182 260 182 294 q 233 120 182 168 q 374 72 283 72 q 556 137 479 72 q 658 326 632 201 l 735 758 l 832 758 m 406 986 q 465 1087 418 1049 q 571 1125 513 1125 q 655 1095 622 1125 q 688 1015 688 1065 q 664 927 688 965 q 602 868 640 889 q 521 847 564 847 q 436 877 469 847 q 403 958 403 907 q 406 986 403 967 m 631 1004 q 611 1053 631 1035 q 560 1071 592 1071 q 497 1048 524 1071 q 463 986 469 1025 q 461 968 461 979 q 480 919 461 938 q 531 901 499 901 q 601 931 571 901 q 631 1004 631 960 z "},"Ű":{"ha":918,"x_min":93,"x_max":915,"o":"m 307 971 l 199 361 q 190 281 190 318 q 247 127 190 176 q 406 78 304 78 q 603 147 524 78 q 710 361 683 217 l 818 971 l 915 971 l 807 361 q 660 84 775 178 q 389 -10 546 -10 q 174 60 254 -10 q 93 267 93 129 q 101 361 93 311 l 210 971 l 307 971 m 499 1035 l 431 1035 l 556 1228 l 643 1228 l 499 1035 m 692 1035 l 624 1035 l 763 1228 l 850 1228 l 692 1035 z "},"ű":{"ha":879,"x_min":83,"x_max":832,"o":"m 832 758 l 699 0 l 601 0 l 625 133 q 503 25 578 63 q 342 -12 428 -12 q 154 51 225 -12 q 83 235 83 114 q 90 315 83 279 l 168 758 l 264 758 l 188 326 q 182 260 182 294 q 233 120 182 168 q 374 72 283 72 q 556 137 479 72 q 658 326 632 201 l 735 758 l 832 758 m 444 835 l 376 835 l 501 1028 l 589 1028 l 444 835 m 638 835 l 569 835 l 708 1028 l 796 1028 l 638 835 z "},"Ų":{"ha":918,"x_min":92,"x_max":915,"o":"m 915 971 l 807 361 q 694 116 781 207 q 483 0 607 25 l 396 -40 q 313 -94 338 -67 q 288 -156 288 -122 q 308 -198 288 -183 q 363 -212 328 -212 q 456 -193 404 -212 l 443 -261 q 339 -279 392 -279 q 242 -254 281 -279 q 203 -178 203 -229 q 331 -6 203 -78 q 156 77 221 8 q 92 267 92 146 q 101 361 92 303 l 210 971 l 307 971 l 199 361 q 190 281 190 318 q 247 127 190 176 q 406 78 304 78 q 603 147 524 78 q 710 361 683 217 l 818 971 l 915 971 z "},"ų":{"ha":879,"x_min":83,"x_max":832,"o":"m 699 0 l 699 -1 l 610 -42 q 526 -96 551 -68 q 501 -157 501 -124 q 522 -199 501 -185 q 576 -214 542 -214 q 669 -194 618 -214 l 657 -262 q 553 -281 606 -281 q 456 -256 494 -281 q 417 -179 417 -231 q 599 18 417 -58 l 606 21 l 625 133 q 503 25 578 63 q 342 -12 428 -12 q 154 51 225 -12 q 83 235 83 114 q 90 315 83 279 l 168 758 l 264 758 l 188 326 q 182 260 182 294 q 233 120 182 168 q 374 72 283 72 q 556 137 479 72 q 658 326 632 201 l 735 758 l 832 758 l 699 0 z "},"Ŵ":{"ha":1326,"x_min":139,"x_max":1392,"o":"m 1392 971 l 944 0 l 836 0 l 739 825 l 343 0 l 236 -1 l 139 971 l 244 971 l 315 125 l 714 971 l 824 971 l 914 122 l 1286 971 l 1392 971 m 760 1178 l 553 1061 l 567 1140 l 774 1254 l 939 1140 l 925 1061 l 760 1178 z "},"ŵ":{"ha":1132,"x_min":85,"x_max":1175,"o":"m 1175 758 l 804 0 l 707 0 l 610 635 l 286 0 l 189 0 l 85 758 l 185 758 l 258 103 l 585 758 l 683 758 l 776 101 l 1079 758 l 1175 758 m 667 960 l 460 843 l 474 922 l 681 1036 l 846 922 l 832 843 l 667 960 z "},"Ŷ":{"ha":783,"x_min":133,"x_max":856,"o":"m 856 971 l 439 378 l 372 0 l 275 0 l 342 378 l 133 971 l 243 971 l 406 467 l 746 971 l 856 971 m 528 1160 l 321 1043 l 335 1122 l 542 1236 l 707 1122 l 693 1043 l 528 1160 z "},"ŷ":{"ha":757,"x_min":51,"x_max":800,"o":"m 193 758 l 336 115 l 699 758 l 800 758 l 154 -357 l 51 -357 l 263 6 l 85 758 l 193 758 m 479 960 l 272 843 l 286 922 l 493 1036 l 658 922 l 644 843 l 479 960 z "},"Ÿ":{"ha":783,"x_min":133,"x_max":856,"o":"m 856 971 l 439 378 l 372 0 l 275 0 l 342 378 l 133 971 l 243 971 l 406 467 l 746 971 l 856 971 m 406 1065 q 367 1081 382 1065 q 353 1118 353 1096 q 375 1171 353 1149 q 428 1193 397 1193 q 466 1178 451 1193 q 481 1140 481 1164 q 458 1088 481 1110 q 406 1065 435 1065 m 619 1065 q 581 1081 596 1065 q 567 1118 567 1096 q 590 1171 567 1149 q 643 1193 613 1193 q 680 1178 665 1193 q 694 1142 694 1164 q 672 1088 694 1111 q 619 1065 649 1065 z "},"Ź":{"ha":729,"x_min":-10,"x_max":765,"o":"m 119 86 l 615 86 l 600 0 l -10 0 l 4 78 l 635 885 l 154 885 l 171 971 l 765 971 l 751 893 l 119 86 m 633 1182 l 319 1017 l 332 1092 l 649 1269 l 633 1182 z "},"ź":{"ha":613,"x_min":-18,"x_max":618,"o":"m 108 81 l 506 81 l 490 0 l -18 0 l -3 81 l 492 678 l 108 678 l 124 758 l 618 758 l 603 678 l 108 81 m 540 982 l 226 817 l 239 892 l 556 1069 l 540 982 z "},"Ż":{"ha":729,"x_min":-10,"x_max":765,"o":"m 119 86 l 615 86 l 600 0 l -10 0 l 4 78 l 635 885 l 154 885 l 171 971 l 765 971 l 751 893 l 119 86 m 482 1051 q 440 1070 456 1051 q 428 1115 424 1089 q 456 1160 433 1142 q 504 1179 478 1179 q 542 1165 526 1179 q 557 1128 557 1150 q 556 1115 557 1119 q 530 1070 551 1089 q 482 1051 508 1051 z "},"ż":{"ha":613,"x_min":-18,"x_max":618,"o":"m 108 81 l 506 81 l 490 0 l -18 0 l -3 81 l 492 678 l 108 678 l 124 758 l 618 758 l 603 678 l 108 81 m 389 851 q 347 870 363 851 q 335 915 331 889 q 363 960 340 942 q 411 979 385 979 q 449 965 433 979 q 464 928 464 950 q 463 915 464 919 q 437 870 458 889 q 389 851 415 851 z "},"Ž":{"ha":729,"x_min":-10,"x_max":765,"o":"m 119 86 l 615 86 l 600 0 l -10 0 l 4 78 l 635 885 l 154 885 l 171 971 l 765 971 l 751 893 l 119 86 m 685 1156 l 479 1042 l 313 1156 l 328 1235 l 493 1118 l 699 1235 l 685 1156 z "},"ž":{"ha":613,"x_min":-18,"x_max":618,"o":"m 108 81 l 506 81 l 490 0 l -18 0 l -3 81 l 492 678 l 108 678 l 124 758 l 618 758 l 603 678 l 108 81 m 592 956 l 386 842 l 219 956 l 235 1035 l 400 918 l 606 1035 l 592 956 z "},"Ə":{"ha":1044,"x_min":67,"x_max":1004,"o":"m 618 982 q 821 933 733 982 q 956 796 908 883 q 1004 596 1004 708 q 933 293 1004 432 q 733 72 861 154 q 442 -10 604 -10 q 247 33 332 -10 q 114 158 161 76 q 67 349 67 239 q 93 522 67 429 l 892 522 l 896 550 q 897 590 897 564 q 817 811 897 729 q 603 893 736 893 q 382 831 482 893 q 232 661 282 769 l 119 661 q 319 895 186 808 q 618 982 453 982 m 454 78 q 648 124 558 78 q 798 250 738 169 q 879 432 858 331 l 175 432 q 167 347 167 389 q 244 149 167 221 q 454 78 321 78 z "},"ƒ":{"ha":461,"x_min":-171,"x_max":575,"o":"m 553 978 q 416 943 465 978 q 346 832 367 908 l 325 758 l 501 758 l 479 678 l 303 678 l 92 -69 q 11 -206 65 -162 q -135 -249 -43 -249 l -171 -249 l -147 -168 l -118 -168 q -48 -147 -74 -168 q -6 -69 -22 -125 l 206 678 l 100 678 l 122 758 l 228 758 l 249 832 q 362 1005 282 950 q 575 1060 442 1060 l 553 978 z "},"Ǽ":{"ha":1225,"x_min":-54,"x_max":1246,"o":"m 822 894 l 757 528 l 1125 528 l 1113 450 l 744 450 l 679 78 l 1088 78 l 1074 0 l 567 0 l 608 231 l 228 231 l 53 0 l -54 0 l 682 972 l 1246 972 l 1232 894 l 822 894 m 725 889 l 286 308 l 622 308 l 725 889 m 1010 1197 l 696 1032 l 708 1107 l 1025 1285 l 1010 1197 z "},"ǽ":{"ha":1542,"x_min":56,"x_max":1483,"o":"m 1188 769 q 1349 733 1282 769 q 1449 632 1415 696 q 1483 488 1483 568 q 1478 419 1483 451 q 1458 344 1469 374 l 819 344 q 817 301 817 314 q 849 174 817 226 q 933 97 881 122 q 1049 71 986 71 q 1223 117 1149 71 q 1331 240 1297 163 l 1435 240 q 1286 59 1388 129 q 1050 -11 1185 -11 q 874 38 947 -11 q 783 175 801 88 l 751 0 l 660 0 l 692 175 q 551 40 639 92 q 358 -11 464 -11 q 138 72 221 -11 q 56 294 56 154 q 64 381 56 335 q 147 585 85 497 q 302 722 210 674 q 500 769 394 769 q 672 721 604 769 q 764 588 739 672 l 794 758 l 886 758 l 856 586 q 1000 724 914 678 q 1188 769 1086 769 m 1379 417 q 1386 481 1386 456 q 1322 633 1386 579 q 1158 686 1258 686 q 1019 655 1086 686 q 901 563 951 624 q 832 417 851 501 l 1379 417 m 726 379 q 733 449 733 418 q 668 621 733 557 q 499 685 603 685 q 348 649 418 685 q 229 544 278 613 q 164 381 181 475 q 157 310 157 339 q 222 137 157 200 q 390 74 286 74 q 540 111 468 74 q 660 218 611 149 q 726 379 710 288 m 1118 982 l 804 817 l 817 892 l 1133 1069 l 1118 982 z "},"Ș":{"ha":794,"x_min":60,"x_max":742,"o":"m 351 -10 q 198 19 264 -10 q 96 101 132 49 q 60 222 60 154 q 61 250 60 240 l 157 250 q 173 165 154 206 q 238 97 192 124 q 358 69 285 69 q 522 121 461 69 q 583 260 583 172 q 555 348 583 313 q 485 406 526 383 q 371 458 443 429 q 236 520 286 492 q 153 599 186 549 q 126 726 121 649 q 172 859 129 801 q 287 949 214 917 q 453 982 360 982 q 610 951 544 982 q 709 865 676 919 q 738 746 742 811 l 636 746 q 619 819 639 783 q 555 878 599 856 q 447 901 511 901 q 286 853 349 901 q 224 724 224 806 q 251 642 224 675 q 319 586 279 608 q 431 535 360 564 q 563 472 513 501 q 649 394 614 443 q 685 272 685 346 q 683 244 685 254 q 636 115 678 174 q 522 24 594 57 q 351 -10 449 -10 m 383 -72 q 385 -106 385 -83 q 379 -165 385 -142 q 327 -279 365 -244 q 228 -314 289 -314 l 236 -265 q 314 -187 301 -265 l 317 -168 l 258 -168 l 275 -72 l 383 -72 z "},"ș":{"ha":708,"x_min":35,"x_max":638,"o":"m 294 -11 q 107 42 179 -11 q 35 189 35 96 q 36 214 35 206 l 131 214 q 169 107 125 147 q 300 67 214 67 q 440 103 388 67 q 493 201 493 140 q 471 263 493 238 q 416 303 449 288 q 325 340 383 319 q 209 390 253 367 q 134 453 165 413 q 103 557 103 494 q 139 668 103 619 q 238 743 175 717 q 382 769 301 769 q 566 714 494 769 q 638 567 638 658 q 636 538 638 547 l 544 538 q 546 556 546 543 q 498 654 546 617 q 375 692 450 692 q 251 656 300 692 q 201 561 201 621 q 225 494 201 521 q 283 450 249 467 q 376 411 318 433 q 488 363 446 385 q 560 301 531 340 q 589 204 589 263 q 507 47 589 106 q 294 -11 425 -11 m 339 -72 q 335 -165 342 -125 q 182 -314 308 -314 l 192 -265 q 243 -246 225 -265 q 268 -187 261 -226 l 272 -168 l 213 -168 l 229 -72 l 339 -72 z "},"Ț":{"ha":722,"x_min":131,"x_max":782,"o":"m 782 971 l 768 893 l 497 893 l 340 0 l 243 0 l 400 893 l 131 893 l 144 971 l 782 971 m 331 -72 q 325 -165 332 -118 q 273 -278 311 -243 q 174 -314 235 -314 l 183 -265 q 260 -187 247 -265 l 263 -168 l 204 -168 l 221 -72 l 331 -72 z "},"ț":{"ha":494,"x_min":83,"x_max":511,"o":"m 203 206 q 199 163 199 181 q 223 101 199 118 q 303 83 247 83 l 392 83 l 376 0 l 272 0 q 143 33 186 0 q 100 143 100 67 q 106 206 100 174 l 189 676 l 83 676 l 99 758 l 204 758 l 238 949 l 335 949 l 301 758 l 511 758 l 496 676 l 286 676 l 203 206 m 240 -72 q 236 -165 243 -125 q 184 -279 222 -244 q 83 -314 146 -314 l 93 -265 q 144 -246 126 -265 q 169 -187 163 -226 l 172 -168 l 114 -168 l 131 -72 l 240 -72 z "},"ə":{"ha":864,"x_min":56,"x_max":808,"o":"m 496 769 q 723 688 638 769 q 808 467 808 607 q 800 379 808 425 q 716 172 779 261 q 560 36 653 83 q 358 -11 467 -11 q 194 26 263 -11 q 91 126 126 63 q 56 272 56 190 q 61 339 56 310 q 78 414 69 381 l 707 414 q 711 464 711 442 q 647 629 711 571 q 482 688 582 688 q 314 642 386 688 q 208 518 242 596 l 104 518 q 255 699 151 629 q 496 769 358 769 m 376 72 q 513 103 447 72 q 626 194 578 133 q 693 342 675 256 l 161 342 q 154 276 154 303 q 217 125 154 178 q 376 72 281 72 z "},"ʼ":{"ha":274,"x_min":107,"x_max":353,"o":"m 240 971 l 353 971 l 178 671 l 107 671 l 240 971 z "},"ˆ":{"ha":439,"x_min":113,"x_max":499,"o":"m 319 960 l 113 843 l 126 922 l 333 1036 l 499 922 l 485 843 l 319 960 z "},"ˇ":{"ha":439,"x_min":132,"x_max":518,"o":"m 504 956 l 299 842 l 132 956 l 147 1035 l 313 918 l 518 1035 l 504 956 z "},"ˉ":{"ha":538,"x_min":122,"x_max":607,"o":"m 607 972 l 594 897 l 122 897 l 136 972 l 607 972 z "},"˘":{"ha":443,"x_min":142,"x_max":524,"o":"m 519 1019 q 449 898 506 946 q 301 850 392 850 q 183 888 224 850 q 142 988 142 926 q 144 1021 142 999 l 147 1039 l 208 1039 q 206 1011 206 1019 q 315 928 206 928 q 461 1039 442 928 l 524 1039 l 519 1019 z "},"˙":{"ha":204,"x_min":128,"x_max":261,"o":"m 186 865 q 144 884 160 865 q 132 929 128 903 q 160 974 138 956 q 208 993 182 993 q 246 978 231 993 q 261 942 261 964 q 260 929 261 933 q 234 884 256 903 q 186 865 213 865 z "},"˚":{"ha":344,"x_min":135,"x_max":419,"o":"m 138 986 q 197 1087 150 1049 q 303 1125 244 1125 q 387 1095 354 1125 q 419 1015 419 1065 q 396 927 419 965 q 334 868 372 889 q 253 847 296 847 q 168 877 201 847 q 135 958 135 907 q 138 986 135 967 m 363 1004 q 343 1053 363 1035 q 292 1071 324 1071 q 228 1048 256 1071 q 194 986 201 1025 q 193 968 193 979 q 212 919 193 938 q 263 901 231 901 q 333 931 303 901 q 363 1004 363 960 z "},"˛":{"ha":344,"x_min":-58,"x_max":224,"o":"m 224 0 l 135 -40 q 51 -94 76 -67 q 26 -156 26 -122 q 47 -198 26 -183 q 101 -212 67 -212 q 194 -193 143 -212 l 182 -261 q 78 -279 131 -279 q -19 -254 19 -279 q -58 -178 -58 -229 q 124 19 -58 -57 l 206 53 l 224 0 z "},"˜":{"ha":464,"x_min":113,"x_max":533,"o":"m 113 842 q 170 938 132 904 q 258 971 208 971 q 299 963 283 971 q 338 936 315 954 q 369 913 356 921 q 403 906 383 906 q 446 922 426 906 q 474 968 465 938 l 533 968 q 476 873 515 907 q 386 839 436 839 q 342 848 360 839 q 304 875 325 857 q 274 897 288 889 q 242 904 260 904 q 172 842 190 904 l 113 842 z "},"˝":{"ha":451,"x_min":111,"x_max":531,"o":"m 179 835 l 111 835 l 236 1028 l 324 1028 l 179 835 m 372 835 l 304 835 l 443 1028 l 531 1028 l 372 835 z "},"π":{"ha":990,"x_min":108,"x_max":986,"o":"m 986 758 l 972 681 l 858 681 l 739 0 l 642 0 l 763 681 l 326 681 l 206 0 l 108 0 l 229 681 l 115 681 l 129 758 l 986 758 z "},"Ẁ":{"ha":1326,"x_min":139,"x_max":1392,"o":"m 1392 971 l 944 0 l 836 0 l 739 825 l 343 0 l 236 -1 l 139 971 l 244 971 l 315 125 l 714 971 l 824 971 l 914 122 l 1286 971 l 1392 971 m 799 1106 l 786 1031 l 531 1196 l 546 1283 l 799 1106 z "},"ẁ":{"ha":1132,"x_min":85,"x_max":1175,"o":"m 1175 758 l 804 0 l 707 0 l 610 635 l 286 0 l 189 0 l 85 758 l 185 758 l 258 103 l 585 758 l 683 758 l 776 101 l 1079 758 l 1175 758 m 694 892 l 682 817 l 426 982 l 442 1069 l 694 892 z "},"Ẃ":{"ha":1326,"x_min":139,"x_max":1392,"o":"m 1392 971 l 944 0 l 836 0 l 739 825 l 343 0 l 236 -1 l 139 971 l 244 971 l 315 125 l 714 971 l 824 971 l 914 122 l 1286 971 l 1392 971 m 1006 1200 l 692 1035 l 704 1110 l 1021 1288 l 1006 1200 z "},"ẃ":{"ha":1132,"x_min":85,"x_max":1175,"o":"m 1175 758 l 804 0 l 707 0 l 610 635 l 286 0 l 189 0 l 85 758 l 185 758 l 258 103 l 585 758 l 683 758 l 776 101 l 1079 758 l 1175 758 m 911 982 l 597 817 l 610 892 l 926 1069 l 911 982 z "},"Ẅ":{"ha":1326,"x_min":139,"x_max":1392,"o":"m 1392 971 l 944 0 l 836 0 l 739 825 l 343 0 l 236 -1 l 139 971 l 244 971 l 315 125 l 714 971 l 824 971 l 914 122 l 1286 971 l 1392 971 m 636 1081 q 598 1096 613 1081 q 583 1133 583 1111 q 606 1186 583 1164 q 658 1208 628 1208 q 697 1194 682 1208 q 711 1156 711 1179 q 688 1103 711 1125 q 636 1081 665 1081 m 850 1081 q 812 1096 826 1081 q 797 1133 797 1111 q 820 1186 797 1164 q 874 1208 843 1208 q 910 1194 896 1208 q 925 1157 925 1179 q 902 1103 925 1126 q 850 1081 879 1081 z "},"ẅ":{"ha":1132,"x_min":85,"x_max":1175,"o":"m 1175 758 l 804 0 l 707 0 l 610 635 l 286 0 l 189 0 l 85 758 l 185 758 l 258 103 l 585 758 l 683 758 l 776 101 l 1079 758 l 1175 758 m 543 865 q 505 881 519 865 q 490 918 490 896 q 513 971 490 949 q 565 993 535 993 q 603 978 589 993 q 618 940 618 964 q 595 888 618 910 q 543 865 572 865 m 757 865 q 719 881 733 865 q 704 918 704 896 q 727 971 704 949 q 781 993 750 993 q 817 978 803 993 q 832 942 832 964 q 809 888 832 911 q 757 865 786 865 z "},"Ẽ":{"ha":699,"x_min":42,"x_max":721,"o":"m 296 894 l 232 528 l 600 528 l 588 450 l 218 450 l 153 78 l 563 78 l 549 0 l 42 0 l 213 972 l 721 972 l 706 894 l 296 894 m 276 1042 q 334 1138 296 1104 q 422 1171 372 1171 q 463 1163 447 1171 q 501 1136 479 1154 q 533 1113 519 1121 q 567 1106 547 1106 q 610 1122 590 1106 q 638 1168 629 1138 l 697 1168 q 640 1073 679 1107 q 550 1039 600 1039 q 506 1048 524 1039 q 468 1075 489 1057 q 438 1097 451 1089 q 406 1104 424 1104 q 336 1042 354 1104 l 276 1042 z "},"ẽ":{"ha":864,"x_min":56,"x_max":808,"o":"m 506 769 q 669 733 601 769 q 773 632 738 696 q 808 486 808 568 q 803 419 808 449 q 786 344 794 378 l 157 344 q 153 294 153 318 q 217 129 153 188 q 382 71 282 71 q 550 117 478 71 q 656 240 622 163 l 760 240 q 609 59 713 129 q 368 -11 506 -11 q 141 70 226 -11 q 56 292 56 151 q 64 379 56 333 q 148 586 85 497 q 304 722 211 675 q 506 769 397 769 m 703 417 q 710 482 710 456 q 647 633 710 581 q 488 686 585 686 q 351 656 417 686 q 238 564 286 625 q 171 417 189 503 l 703 417 m 329 842 q 387 938 349 904 q 475 971 425 971 q 516 963 500 971 q 554 936 532 954 q 586 913 572 921 q 619 906 600 906 q 663 922 643 906 q 690 968 682 938 l 750 968 q 692 873 732 907 q 603 839 653 839 q 559 848 576 839 q 521 875 542 857 q 490 897 504 889 q 458 904 476 904 q 389 842 407 904 l 329 842 z "},"Ỳ":{"ha":783,"x_min":133,"x_max":856,"o":"m 856 971 l 439 378 l 372 0 l 275 0 l 342 378 l 133 971 l 243 971 l 406 467 l 746 971 l 856 971 m 644 1092 l 632 1017 l 376 1182 l 392 1269 l 644 1092 z "},"ỳ":{"ha":757,"x_min":51,"x_max":800,"o":"m 193 758 l 336 115 l 699 758 l 800 758 l 154 -357 l 51 -357 l 263 6 l 85 758 l 193 758 m 594 892 l 582 817 l 326 982 l 342 1069 l 594 892 z "},"Ỹ":{"ha":783,"x_min":133,"x_max":856,"o":"m 856 971 l 439 378 l 372 0 l 275 0 l 342 378 l 133 971 l 243 971 l 406 467 l 746 971 l 856 971 m 325 1042 q 383 1138 344 1104 q 471 1171 421 1171 q 512 1163 496 1171 q 550 1136 528 1154 q 582 1113 568 1121 q 615 1106 596 1106 q 658 1122 639 1106 q 686 1168 678 1138 l 746 1168 q 688 1073 728 1107 q 599 1039 649 1039 q 555 1048 572 1039 q 517 1075 538 1057 q 486 1097 500 1089 q 454 1104 472 1104 q 385 1042 403 1104 l 325 1042 z "},"ỹ":{"ha":757,"x_min":51,"x_max":800,"o":"m 193 758 l 336 115 l 699 758 l 800 758 l 154 -357 l 51 -357 l 263 6 l 85 758 l 193 758 m 276 842 q 334 938 296 904 q 422 971 372 971 q 463 963 447 971 q 501 936 479 954 q 533 913 519 921 q 567 906 547 906 q 610 922 590 906 q 638 968 629 938 l 697 968 q 640 873 679 907 q 550 839 600 839 q 506 848 524 839 q 468 875 489 857 q 438 897 451 889 q 406 904 424 904 q 336 842 354 904 l 276 842 z "},"–":{"ha":901,"x_min":106,"x_max":840,"o":"m 840 556 l 826 474 l 106 474 l 119 556 l 840 556 z "},"—":{"ha":1179,"x_min":106,"x_max":1118,"o":"m 1118 556 l 1104 474 l 106 474 l 119 556 l 1118 556 z "},"‘":{"ha":274,"x_min":72,"x_max":318,"o":"m 185 671 l 72 671 l 247 971 l 318 971 l 185 671 z "},"’":{"ha":274,"x_min":107,"x_max":353,"o":"m 240 971 l 353 971 l 178 671 l 107 671 l 240 971 z "},"‚":{"ha":222,"x_min":-107,"x_max":139,"o":"m 26 156 l 139 156 l -36 -146 l -107 -146 l 26 156 z "},"“":{"ha":478,"x_min":72,"x_max":522,"o":"m 185 671 l 72 671 l 247 971 l 318 971 l 185 671 m 389 671 l 276 671 l 451 971 l 522 971 l 389 671 z "},"”":{"ha":478,"x_min":107,"x_max":557,"o":"m 240 971 l 353 971 l 178 671 l 107 671 l 240 971 m 444 971 l 557 971 l 382 671 l 311 671 l 444 971 z "},"„":{"ha":443,"x_min":-107,"x_max":361,"o":"m 26 156 l 139 156 l -36 -146 l -107 -146 l 26 156 m 249 156 l 361 156 l 186 -146 l 115 -146 l 249 156 z "},"†":{"ha":710,"x_min":107,"x_max":719,"o":"m 706 679 l 446 689 l 271 -358 l 175 -358 l 369 689 l 107 679 l 121 758 l 381 749 l 429 1082 l 525 1082 l 457 749 l 719 758 l 706 679 z "},"‡":{"ha":711,"x_min":-19,"x_max":719,"o":"m 447 689 l 331 35 l 594 44 l 581 -35 l 321 -25 l 271 -358 l 175 -358 l 244 -25 l -19 -35 l -4 44 l 254 35 l 371 689 l 107 679 l 121 758 l 381 749 l 429 1082 l 525 1082 l 457 749 l 719 758 l 706 679 l 447 689 z "},"•":{"ha":508,"x_min":103,"x_max":429,"o":"m 238 303 q 141 340 179 303 q 103 435 103 378 q 130 528 103 485 q 201 598 157 572 q 294 624 246 624 q 392 587 354 624 q 429 493 429 550 q 402 399 429 443 q 331 329 375 356 q 238 303 286 303 z "},"…":{"ha":733,"x_min":-3,"x_max":628,"o":"m 300 -7 q 257 10 274 -7 q 240 53 240 26 q 266 111 240 86 q 325 136 292 136 q 368 120 351 136 q 385 78 385 104 q 359 19 385 44 q 300 -7 333 -7 m 543 -7 q 500 10 517 -7 q 483 53 483 26 q 509 111 483 86 q 568 136 535 136 q 611 120 594 136 q 628 78 628 104 q 602 19 628 44 q 543 -7 576 -7 m 57 -7 q 14 10 31 -7 q -3 53 -3 26 q 23 111 -3 86 q 82 136 49 136 q 125 120 108 136 q 142 78 142 104 q 116 19 142 44 q 57 -7 90 -7 z "},"‰":{"ha":1324,"x_min":35,"x_max":1235,"o":"m 126 788 q 206 929 142 875 q 356 983 271 983 q 475 941 431 983 q 519 828 519 899 q 515 788 519 808 q 435 644 500 699 q 286 589 371 589 q 167 631 211 589 q 122 746 122 674 q 126 788 122 765 m 874 972 l 132 0 l 35 0 l 776 972 l 874 972 m 344 921 q 253 885 292 921 q 204 788 215 850 q 201 751 201 775 q 227 678 201 704 q 297 651 253 651 q 388 688 349 651 q 438 788 426 724 q 440 821 440 810 q 415 894 440 868 q 344 921 389 921 m 396 185 q 476 328 411 274 q 625 382 540 382 q 744 340 699 382 q 789 225 789 297 q 785 185 789 206 q 705 42 769 96 q 556 -12 640 -12 q 437 30 482 -12 q 392 144 392 72 q 396 185 392 164 m 842 185 q 922 328 857 274 q 1071 382 986 382 q 1190 340 1144 382 q 1235 226 1235 297 q 1231 185 1235 208 q 1151 42 1215 96 q 1001 -12 1086 -12 q 883 30 928 -12 q 838 144 838 72 q 842 185 838 164 m 614 319 q 523 284 561 319 q 474 185 485 249 q 471 150 471 172 q 496 77 471 103 q 565 51 521 51 q 656 87 618 51 q 706 185 694 122 q 708 219 708 197 q 683 293 708 267 q 614 319 658 319 m 1060 319 q 969 284 1007 319 q 921 185 931 249 q 917 147 917 167 q 942 76 917 101 q 1013 51 968 51 q 1102 87 1064 51 q 1153 185 1140 122 q 1156 218 1156 210 q 1131 293 1156 267 q 1060 319 1106 319 z "},"‹":{"ha":368,"x_min":65,"x_max":344,"o":"m 160 167 l 65 410 l 246 653 l 344 653 l 160 410 l 260 167 l 160 167 z "},"›":{"ha":368,"x_min":29,"x_max":308,"o":"m 214 410 l 115 653 l 214 653 l 308 410 l 128 167 l 29 167 l 214 410 z "},"⁄":{"ha":568,"x_min":-110,"x_max":731,"o":"m 731 972 l -11 0 l -110 0 l 632 972 l 731 972 z "},"€":{"ha":1136,"x_min":21,"x_max":1131,"o":"m 575 79 q 790 133 696 79 q 944 283 885 188 l 1058 283 q 851 68 981 144 q 560 -8 721 -8 q 366 33 451 -8 q 228 152 281 75 q 165 332 176 229 l 21 332 l 33 401 l 164 401 q 172 486 164 443 q 189 558 178 522 l 61 558 l 74 628 l 215 628 q 340 814 261 733 q 522 938 419 894 q 735 982 624 982 q 999 905 896 982 q 1131 688 1103 828 l 1017 688 q 915 840 990 785 q 719 894 840 894 q 484 824 592 894 q 317 628 376 753 l 674 628 l 663 558 l 290 558 q 272 486 279 526 q 264 401 264 443 l 633 401 l 622 332 l 268 332 q 368 147 286 214 q 575 79 450 79 z "},"₺":{"ha":1128,"x_min":35,"x_max":1026,"o":"m 1026 564 q 827 120 974 268 q 422 -28 681 -28 q 219 -1 332 -28 l 281 344 l 35 283 l 47 356 l 293 417 l 322 575 l 72 513 l 85 583 l 335 646 l 393 975 l 492 975 l 439 672 l 714 742 l 701 669 l 426 601 l 399 442 l 669 508 l 657 436 l 385 369 l 333 74 q 439 63 382 63 q 764 189 644 63 q 926 564 883 315 l 1026 564 z "},"₽":{"ha":851,"x_min":25,"x_max":858,"o":"m 575 971 q 788 911 717 971 q 858 750 858 851 q 853 692 858 718 q 735 490 831 567 q 476 414 640 414 l 279 414 l 253 264 l 579 264 l 565 185 l 239 185 l 207 0 l 110 0 l 143 185 l 25 185 l 39 264 l 157 264 l 183 414 l 65 414 l 79 494 l 197 494 l 282 971 l 575 971 m 753 692 q 758 744 758 715 q 560 893 758 893 l 364 893 l 294 494 l 490 494 q 673 547 608 494 q 753 692 738 599 z "},"ℓ":{"ha":318,"x_min":42,"x_max":321,"o":"m 321 1028 l 139 0 l 42 0 l 224 1028 l 321 1028 z "},"™":{"ha":1047,"x_min":129,"x_max":1079,"o":"m 460 914 l 333 914 l 258 489 l 179 489 l 257 914 l 129 914 l 140 978 l 471 978 l 460 914 m 1079 978 l 993 489 l 919 489 l 985 863 l 754 489 l 696 489 l 600 867 l 533 489 l 460 489 l 547 978 l 646 978 l 744 582 l 985 978 l 1079 978 z "},"Ω":{"ha":1096,"x_min":11,"x_max":1061,"o":"m 1051 486 q 948 241 1028 350 q 747 78 868 132 l 960 78 l 944 0 l 561 0 l 576 82 q 821 215 718 108 q 953 482 924 322 q 961 571 961 528 q 920 742 961 668 q 806 855 879 815 q 636 894 732 894 q 427 842 525 894 q 263 697 329 790 q 175 482 196 603 q 167 393 167 436 q 233 187 167 269 q 410 82 299 104 l 394 0 l 11 0 l 25 78 l 236 78 q 111 204 154 122 q 68 392 68 286 q 76 486 68 439 q 188 742 103 629 q 394 919 272 856 q 651 982 517 982 q 863 933 769 982 q 1009 793 957 883 q 1061 585 1061 703 q 1051 486 1061 547 z "},"℮":{"ha":1061,"x_min":71,"x_max":1022,"o":"m 917 190 q 472 -10 696 -10 q 262 33 353 -10 q 121 157 171 75 q 71 354 71 239 q 81 457 71 407 q 181 717 106 601 q 372 901 256 833 q 632 968 488 968 q 846 919 758 968 q 978 786 933 869 q 1022 601 1022 703 q 1015 519 1022 565 l 1000 435 l 244 435 l 203 207 q 314 96 247 132 q 485 60 381 60 q 676 105 586 60 q 876 243 767 150 l 917 190 m 875 764 q 776 863 842 828 q 619 897 710 897 q 444 860 526 897 q 299 747 361 824 l 258 515 l 832 515 l 875 764 z "},"∂":{"ha":776,"x_min":31,"x_max":768,"o":"m 39 300 q 126 531 61 422 q 288 706 192 640 q 492 772 383 772 q 613 733 568 772 q 658 600 657 694 q 672 743 672 686 q 494 967 672 967 q 378 949 447 967 l 389 1010 q 518 1028 456 1028 q 704 952 640 1028 q 768 729 768 876 q 753 575 768 664 q 646 264 722 397 q 465 58 569 131 q 246 -14 360 -14 q 90 44 149 -14 q 31 214 31 101 q 39 300 31 254 m 617 456 q 625 533 625 497 q 588 651 625 611 q 481 690 550 690 q 331 639 403 690 q 208 498 260 588 q 138 300 157 408 q 132 232 132 267 q 169 110 132 150 q 271 69 207 69 q 424 123 351 69 q 548 265 497 176 q 617 456 599 353 z "},"∆":{"ha":925,"x_min":-42,"x_max":842,"o":"m 603 958 l 842 76 l 828 0 l -42 0 l -28 76 l 521 958 l 603 958 m 71 76 l 743 76 l 542 847 l 71 76 z "},"∏":{"ha":1022,"x_min":108,"x_max":1060,"o":"m 1060 972 l 1046 894 l 932 894 l 775 0 l 678 0 l 836 894 l 363 894 l 206 0 l 108 0 l 265 894 l 153 894 l 168 972 l 1060 972 z "},"∑":{"ha":606,"x_min":-31,"x_max":682,"o":"m 669 882 l 224 882 l 525 472 l 513 394 l 64 -19 l 510 -19 l 496 -96 l -31 -96 l -11 15 l 432 431 l 136 847 l 156 958 l 682 958 l 669 882 z "},"−":{"ha":721,"x_min":106,"x_max":660,"o":"m 660 556 l 646 474 l 106 474 l 119 556 l 660 556 z "},"∕":{"ha":613,"x_min":-46,"x_max":704,"o":"m 704 1306 l 50 -231 l -46 -231 l 606 1306 l 704 1306 z "},"∙":{"ha":254,"x_min":0,"x_max":144,"o":"m 60 410 q 17 426 33 410 q 0 469 0 443 q 26 528 0 503 q 85 553 51 553 q 128 537 111 553 q 144 494 144 521 q 119 435 144 461 q 60 410 93 410 z "}}}
